<?xml version="1.0" encoding="UTF-8"?><svg xmlns="http://www.w3.org/2000/svg" xmlns:xlink="http://www.w3.org/1999/xlink" contentScriptType="text/ecmascript" width="375pt" zoomAndPan="magnify" contentStyleType="text/css" viewBox="0 0 375 71.249999" height="71.249999pt" preserveAspectRatio="xMidYMid meet" version="1.2"><defs><g/><clipPath xml:id="clip1" id="clip1"><path d="M 117 7 L 192 7 L 192 70.507812 L 117 70.507812 Z M 117 7 "/></clipPath><clipPath xml:id="clip2" id="clip2"><path d="M 186 2 L 245 2 L 245 70.507812 L 186 70.507812 Z M 186 2 "/></clipPath><clipPath xml:id="clip3" id="clip3"><path d="M 292 14 L 295 14 L 295 18 L 292 18 Z M 292 14 "/></clipPath><clipPath xml:id="clip4" id="clip4"><path d="M 276.796875 17.371094 L 294.273438 13.921875 L 296.71875 26.300781 L 279.242188 29.75 Z M 276.796875 17.371094 "/></clipPath><clipPath xml:id="clip5" id="clip5"><path d="M 276.796875 17.371094 L 294.273438 13.921875 L 296.71875 26.300781 L 279.242188 29.75 Z M 276.796875 17.371094 "/></clipPath><clipPath xml:id="clip6" id="clip6"><path d="M 276.796875 17.371094 L 294.609375 13.855469 L 297.097656 26.46875 L 279.289062 29.984375 Z M 276.796875 17.371094 "/></clipPath><clipPath xml:id="clip7" id="clip7"><path d="M 292 15 L 294 15 L 294 16 L 292 16 Z M 292 15 "/></clipPath><clipPath xml:id="clip8" id="clip8"><path d="M 276.796875 17.371094 L 294.273438 13.921875 L 296.71875 26.300781 L 279.242188 29.75 Z M 276.796875 17.371094 "/></clipPath><clipPath xml:id="clip9" id="clip9"><path d="M 276.796875 17.371094 L 294.273438 13.921875 L 296.71875 26.300781 L 279.242188 29.75 Z M 276.796875 17.371094 "/></clipPath><clipPath xml:id="clip10" id="clip10"><path d="M 276.796875 17.371094 L 294.609375 13.855469 L 297.097656 26.46875 L 279.289062 29.984375 Z M 276.796875 17.371094 "/></clipPath><clipPath xml:id="clip11" id="clip11"><path d="M 289 15 L 294 15 L 294 21 L 289 21 Z M 289 15 "/></clipPath><clipPath xml:id="clip12" id="clip12"><path d="M 276.796875 17.371094 L 294.273438 13.921875 L 296.71875 26.300781 L 279.242188 29.75 Z M 276.796875 17.371094 "/></clipPath><clipPath xml:id="clip13" id="clip13"><path d="M 276.796875 17.371094 L 294.273438 13.921875 L 296.71875 26.300781 L 279.242188 29.75 Z M 276.796875 17.371094 "/></clipPath><clipPath xml:id="clip14" id="clip14"><path d="M 276.796875 17.371094 L 294.609375 13.855469 L 297.097656 26.46875 L 279.289062 29.984375 Z M 276.796875 17.371094 "/></clipPath><clipPath xml:id="clip15" id="clip15"><path d="M 293 15 L 294 15 L 294 17 L 293 17 Z M 293 15 "/></clipPath><clipPath xml:id="clip16" id="clip16"><path d="M 276.796875 17.371094 L 294.273438 13.921875 L 296.71875 26.300781 L 279.242188 29.75 Z M 276.796875 17.371094 "/></clipPath><clipPath xml:id="clip17" id="clip17"><path d="M 276.796875 17.371094 L 294.273438 13.921875 L 296.71875 26.300781 L 279.242188 29.75 Z M 276.796875 17.371094 "/></clipPath><clipPath xml:id="clip18" id="clip18"><path d="M 276.796875 17.371094 L 294.609375 13.855469 L 297.097656 26.46875 L 279.289062 29.984375 Z M 276.796875 17.371094 "/></clipPath><clipPath xml:id="clip19" id="clip19"><path d="M 291 16 L 293 16 L 293 18 L 291 18 Z M 291 16 "/></clipPath><clipPath xml:id="clip20" id="clip20"><path d="M 276.796875 17.371094 L 294.273438 13.921875 L 296.71875 26.300781 L 279.242188 29.75 Z M 276.796875 17.371094 "/></clipPath><clipPath xml:id="clip21" id="clip21"><path d="M 276.796875 17.371094 L 294.273438 13.921875 L 296.71875 26.300781 L 279.242188 29.75 Z M 276.796875 17.371094 "/></clipPath><clipPath xml:id="clip22" id="clip22"><path d="M 276.796875 17.371094 L 294.609375 13.855469 L 297.097656 26.46875 L 279.289062 29.984375 Z M 276.796875 17.371094 "/></clipPath><clipPath xml:id="clip23" id="clip23"><path d="M 290 17 L 293 17 L 293 19 L 290 19 Z M 290 17 "/></clipPath><clipPath xml:id="clip24" id="clip24"><path d="M 276.796875 17.371094 L 294.273438 13.921875 L 296.71875 26.300781 L 279.242188 29.75 Z M 276.796875 17.371094 "/></clipPath><clipPath xml:id="clip25" id="clip25"><path d="M 276.796875 17.371094 L 294.273438 13.921875 L 296.71875 26.300781 L 279.242188 29.75 Z M 276.796875 17.371094 "/></clipPath><clipPath xml:id="clip26" id="clip26"><path d="M 276.796875 17.371094 L 294.609375 13.855469 L 297.097656 26.46875 L 279.289062 29.984375 Z M 276.796875 17.371094 "/></clipPath><clipPath xml:id="clip27" id="clip27"><path d="M 283 18 L 291 18 L 291 25 L 283 25 Z M 283 18 "/></clipPath><clipPath xml:id="clip28" id="clip28"><path d="M 276.796875 17.371094 L 294.273438 13.921875 L 296.71875 26.300781 L 279.242188 29.75 Z M 276.796875 17.371094 "/></clipPath><clipPath xml:id="clip29" id="clip29"><path d="M 276.796875 17.371094 L 294.273438 13.921875 L 296.71875 26.300781 L 279.242188 29.75 Z M 276.796875 17.371094 "/></clipPath><clipPath xml:id="clip30" id="clip30"><path d="M 276.796875 17.371094 L 294.609375 13.855469 L 297.097656 26.46875 L 279.289062 29.984375 Z M 276.796875 17.371094 "/></clipPath><clipPath xml:id="clip31" id="clip31"><path d="M 284 18 L 292 18 L 292 26 L 284 26 Z M 284 18 "/></clipPath><clipPath xml:id="clip32" id="clip32"><path d="M 276.796875 17.371094 L 294.273438 13.921875 L 296.71875 26.300781 L 279.242188 29.75 Z M 276.796875 17.371094 "/></clipPath><clipPath xml:id="clip33" id="clip33"><path d="M 276.796875 17.371094 L 294.273438 13.921875 L 296.71875 26.300781 L 279.242188 29.75 Z M 276.796875 17.371094 "/></clipPath><clipPath xml:id="clip34" id="clip34"><path d="M 276.796875 17.371094 L 294.609375 13.855469 L 297.097656 26.46875 L 279.289062 29.984375 Z M 276.796875 17.371094 "/></clipPath><clipPath xml:id="clip35" id="clip35"><path d="M 285 18 L 292 18 L 292 27 L 285 27 Z M 285 18 "/></clipPath><clipPath xml:id="clip36" id="clip36"><path d="M 276.796875 17.371094 L 294.273438 13.921875 L 296.71875 26.300781 L 279.242188 29.75 Z M 276.796875 17.371094 "/></clipPath><clipPath xml:id="clip37" id="clip37"><path d="M 276.796875 17.371094 L 294.273438 13.921875 L 296.71875 26.300781 L 279.242188 29.75 Z M 276.796875 17.371094 "/></clipPath><clipPath xml:id="clip38" id="clip38"><path d="M 276.796875 17.371094 L 294.609375 13.855469 L 297.097656 26.46875 L 279.289062 29.984375 Z M 276.796875 17.371094 "/></clipPath><clipPath xml:id="clip39" id="clip39"><path d="M 289 19 L 291 19 L 291 20 L 289 20 Z M 289 19 "/></clipPath><clipPath xml:id="clip40" id="clip40"><path d="M 276.796875 17.371094 L 294.273438 13.921875 L 296.71875 26.300781 L 279.242188 29.75 Z M 276.796875 17.371094 "/></clipPath><clipPath xml:id="clip41" id="clip41"><path d="M 276.796875 17.371094 L 294.273438 13.921875 L 296.71875 26.300781 L 279.242188 29.75 Z M 276.796875 17.371094 "/></clipPath><clipPath xml:id="clip42" id="clip42"><path d="M 276.796875 17.371094 L 294.609375 13.855469 L 297.097656 26.46875 L 279.289062 29.984375 Z M 276.796875 17.371094 "/></clipPath><clipPath xml:id="clip43" id="clip43"><path d="M 289 19 L 290 19 L 290 20 L 289 20 Z M 289 19 "/></clipPath><clipPath xml:id="clip44" id="clip44"><path d="M 276.796875 17.371094 L 294.273438 13.921875 L 296.71875 26.300781 L 279.242188 29.75 Z M 276.796875 17.371094 "/></clipPath><clipPath xml:id="clip45" id="clip45"><path d="M 276.796875 17.371094 L 294.273438 13.921875 L 296.71875 26.300781 L 279.242188 29.75 Z M 276.796875 17.371094 "/></clipPath><clipPath xml:id="clip46" id="clip46"><path d="M 276.796875 17.371094 L 294.609375 13.855469 L 297.097656 26.46875 L 279.289062 29.984375 Z M 276.796875 17.371094 "/></clipPath><clipPath xml:id="clip47" id="clip47"><path d="M 282 24 L 286 24 L 286 29 L 282 29 Z M 282 24 "/></clipPath><clipPath xml:id="clip48" id="clip48"><path d="M 276.796875 17.371094 L 294.273438 13.921875 L 296.71875 26.300781 L 279.242188 29.75 Z M 276.796875 17.371094 "/></clipPath><clipPath xml:id="clip49" id="clip49"><path d="M 276.796875 17.371094 L 294.273438 13.921875 L 296.71875 26.300781 L 279.242188 29.75 Z M 276.796875 17.371094 "/></clipPath><clipPath xml:id="clip50" id="clip50"><path d="M 276.796875 17.371094 L 294.609375 13.855469 L 297.097656 26.46875 L 279.289062 29.984375 Z M 276.796875 17.371094 "/></clipPath><clipPath xml:id="clip51" id="clip51"><path d="M 286 24 L 287 24 L 287 25 L 286 25 Z M 286 24 "/></clipPath><clipPath xml:id="clip52" id="clip52"><path d="M 276.796875 17.371094 L 294.273438 13.921875 L 296.71875 26.300781 L 279.242188 29.75 Z M 276.796875 17.371094 "/></clipPath><clipPath xml:id="clip53" id="clip53"><path d="M 276.796875 17.371094 L 294.273438 13.921875 L 296.71875 26.300781 L 279.242188 29.75 Z M 276.796875 17.371094 "/></clipPath><clipPath xml:id="clip54" id="clip54"><path d="M 276.796875 17.371094 L 294.609375 13.855469 L 297.097656 26.46875 L 279.289062 29.984375 Z M 276.796875 17.371094 "/></clipPath><clipPath xml:id="clip55" id="clip55"><path d="M 286 24 L 287 24 L 287 26 L 286 26 Z M 286 24 "/></clipPath><clipPath xml:id="clip56" id="clip56"><path d="M 276.796875 17.371094 L 294.273438 13.921875 L 296.71875 26.300781 L 279.242188 29.75 Z M 276.796875 17.371094 "/></clipPath><clipPath xml:id="clip57" id="clip57"><path d="M 276.796875 17.371094 L 294.273438 13.921875 L 296.71875 26.300781 L 279.242188 29.75 Z M 276.796875 17.371094 "/></clipPath><clipPath xml:id="clip58" id="clip58"><path d="M 276.796875 17.371094 L 294.609375 13.855469 L 297.097656 26.46875 L 279.289062 29.984375 Z M 276.796875 17.371094 "/></clipPath><clipPath xml:id="clip59" id="clip59"><path d="M 282 25 L 284 25 L 284 28 L 282 28 Z M 282 25 "/></clipPath><clipPath xml:id="clip60" id="clip60"><path d="M 276.796875 17.371094 L 294.273438 13.921875 L 296.71875 26.300781 L 279.242188 29.75 Z M 276.796875 17.371094 "/></clipPath><clipPath xml:id="clip61" id="clip61"><path d="M 276.796875 17.371094 L 294.273438 13.921875 L 296.71875 26.300781 L 279.242188 29.75 Z M 276.796875 17.371094 "/></clipPath><clipPath xml:id="clip62" id="clip62"><path d="M 276.796875 17.371094 L 294.609375 13.855469 L 297.097656 26.46875 L 279.289062 29.984375 Z M 276.796875 17.371094 "/></clipPath><clipPath xml:id="clip63" id="clip63"><path d="M 283 26 L 285 26 L 285 27 L 283 27 Z M 283 26 "/></clipPath><clipPath xml:id="clip64" id="clip64"><path d="M 276.796875 17.371094 L 294.273438 13.921875 L 296.71875 26.300781 L 279.242188 29.75 Z M 276.796875 17.371094 "/></clipPath><clipPath xml:id="clip65" id="clip65"><path d="M 276.796875 17.371094 L 294.273438 13.921875 L 296.71875 26.300781 L 279.242188 29.75 Z M 276.796875 17.371094 "/></clipPath><clipPath xml:id="clip66" id="clip66"><path d="M 276.796875 17.371094 L 294.609375 13.855469 L 297.097656 26.46875 L 279.289062 29.984375 Z M 276.796875 17.371094 "/></clipPath><clipPath xml:id="clip67" id="clip67"><path d="M 279 29 L 281 29 L 281 30 L 279 30 Z M 279 29 "/></clipPath><clipPath xml:id="clip68" id="clip68"><path d="M 276.796875 17.371094 L 294.273438 13.921875 L 296.71875 26.300781 L 279.242188 29.75 Z M 276.796875 17.371094 "/></clipPath><clipPath xml:id="clip69" id="clip69"><path d="M 276.796875 17.371094 L 294.273438 13.921875 L 296.71875 26.300781 L 279.242188 29.75 Z M 276.796875 17.371094 "/></clipPath><clipPath xml:id="clip70" id="clip70"><path d="M 276.796875 17.371094 L 294.609375 13.855469 L 297.097656 26.46875 L 279.289062 29.984375 Z M 276.796875 17.371094 "/></clipPath><clipPath xml:id="clip71" id="clip71"><path d="M 281 29 L 283 29 L 283 30 L 281 30 Z M 281 29 "/></clipPath><clipPath xml:id="clip72" id="clip72"><path d="M 276.796875 17.371094 L 294.273438 13.921875 L 296.71875 26.300781 L 279.242188 29.75 Z M 276.796875 17.371094 "/></clipPath><clipPath xml:id="clip73" id="clip73"><path d="M 276.796875 17.371094 L 294.273438 13.921875 L 296.71875 26.300781 L 279.242188 29.75 Z M 276.796875 17.371094 "/></clipPath><clipPath xml:id="clip74" id="clip74"><path d="M 276.796875 17.371094 L 294.609375 13.855469 L 297.097656 26.46875 L 279.289062 29.984375 Z M 276.796875 17.371094 "/></clipPath><clipPath xml:id="clip75" id="clip75"><path d="M 281.542969 29.179688 L 282.082031 29.074219 L 282.152344 29.417969 L 281.609375 29.523438 Z M 281.542969 29.179688 "/></clipPath><clipPath xml:id="clip76" id="clip76"><path d="M 281.542969 29.179688 L 282.082031 29.074219 L 282.152344 29.417969 L 281.609375 29.523438 Z M 281.542969 29.179688 "/></clipPath><clipPath xml:id="clip77" id="clip77"><path d="M 281 14 L 296 14 L 296 30 L 281 30 Z M 281 14 "/></clipPath><clipPath xml:id="clip78" id="clip78"><path d="M 276.796875 17.371094 L 294.273438 13.921875 L 296.71875 26.300781 L 279.242188 29.75 Z M 276.796875 17.371094 "/></clipPath><clipPath xml:id="clip79" id="clip79"><path d="M 276.796875 17.371094 L 294.273438 13.921875 L 296.71875 26.300781 L 279.242188 29.75 Z M 276.796875 17.371094 "/></clipPath><clipPath xml:id="clip80" id="clip80"><path d="M 276.796875 17.371094 L 294.609375 13.855469 L 297.097656 26.46875 L 279.289062 29.984375 Z M 276.796875 17.371094 "/></clipPath><clipPath xml:id="clip81" id="clip81"><path d="M 278.671875 17.003906 L 294.609375 13.855469 L 297 25.964844 L 281.0625 29.113281 Z M 278.671875 17.003906 "/></clipPath><clipPath xml:id="clip82" id="clip82"><path d="M 278.671875 17.003906 L 294.601562 13.859375 L 296.992188 25.96875 L 281.0625 29.113281 Z M 278.671875 17.003906 "/></clipPath><clipPath xml:id="clip83" id="clip83"><path d="M 241 12.503906 L 284 12.503906 L 284 47.785156 L 241 47.785156 Z M 241 12.503906 "/></clipPath></defs><g xml:id="surface1" id="surface1"><g clip-rule="nonzero" clip-path="url(#clip1)"><g style="fill:rgb(0%,33.729553%,52.549744%);fill-opacity:1;"><g transform="translate(117.654507, 61.248837)"><path style="stroke:none;" d="M 1.605469 10.492188 C 2.078125 10.492188 2.457031 10.304688 2.835938 9.925781 C 3.496094 9.167969 4.066406 8.320312 4.539062 7.375 C 5.199219 6.144531 5.765625 5.011719 6.332031 3.78125 C 6.804688 2.550781 7.375 1.417969 7.941406 0.1875 C 9.167969 -2.550781 10.492188 -5.199219 11.722656 -7.941406 C 12.953125 -10.585938 14.179688 -13.234375 15.410156 -15.882812 C 19.757812 -24.863281 26.847656 -36.679688 34.882812 -42.730469 C 35.167969 -42.824219 35.355469 -43.011719 35.640625 -43.203125 C 35.921875 -43.296875 36.207031 -43.484375 36.492188 -43.582031 L 36.679688 -43.582031 C 36.964844 -43.582031 37.152344 -43.484375 37.152344 -43.203125 C 37.152344 -42.824219 37.152344 -42.445312 37.152344 -42.066406 C 37.152344 -41.691406 37.058594 -41.3125 36.964844 -41.027344 C 36.585938 -38.382812 35.828125 -35.828125 35.074219 -33.277344 C 33.84375 -29.210938 32.519531 -25.144531 31.386719 -21.082031 C 30.628906 -18.152344 30.0625 -15.316406 29.777344 -12.007812 C 29.871094 -11.722656 29.871094 -11.34375 29.871094 -10.964844 C 29.777344 -10.585938 29.871094 -10.210938 29.96875 -9.832031 C 30.25 -8.222656 31.007812 -7.46875 32.140625 -7.46875 C 32.707031 -7.46875 33.277344 -7.65625 33.84375 -8.035156 C 34.695312 -8.507812 35.546875 -9.265625 36.394531 -10.304688 C 37.4375 -11.628906 38.476562 -12.953125 39.421875 -14.179688 C 41.785156 -17.488281 44.148438 -20.417969 46.792969 -23.351562 C 47.265625 -23.726562 47.644531 -24.105469 48.023438 -24.578125 C 48.402344 -24.957031 48.875 -25.335938 49.347656 -25.617188 C 49.820312 -25.902344 50.199219 -26.089844 50.480469 -26.089844 C 51.617188 -26.089844 51.804688 -24.296875 52.089844 -23.445312 C 52.183594 -22.59375 52.371094 -21.835938 52.464844 -21.082031 C 52.5625 -20.230469 52.75 -19.378906 52.84375 -18.527344 C 53.035156 -17.394531 53.222656 -16.261719 53.410156 -15.125 C 53.601562 -13.898438 53.789062 -12.761719 54.074219 -11.53125 C 54.640625 -8.886719 57.097656 -5.292969 59.839844 -5.292969 C 60.597656 -5.292969 61.542969 -5.578125 62.675781 -6.050781 C 64.757812 -7.183594 73.074219 -17.488281 73.832031 -19.851562 C 73.925781 -20.324219 73.832031 -20.609375 73.359375 -20.796875 C 73.265625 -20.890625 72.980469 -20.988281 72.695312 -20.988281 C 72.414062 -20.988281 72.320312 -20.988281 72.222656 -20.890625 C 71.941406 -20.796875 71.75 -20.609375 71.46875 -20.324219 C 69.105469 -17.109375 67.214844 -14.558594 65.796875 -12.574219 C 64.378906 -10.585938 63.339844 -9.453125 62.867188 -9.074219 C 61.824219 -8.222656 60.878906 -7.847656 60.03125 -7.847656 C 57.003906 -7.847656 56.246094 -12.855469 55.679688 -15.597656 L 54.546875 -23.917969 C 54.074219 -26.46875 53.316406 -28.644531 50.292969 -28.644531 C 49.253906 -28.550781 48.402344 -28.171875 47.550781 -27.414062 C 46.132812 -26.1875 45 -25.050781 43.863281 -23.632812 C 41.21875 -20.703125 39.042969 -17.773438 36.679688 -14.652344 C 35.828125 -13.425781 34.789062 -12.289062 33.75 -11.15625 C 33.558594 -10.871094 33.277344 -10.683594 32.992188 -10.683594 C 32.804688 -10.683594 32.707031 -10.683594 32.613281 -10.777344 C 32.332031 -10.964844 32.234375 -11.34375 32.234375 -11.816406 C 32.234375 -13.992188 32.707031 -15.976562 33.179688 -17.960938 C 34.222656 -22.214844 35.355469 -26.28125 36.773438 -30.441406 C 37.8125 -33.75 38.757812 -36.964844 39.421875 -40.273438 C 39.703125 -41.691406 39.800781 -43.203125 39.515625 -44.621094 C 39.136719 -46.132812 38.191406 -46.511719 36.773438 -46.511719 C 36.492188 -46.417969 36.207031 -46.320312 35.921875 -46.226562 C 35.640625 -46.132812 35.355469 -45.945312 35.074219 -45.847656 C 24.769531 -38.949219 16.636719 -24.578125 11.4375 -13.425781 C 10.398438 -11.058594 9.265625 -8.792969 8.222656 -6.429688 C 7.183594 -4.066406 6.050781 -1.703125 5.011719 0.660156 C 4.820312 1.132812 4.632812 1.605469 4.441406 2.078125 C 4.160156 2.550781 3.96875 3.023438 3.78125 3.496094 C 3.6875 3.59375 3.59375 3.78125 3.496094 3.96875 C 3.402344 4.160156 3.214844 4.253906 2.929688 4.253906 C 2.648438 4.253906 2.457031 4.160156 2.550781 3.96875 C 2.550781 3.6875 2.550781 3.496094 2.550781 3.308594 C 2.550781 2.929688 2.648438 2.457031 2.742188 1.796875 C 3.496094 -4.253906 4.726562 -10.019531 6.523438 -15.691406 C 7.75 -19.851562 9.074219 -24.011719 10.492188 -28.078125 C 11.816406 -32.140625 13.140625 -36.300781 14.464844 -40.460938 C 15.125 -42.445312 15.691406 -44.335938 16.261719 -46.320312 C 16.734375 -48.210938 17.394531 -50.101562 18.152344 -51.992188 C 18.433594 -52.65625 18.339844 -53.222656 17.679688 -53.601562 C 17.582031 -53.695312 17.488281 -53.695312 17.207031 -53.695312 C 16.828125 -53.695312 16.449219 -53.507812 16.070312 -53.035156 C 15.789062 -52.5625 15.503906 -51.992188 15.316406 -51.519531 C 15.125 -50.953125 14.9375 -50.386719 14.746094 -49.914062 L 8.792969 -31.007812 C 6.144531 -22.6875 3.402344 -14.652344 1.605469 -6.050781 C 0.757812 -1.890625 -0.09375 2.078125 0 6.523438 C 0 6.996094 0 7.375 0 7.847656 C 0 8.320312 0.09375 8.792969 0.1875 9.265625 C 0.378906 10.113281 0.851562 10.492188 1.605469 10.492188 Z M 1.605469 10.492188 "/></g></g></g><g clip-rule="nonzero" clip-path="url(#clip2)"><g style="fill:rgb(0%,33.729553%,52.549744%);fill-opacity:1;"><g transform="translate(186.736358, 61.248837)"><path style="stroke:none;" d="M 6.617188 9.640625 C 6.902344 9.640625 7.277344 9.453125 7.65625 9.074219 C 8.414062 7.941406 8.414062 6.710938 8.035156 5.199219 L 8.886719 -0.945312 C 8.980469 -1.511719 9.265625 -1.796875 9.640625 -1.796875 C 10.019531 -1.796875 12.007812 -0.757812 12.382812 -0.472656 C 15.503906 1.230469 21.460938 3.496094 25.050781 3.496094 C 31.574219 3.496094 39.988281 -2.363281 44.527344 -6.902344 C 46.320312 -8.601562 48.117188 -10.304688 49.914062 -12.101562 C 51.617188 -13.800781 53.410156 -15.503906 55.207031 -17.207031 C 55.679688 -17.679688 56.058594 -18.054688 56.246094 -18.339844 C 57.191406 -19.378906 57.382812 -20.136719 56.816406 -20.796875 C 56.625 -20.988281 56.4375 -21.082031 56.246094 -21.082031 C 55.773438 -21.082031 55.207031 -20.703125 54.546875 -20.042969 L 43.484375 -9.265625 C 38.757812 -5.011719 31.574219 1.039062 25.050781 1.039062 C 21.742188 1.039062 12.007812 -2.457031 9.738281 -5.199219 C 9.832031 -6.050781 9.832031 -6.804688 9.925781 -7.65625 C 10.019531 -8.414062 10.019531 -9.167969 10.113281 -10.019531 C 10.304688 -11.4375 10.964844 -12.480469 12.195312 -13.328125 C 19.664062 -18.246094 27.226562 -24.105469 33.75 -30.914062 C 40.273438 -37.625 45.945312 -45.1875 49.628906 -53.507812 C 50.101562 -54.640625 50.574219 -55.871094 50.671875 -57.097656 C 50.671875 -57.761719 50.386719 -58.140625 49.820312 -58.234375 C 49.726562 -58.234375 49.726562 -58.234375 49.726562 -58.328125 C 49.628906 -58.328125 49.628906 -58.328125 49.535156 -58.328125 C 49.253906 -58.328125 48.96875 -58.042969 48.683594 -57.570312 C 46.226562 -47.929688 33.9375 -33.75 26.5625 -27.414062 C 22.5 -23.726562 18.152344 -20.609375 13.707031 -17.300781 C 13.425781 -17.207031 13.140625 -17.015625 12.953125 -16.828125 C 12.667969 -16.636719 12.382812 -16.449219 12.101562 -16.355469 C 12.007812 -16.261719 11.910156 -16.261719 11.816406 -16.261719 C 11.4375 -16.261719 11.25 -16.449219 11.25 -16.828125 C 11.25 -17.109375 11.25 -17.488281 11.25 -17.773438 C 11.25 -18.054688 11.25 -18.339844 11.34375 -18.625 C 12.953125 -29.117188 15.03125 -38.855469 18.054688 -49.0625 C 18.152344 -49.535156 18.339844 -49.914062 18.433594 -50.292969 C 18.527344 -50.671875 18.625 -51.046875 18.71875 -51.425781 C 18.8125 -52.089844 18.625 -52.464844 18.152344 -52.75 C 18.054688 -52.75 18.054688 -52.75 17.960938 -52.84375 C 17.867188 -52.84375 17.867188 -52.84375 17.773438 -52.84375 C 17.207031 -52.84375 16.828125 -52.5625 16.636719 -52.089844 C 16.355469 -51.425781 15.976562 -50.671875 15.691406 -49.726562 C 12.382812 -38.664062 9.925781 -27.414062 8.507812 -15.976562 C 8.222656 -14.085938 7.46875 -12.953125 5.957031 -12.101562 C 5.011719 -11.628906 1.703125 -9.738281 0.757812 -8.792969 C -0.378906 -7.75 -0.378906 -6.804688 1.039062 -6.144531 C 1.324219 -6.050781 1.511719 -5.957031 1.796875 -5.859375 C 1.984375 -5.765625 2.175781 -5.671875 2.457031 -5.578125 C 3.308594 -5.292969 4.253906 -5.011719 5.011719 -4.632812 C 6.617188 -3.875 6.804688 -3.78125 6.523438 -1.984375 C 6.429688 -0.566406 6.238281 0.945312 6.050781 2.363281 C 5.859375 3.78125 5.671875 5.199219 5.484375 6.617188 C 5.386719 7.277344 5.199219 8.035156 5.484375 8.695312 C 5.671875 9.359375 6.050781 9.640625 6.617188 9.640625 Z M 6.617188 -6.902344 C 6.238281 -6.902344 5.957031 -6.996094 5.765625 -7.089844 C 5.484375 -7.183594 5.292969 -7.277344 5.105469 -7.375 C 4.820312 -7.46875 4.632812 -7.65625 4.347656 -7.75 C 4.820312 -8.886719 6.050781 -9.359375 7.183594 -9.738281 C 7.847656 -9.074219 7.5625 -8.601562 7.46875 -7.941406 C 7.375 -7.277344 7.089844 -6.902344 6.617188 -6.902344 Z M 6.617188 -6.902344 "/></g></g></g><g clip-rule="nonzero" clip-path="url(#clip3)"><g clip-rule="nonzero" clip-path="url(#clip4)"><g clip-rule="nonzero" clip-path="url(#clip5)"><g clip-rule="nonzero" clip-path="url(#clip6)"><path style=" stroke:none;fill-rule:evenodd;fill:rgb(100%,59.999084%,59.999084%);fill-opacity:1;" d="M 293.347656 15.957031 C 293.367188 16.007812 293.417969 16.003906 293.4375 16.046875 C 293.542969 16.027344 293.539062 15.933594 293.625 15.902344 C 293.582031 15.847656 293.589844 15.714844 293.488281 15.75 C 293.472656 15.839844 293.300781 15.824219 293.347656 15.957031 Z M 292.988281 15.59375 C 293.199219 15.683594 293.207031 15.410156 293.253906 15.289062 C 293.054688 15.234375 292.957031 15.410156 292.988281 15.59375 Z M 293.566406 17.433594 C 293.253906 16.578125 292.742188 16.019531 292.066406 15.703125 C 292.25 15.292969 292.613281 15.003906 292.871094 14.640625 C 293.546875 14.628906 294.308594 15.140625 294.519531 15.835938 C 294.785156 16.722656 294.0625 17.066406 293.566406 17.433594 "/></g></g></g></g><g clip-rule="nonzero" clip-path="url(#clip7)"><g clip-rule="nonzero" clip-path="url(#clip8)"><g clip-rule="nonzero" clip-path="url(#clip9)"><g clip-rule="nonzero" clip-path="url(#clip10)"><path style=" stroke:none;fill-rule:evenodd;fill:rgb(0%,0%,0%);fill-opacity:1;" d="M 293.253906 15.289062 C 293.207031 15.410156 293.199219 15.683594 292.988281 15.59375 C 292.957031 15.410156 293.054688 15.234375 293.253906 15.289062 "/></g></g></g></g><g clip-rule="nonzero" clip-path="url(#clip11)"><g clip-rule="nonzero" clip-path="url(#clip12)"><g clip-rule="nonzero" clip-path="url(#clip13)"><g clip-rule="nonzero" clip-path="url(#clip14)"><path style=" stroke:none;fill-rule:evenodd;fill:rgb(92.939758%,92.939758%,92.939758%);fill-opacity:1;" d="M 290.976562 17.148438 C 291.664062 17.242188 292.027344 18.019531 292.175781 18.648438 C 292.476562 18.519531 292.179688 18.125 292.0625 17.875 C 291.820312 17.378906 291.492188 16.941406 290.949219 17.011719 C 290.972656 17.105469 290.90625 17.089844 290.976562 17.148438 Z M 291.792969 16.699219 C 292.089844 16.890625 292.367188 17.203125 292.542969 17.5625 C 292.597656 17.679688 292.546875 17.90625 292.75 17.882812 C 292.847656 17.644531 292.621094 17.296875 292.441406 17.042969 C 292.300781 16.84375 292.066406 16.691406 291.945312 16.558594 C 291.898438 16.570312 291.867188 16.558594 291.835938 16.546875 C 291.847656 16.613281 291.75 16.609375 291.792969 16.699219 Z M 293.535156 18.199219 C 293.210938 18.375 292.980469 18.738281 292.976562 19.214844 C 292.847656 19.238281 292.722656 19.265625 292.59375 19.289062 C 292.449219 19.679688 292.171875 20.386719 291.617188 20.207031 C 291.597656 19.933594 291.847656 19.78125 291.875 19.503906 C 292.023438 18.121094 290.542969 17.359375 289.464844 18.097656 C 289.394531 17.738281 289.484375 17.488281 289.667969 17.300781 C 290.324219 17.429688 290.523438 16.96875 290.628906 16.496094 C 290.773438 16.417969 290.828125 16.464844 291.015625 16.417969 C 291.242188 16.238281 291.066406 15.789062 291.496094 15.746094 C 292.226562 15.929688 293.085938 16.535156 293.390625 17.46875 C 293.476562 17.726562 293.421875 17.992188 293.535156 18.199219 "/></g></g></g></g><g clip-rule="nonzero" clip-path="url(#clip15)"><g clip-rule="nonzero" clip-path="url(#clip16)"><g clip-rule="nonzero" clip-path="url(#clip17)"><g clip-rule="nonzero" clip-path="url(#clip18)"><path style=" stroke:none;fill-rule:evenodd;fill:rgb(0%,0%,0%);fill-opacity:1;" d="M 293.488281 15.75 C 293.589844 15.714844 293.582031 15.847656 293.625 15.902344 C 293.539062 15.933594 293.542969 16.027344 293.4375 16.046875 C 293.417969 16.003906 293.367188 16.007812 293.347656 15.957031 C 293.300781 15.824219 293.472656 15.839844 293.488281 15.75 "/></g></g></g></g><g clip-rule="nonzero" clip-path="url(#clip19)"><g clip-rule="nonzero" clip-path="url(#clip20)"><g clip-rule="nonzero" clip-path="url(#clip21)"><g clip-rule="nonzero" clip-path="url(#clip22)"><path style=" stroke:none;fill-rule:evenodd;fill:rgb(0%,0%,0%);fill-opacity:1;" d="M 291.835938 16.546875 C 291.867188 16.558594 291.898438 16.570312 291.945312 16.558594 C 292.066406 16.691406 292.300781 16.84375 292.441406 17.042969 C 292.621094 17.296875 292.847656 17.644531 292.75 17.882812 C 292.546875 17.90625 292.597656 17.679688 292.542969 17.5625 C 292.367188 17.203125 292.089844 16.890625 291.792969 16.699219 C 291.75 16.609375 291.847656 16.613281 291.835938 16.546875 "/></g></g></g></g><g clip-rule="nonzero" clip-path="url(#clip23)"><g clip-rule="nonzero" clip-path="url(#clip24)"><g clip-rule="nonzero" clip-path="url(#clip25)"><g clip-rule="nonzero" clip-path="url(#clip26)"><path style=" stroke:none;fill-rule:evenodd;fill:rgb(0%,0%,0%);fill-opacity:1;" d="M 290.949219 17.011719 C 291.492188 16.941406 291.820312 17.378906 292.0625 17.875 C 292.179688 18.125 292.476562 18.519531 292.175781 18.648438 C 292.027344 18.019531 291.664062 17.242188 290.976562 17.148438 C 290.90625 17.089844 290.972656 17.105469 290.949219 17.011719 "/></g></g></g></g><g clip-rule="nonzero" clip-path="url(#clip27)"><g clip-rule="nonzero" clip-path="url(#clip28)"><g clip-rule="nonzero" clip-path="url(#clip29)"><g clip-rule="nonzero" clip-path="url(#clip30)"><path style=" stroke:none;fill-rule:evenodd;fill:rgb(100%,85.488892%,0%);fill-opacity:1;" d="M 290.011719 18.136719 C 289.511719 18.898438 288.863281 19.546875 288.253906 20.21875 C 286.984375 21.613281 285.910156 23.1875 284.550781 24.566406 C 284.390625 24.320312 284.144531 24.210938 283.769531 24.285156 C 284.476562 23.179688 285.496094 22.273438 286.433594 21.265625 C 287.09375 20.550781 287.828125 19.792969 288.609375 19.097656 C 289.035156 18.722656 289.339844 18.398438 289.902344 18.121094 C 289.933594 18.132812 289.964844 18.144531 290.011719 18.136719 "/></g></g></g></g><g clip-rule="nonzero" clip-path="url(#clip31)"><g clip-rule="nonzero" clip-path="url(#clip32)"><g clip-rule="nonzero" clip-path="url(#clip33)"><g clip-rule="nonzero" clip-path="url(#clip34)"><path style=" stroke:none;fill-rule:evenodd;fill:rgb(100%,87.449646%,25.099182%);fill-opacity:1;" d="M 289.644531 19.941406 C 289.757812 19.945312 289.71875 19.953125 289.820312 19.910156 C 289.832031 19.808594 289.882812 19.632812 289.785156 19.554688 C 289.582031 19.578125 289.636719 19.773438 289.644531 19.941406 Z M 289.996094 19.695312 C 290.023438 19.695312 290.0625 19.679688 290.070312 19.714844 C 290.238281 19.710938 290.210938 19.402344 290.050781 19.429688 C 290.058594 19.535156 289.925781 19.546875 289.996094 19.695312 Z M 291.488281 18.640625 C 290.292969 20.105469 288.878906 21.375 287.597656 22.769531 C 286.835938 23.601562 286.15625 24.507812 285.300781 25.25 C 285.179688 24.949219 285 24.734375 284.605469 24.84375 C 286.527344 22.546875 288.453125 20.25 290.460938 18.011719 C 290.933594 18.023438 291.242188 18.289062 291.488281 18.640625 "/></g></g></g></g><g clip-rule="nonzero" clip-path="url(#clip35)"><g clip-rule="nonzero" clip-path="url(#clip36)"><g clip-rule="nonzero" clip-path="url(#clip37)"><g clip-rule="nonzero" clip-path="url(#clip38)"><path style=" stroke:none;fill-rule:evenodd;fill:rgb(100%,85.488892%,0%);fill-opacity:1;" d="M 286.53125 25.257812 C 286.707031 25.226562 286.6875 25.058594 286.636719 24.875 C 286.574219 24.898438 286.554688 24.851562 286.492188 24.867188 C 286.511719 25.042969 286.441406 25.105469 286.53125 25.257812 Z M 286.828125 24.730469 C 286.910156 24.726562 286.960938 24.699219 286.992188 24.660156 C 286.957031 24.582031 286.929688 24.488281 286.820312 24.515625 C 286.792969 24.613281 286.765625 24.632812 286.828125 24.730469 Z M 285.882812 26.183594 C 285.835938 25.863281 285.617188 25.648438 285.382812 25.484375 C 287.382812 23.289062 289.378906 21.09375 291.523438 18.996094 C 291.5625 18.980469 291.585938 18.988281 291.597656 19.015625 C 291.667969 19.324219 291.570312 19.519531 291.570312 19.78125 C 289.757812 21.972656 287.875 24.113281 285.882812 26.183594 "/></g></g></g></g><g clip-rule="nonzero" clip-path="url(#clip39)"><g clip-rule="nonzero" clip-path="url(#clip40)"><g clip-rule="nonzero" clip-path="url(#clip41)"><g clip-rule="nonzero" clip-path="url(#clip42)"><path style=" stroke:none;fill-rule:evenodd;fill:rgb(0%,0%,0%);fill-opacity:1;" d="M 290.050781 19.429688 C 290.210938 19.402344 290.238281 19.710938 290.070312 19.714844 C 290.0625 19.679688 290.023438 19.695312 289.996094 19.695312 C 289.925781 19.546875 290.058594 19.535156 290.050781 19.429688 "/></g></g></g></g><g clip-rule="nonzero" clip-path="url(#clip43)"><g clip-rule="nonzero" clip-path="url(#clip44)"><g clip-rule="nonzero" clip-path="url(#clip45)"><g clip-rule="nonzero" clip-path="url(#clip46)"><path style=" stroke:none;fill-rule:evenodd;fill:rgb(0%,0%,0%);fill-opacity:1;" d="M 289.785156 19.554688 C 289.882812 19.632812 289.832031 19.808594 289.820312 19.910156 C 289.71875 19.953125 289.757812 19.945312 289.644531 19.941406 C 289.636719 19.773438 289.582031 19.578125 289.785156 19.554688 "/></g></g></g></g><g clip-rule="nonzero" clip-path="url(#clip47)"><g clip-rule="nonzero" clip-path="url(#clip48)"><g clip-rule="nonzero" clip-path="url(#clip49)"><g clip-rule="nonzero" clip-path="url(#clip50)"><path style=" stroke:none;fill-rule:evenodd;fill:rgb(98.81897%,97.648621%,90.979004%);fill-opacity:1;" d="M 283.714844 26.933594 C 283.742188 26.9375 283.761719 26.957031 283.761719 27 C 284.152344 26.824219 284.375 26.542969 284.636719 26.285156 C 284.253906 26.332031 283.941406 26.683594 283.714844 26.933594 Z M 282.585938 27.265625 C 282.765625 27.394531 282.859375 27.085938 282.921875 26.949219 C 283.257812 26.628906 283.585938 26.210938 283.757812 25.878906 C 283.359375 26.214844 282.84375 26.734375 282.585938 27.265625 Z M 284.300781 24.578125 C 284.390625 24.792969 284.347656 24.960938 284.445312 25.128906 C 284.632812 25.113281 284.945312 24.992188 285.070312 25.183594 C 285.144531 25.398438 285.09375 25.523438 285.097656 25.6875 C 285.195312 25.78125 285.382812 25.742188 285.488281 25.828125 C 285.589844 25.988281 285.714844 26.199219 285.679688 26.4375 C 284.832031 27.101562 283.625 27.464844 282.738281 28.03125 C 282.507812 27.953125 282.355469 27.761719 282.125 27.683594 C 282.21875 27.21875 282.488281 26.652344 282.714844 26.085938 C 282.898438 25.617188 283.300781 24.695312 283.636719 24.527344 C 283.8125 24.441406 284.101562 24.472656 284.300781 24.578125 "/></g></g></g></g><g clip-rule="nonzero" clip-path="url(#clip51)"><g clip-rule="nonzero" clip-path="url(#clip52)"><g clip-rule="nonzero" clip-path="url(#clip53)"><g clip-rule="nonzero" clip-path="url(#clip54)"><path style=" stroke:none;fill-rule:evenodd;fill:rgb(0%,0%,0%);fill-opacity:1;" d="M 286.820312 24.515625 C 286.929688 24.488281 286.957031 24.582031 286.992188 24.660156 C 286.960938 24.699219 286.910156 24.726562 286.828125 24.730469 C 286.765625 24.632812 286.792969 24.613281 286.820312 24.515625 "/></g></g></g></g><g clip-rule="nonzero" clip-path="url(#clip55)"><g clip-rule="nonzero" clip-path="url(#clip56)"><g clip-rule="nonzero" clip-path="url(#clip57)"><g clip-rule="nonzero" clip-path="url(#clip58)"><path style=" stroke:none;fill-rule:evenodd;fill:rgb(0%,0%,0%);fill-opacity:1;" d="M 286.492188 24.867188 C 286.554688 24.851562 286.574219 24.898438 286.636719 24.875 C 286.6875 25.058594 286.707031 25.226562 286.53125 25.257812 C 286.441406 25.105469 286.511719 25.042969 286.492188 24.867188 "/></g></g></g></g><g clip-rule="nonzero" clip-path="url(#clip59)"><g clip-rule="nonzero" clip-path="url(#clip60)"><g clip-rule="nonzero" clip-path="url(#clip61)"><g clip-rule="nonzero" clip-path="url(#clip62)"><path style=" stroke:none;fill-rule:evenodd;fill:rgb(0%,0%,0%);fill-opacity:1;" d="M 283.757812 25.878906 C 283.585938 26.210938 283.257812 26.628906 282.921875 26.949219 C 282.859375 27.085938 282.765625 27.394531 282.585938 27.265625 C 282.84375 26.734375 283.359375 26.214844 283.757812 25.878906 "/></g></g></g></g><g clip-rule="nonzero" clip-path="url(#clip63)"><g clip-rule="nonzero" clip-path="url(#clip64)"><g clip-rule="nonzero" clip-path="url(#clip65)"><g clip-rule="nonzero" clip-path="url(#clip66)"><path style=" stroke:none;fill-rule:evenodd;fill:rgb(0%,0%,0%);fill-opacity:1;" d="M 284.636719 26.285156 C 284.375 26.542969 284.152344 26.824219 283.761719 27 C 283.761719 26.957031 283.742188 26.9375 283.714844 26.933594 C 283.941406 26.683594 284.253906 26.332031 284.636719 26.285156 "/></g></g></g></g><g clip-rule="nonzero" clip-path="url(#clip67)"><g clip-rule="nonzero" clip-path="url(#clip68)"><g clip-rule="nonzero" clip-path="url(#clip69)"><g clip-rule="nonzero" clip-path="url(#clip70)"><path style=" stroke:none;fill-rule:evenodd;fill:rgb(0%,0%,0%);fill-opacity:1;" d="M 280.101562 29.347656 C 280.078125 29.605469 280.011719 29.832031 279.660156 29.867188 C 279.222656 29.621094 279.660156 29.183594 280.101562 29.347656 "/></g></g></g></g><g clip-rule="nonzero" clip-path="url(#clip71)"><g clip-rule="nonzero" clip-path="url(#clip72)"><g clip-rule="nonzero" clip-path="url(#clip73)"><g clip-rule="nonzero" clip-path="url(#clip74)"><g clip-rule="nonzero" clip-path="url(#clip75)"><g clip-rule="nonzero" clip-path="url(#clip76)"><path style=" stroke:none;fill-rule:evenodd;fill:rgb(0%,0%,0%);fill-opacity:1;" d="M 282.085938 29.136719 C 282.148438 29.390625 281.949219 29.46875 281.6875 29.503906 C 281.367188 29.28125 281.824219 29.058594 282.085938 29.136719 "/></g></g></g></g></g></g><g clip-rule="nonzero" clip-path="url(#clip77)"><g clip-rule="nonzero" clip-path="url(#clip78)"><g clip-rule="nonzero" clip-path="url(#clip79)"><g clip-rule="nonzero" clip-path="url(#clip80)"><g clip-rule="nonzero" clip-path="url(#clip81)"><g clip-rule="nonzero" clip-path="url(#clip82)"><path style=" stroke:none;fill-rule:evenodd;fill:rgb(0%,0%,0%);fill-opacity:1;" d="M 283.636719 24.527344 C 283.300781 24.695312 282.898438 25.617188 282.714844 26.085938 C 282.488281 26.652344 282.21875 27.21875 282.125 27.683594 C 282.355469 27.761719 282.507812 27.953125 282.738281 28.03125 C 283.625 27.464844 284.832031 27.101562 285.679688 26.4375 C 285.714844 26.199219 285.589844 25.988281 285.488281 25.828125 C 285.382812 25.742188 285.195312 25.78125 285.097656 25.6875 C 285.09375 25.523438 285.144531 25.398438 285.070312 25.183594 C 284.945312 24.992188 284.632812 25.113281 284.445312 25.128906 C 284.347656 24.960938 284.390625 24.792969 284.300781 24.578125 C 284.101562 24.472656 283.8125 24.441406 283.636719 24.527344 Z M 291.570312 19.78125 C 291.570312 19.519531 291.667969 19.324219 291.597656 19.015625 C 291.585938 18.988281 291.5625 18.980469 291.523438 18.996094 C 289.378906 21.09375 287.382812 23.289062 285.382812 25.484375 C 285.617188 25.648438 285.835938 25.863281 285.882812 26.183594 C 287.875 24.113281 289.757812 21.972656 291.570312 19.78125 Z M 290.460938 18.011719 C 288.453125 20.25 286.527344 22.546875 284.605469 24.84375 C 285 24.734375 285.179688 24.949219 285.300781 25.25 C 286.15625 24.507812 286.835938 23.601562 287.597656 22.769531 C 288.878906 21.375 290.292969 20.105469 291.488281 18.640625 C 291.242188 18.289062 290.933594 18.023438 290.460938 18.011719 Z M 289.902344 18.121094 C 289.339844 18.398438 289.035156 18.722656 288.609375 19.097656 C 287.828125 19.792969 287.09375 20.550781 286.433594 21.265625 C 285.496094 22.273438 284.476562 23.179688 283.769531 24.285156 C 284.144531 24.210938 284.390625 24.320312 284.550781 24.566406 C 285.910156 23.1875 286.984375 21.613281 288.253906 20.21875 C 288.863281 19.546875 289.511719 18.898438 290.011719 18.136719 C 289.964844 18.144531 289.933594 18.132812 289.902344 18.121094 Z M 293.390625 17.46875 C 293.085938 16.535156 292.226562 15.929688 291.496094 15.746094 C 291.066406 15.789062 291.242188 16.238281 291.015625 16.417969 C 290.828125 16.464844 290.773438 16.417969 290.628906 16.496094 C 290.523438 16.96875 290.324219 17.429688 289.667969 17.300781 C 289.484375 17.488281 289.394531 17.738281 289.464844 18.097656 C 290.542969 17.359375 292.023438 18.121094 291.875 19.503906 C 291.847656 19.78125 291.597656 19.933594 291.617188 20.207031 C 292.171875 20.386719 292.449219 19.679688 292.59375 19.289062 C 292.722656 19.265625 292.847656 19.238281 292.976562 19.214844 C 292.980469 18.738281 293.210938 18.375 293.535156 18.199219 C 293.421875 17.992188 293.476562 17.726562 293.390625 17.46875 Z M 294.519531 15.835938 C 294.308594 15.140625 293.546875 14.628906 292.871094 14.640625 C 292.613281 15.003906 292.25 15.292969 292.066406 15.703125 C 292.742188 16.019531 293.253906 16.578125 293.566406 17.433594 C 294.0625 17.066406 294.785156 16.722656 294.519531 15.835938 Z M 293.894531 17.804688 C 294 18.128906 293.953125 18.347656 293.855469 18.535156 C 293.753906 18.582031 293.617188 18.714844 293.480469 18.644531 C 293.550781 19.164062 293.375 19.519531 292.886719 19.664062 C 292.828125 19.992188 292.691406 20.261719 292.464844 20.472656 C 292.070312 20.707031 291.699219 20.523438 291.351562 20.691406 C 291.191406 20.769531 290.992188 21.082031 290.792969 21.34375 C 290.285156 22.007812 289.65625 22.667969 289.136719 23.226562 C 288.757812 23.632812 288.421875 24.105469 288.011719 24.496094 C 287.140625 25.324219 286.449219 26.199219 285.65625 27.058594 C 284.515625 27.402344 283.492188 28.148438 282.359375 28.683594 C 282.089844 28.8125 281.773438 28.9375 281.496094 28.890625 C 281.316406 28.964844 281.265625 29.160156 281.054688 29.050781 C 281.117188 28.742188 281.324219 28.527344 281.480469 28.28125 C 281.503906 27.921875 281.632812 27.582031 281.75 27.25 C 281.992188 26.554688 282.226562 25.910156 282.550781 25.25 C 282.890625 24.546875 283.242188 24.042969 283.785156 23.449219 C 285.382812 21.71875 287.117188 19.8125 288.90625 18.207031 C 288.734375 17.527344 289.0625 16.730469 289.917969 16.925781 C 290.058594 16.65625 290.058594 16.292969 290.296875 16.089844 C 290.425781 16.082031 290.515625 16.128906 290.660156 16.089844 C 290.785156 15.683594 291.175781 14.992188 291.648438 15.425781 C 292.078125 15.050781 292.273438 14.21875 293.011719 14.253906 C 293.132812 14.273438 293.015625 14.136719 293.136719 14.15625 C 294.03125 14.238281 294.742188 14.9375 294.992188 15.851562 C 295.265625 16.859375 294.449219 17.242188 293.894531 17.804688 "/></g></g></g></g></g></g><path style=" stroke:none;fill-rule:nonzero;fill:rgb(6.269836%,5.879211%,5.099487%);fill-opacity:1;" d="M 252.722656 26.710938 L 253.753906 26.710938 C 254.398438 26.710938 254.929688 26.199219 254.929688 25.574219 C 254.929688 24.945312 254.398438 24.4375 253.753906 24.4375 L 252.722656 24.4375 Z M 253.753906 27.378906 L 252.375 27.378906 C 252.183594 27.378906 252.027344 27.230469 252.027344 27.042969 L 252.027344 24.101562 C 252.027344 23.917969 252.183594 23.765625 252.375 23.765625 L 253.753906 23.765625 C 254.78125 23.765625 255.621094 24.578125 255.621094 25.574219 C 255.621094 26.570312 254.78125 27.378906 253.753906 27.378906 "/><path style=" stroke:none;fill-rule:nonzero;fill:rgb(6.269836%,5.879211%,5.099487%);fill-opacity:1;" d="M 252.722656 29.652344 L 253.753906 29.652344 C 254.398438 29.652344 254.929688 29.144531 254.929688 28.515625 C 254.929688 27.890625 254.398438 27.378906 253.753906 27.378906 L 252.722656 27.378906 Z M 253.753906 30.320312 L 252.375 30.320312 C 252.183594 30.320312 252.027344 30.171875 252.027344 29.988281 L 252.027344 27.042969 C 252.027344 26.859375 252.183594 26.710938 252.375 26.710938 L 253.753906 26.710938 C 254.78125 26.710938 255.621094 27.519531 255.621094 28.515625 C 255.621094 29.511719 254.78125 30.320312 253.753906 30.320312 "/><path style=" stroke:none;fill-rule:nonzero;fill:rgb(6.269836%,5.879211%,5.099487%);fill-opacity:1;" d="M 261.375 30.320312 L 258.476562 30.320312 C 258.285156 30.320312 258.128906 30.171875 258.128906 29.988281 L 258.128906 24.101562 C 258.128906 23.917969 258.285156 23.765625 258.476562 23.765625 C 258.664062 23.765625 258.820312 23.917969 258.820312 24.101562 L 258.820312 29.652344 L 261.375 29.652344 C 261.5625 29.652344 261.71875 29.804688 261.71875 29.988281 C 261.71875 30.171875 261.5625 30.320312 261.375 30.320312 "/><path style=" stroke:none;fill-rule:nonzero;fill:rgb(6.269836%,5.879211%,5.099487%);fill-opacity:1;" d="M 265.167969 24.4375 C 264.355469 24.4375 263.695312 25.074219 263.695312 25.859375 L 263.695312 28.230469 C 263.695312 29.015625 264.355469 29.652344 265.167969 29.652344 C 265.980469 29.652344 266.640625 29.015625 266.640625 28.230469 L 266.640625 25.859375 C 266.640625 25.074219 265.980469 24.4375 265.167969 24.4375 Z M 265.167969 30.320312 C 263.972656 30.320312 263.003906 29.382812 263.003906 28.230469 L 263.003906 25.859375 C 263.003906 24.707031 263.972656 23.765625 265.167969 23.765625 C 266.363281 23.765625 267.332031 24.707031 267.332031 25.859375 L 267.332031 28.230469 C 267.332031 29.382812 266.363281 30.320312 265.167969 30.320312 "/><path style=" stroke:none;fill-rule:nonzero;fill:rgb(6.269836%,5.879211%,5.099487%);fill-opacity:1;" d="M 271.824219 30.320312 L 271.433594 30.320312 C 270.347656 30.320312 269.464844 29.46875 269.464844 28.417969 L 269.464844 25.671875 C 269.464844 24.621094 270.347656 23.765625 271.433594 23.765625 L 271.824219 23.765625 C 272.71875 23.765625 273.5 24.351562 273.726562 25.183594 C 273.777344 25.363281 273.667969 25.546875 273.484375 25.59375 C 273.296875 25.640625 273.109375 25.535156 273.058594 25.355469 C 272.910156 24.8125 272.402344 24.4375 271.824219 24.4375 L 271.433594 24.4375 C 270.730469 24.4375 270.15625 24.992188 270.15625 25.671875 L 270.15625 28.417969 C 270.15625 29.097656 270.730469 29.652344 271.433594 29.652344 L 271.824219 29.652344 C 272.527344 29.652344 273.101562 29.097656 273.101562 28.417969 L 273.101562 27.800781 L 272.398438 27.800781 C 272.207031 27.800781 272.054688 27.652344 272.054688 27.46875 C 272.054688 27.28125 272.207031 27.132812 272.398438 27.132812 L 273.449219 27.132812 C 273.636719 27.132812 273.792969 27.28125 273.792969 27.46875 L 273.792969 28.417969 C 273.792969 29.46875 272.910156 30.320312 271.824219 30.320312 "/><g clip-rule="nonzero" clip-path="url(#clip83)"><path style=" stroke:none;fill-rule:nonzero;fill:rgb(6.269836%,5.879211%,5.099487%);fill-opacity:1;" d="M 252.585938 13.335938 C 248.746094 13.335938 245.144531 15.363281 243.578125 18.433594 C 241.613281 22.277344 243.042969 26.792969 245.042969 29.734375 C 247.179688 32.882812 250.320312 35.320312 253.355469 37.679688 L 254.011719 38.191406 C 254.347656 38.457031 254.695312 38.71875 255.039062 38.988281 C 257.878906 41.175781 261.074219 43.636719 262.910156 46.710938 C 264.75 43.636719 267.945312 41.175781 270.785156 38.988281 C 271.128906 38.71875 271.472656 38.457031 271.808594 38.191406 L 272.46875 37.679688 C 275.503906 35.320312 278.644531 32.882812 280.78125 29.734375 C 282.777344 26.792969 284.210938 22.277344 282.242188 18.433594 C 280.648438 15.308594 276.945312 13.265625 273.015625 13.339844 C 268.851562 13.421875 265.0625 16.921875 263.171875 19 C 263.039062 19.144531 262.785156 19.144531 262.652344 19 C 260.761719 16.921875 256.96875 13.421875 252.804688 13.339844 C 252.730469 13.339844 252.660156 13.335938 252.585938 13.335938 Z M 262.910156 47.742188 C 262.78125 47.742188 262.664062 47.671875 262.601562 47.5625 C 260.898438 44.359375 257.558594 41.785156 254.609375 39.511719 C 254.261719 39.242188 253.914062 38.976562 253.578125 38.710938 L 252.921875 38.203125 C 249.84375 35.8125 246.660156 33.339844 244.464844 30.101562 C 242.363281 27.003906 240.863281 22.238281 242.957031 18.136719 C 244.671875 14.785156 248.636719 12.59375 252.816406 12.671875 C 257.0625 12.757812 260.871094 16.097656 262.910156 18.277344 C 264.953125 16.097656 268.761719 12.757812 273.003906 12.671875 C 277.195312 12.589844 281.148438 14.785156 282.863281 18.136719 C 284.960938 22.238281 283.460938 27.003906 281.359375 30.101562 C 279.160156 33.339844 275.976562 35.8125 272.902344 38.203125 L 272.246094 38.710938 C 271.90625 38.976562 271.5625 39.242188 271.214844 39.511719 C 268.265625 41.785156 264.921875 44.359375 263.21875 47.5625 C 263.160156 47.671875 263.039062 47.742188 262.910156 47.742188 "/></g><path style=" stroke:none;fill-rule:nonzero;fill:rgb(32.159424%,72.549438%,81.568909%);fill-opacity:1;" d="M 279.769531 26.402344 C 277.734375 29.398438 274.671875 31.777344 271.707031 34.082031 L 271.050781 34.59375 C 270.714844 34.855469 270.371094 35.117188 270.027344 35.382812 C 267.578125 37.269531 264.871094 39.359375 262.910156 41.902344 C 260.949219 39.359375 258.242188 37.269531 255.796875 35.382812 C 255.449219 35.117188 255.109375 34.855469 254.773438 34.59375 L 254.113281 34.078125 C 251.152344 31.777344 248.085938 29.398438 246.054688 26.402344 C 245.070312 24.953125 244.234375 23.097656 243.949219 21.152344 C 243.496094 23.992188 244.621094 26.980469 246.054688 29.09375 C 248.085938 32.085938 251.152344 34.46875 254.113281 36.769531 L 254.773438 37.28125 C 255.109375 37.542969 255.449219 37.804688 255.796875 38.074219 C 258.242188 39.960938 260.949219 42.046875 262.910156 44.589844 C 264.871094 42.046875 267.578125 39.960938 270.027344 38.070312 C 270.371094 37.804688 270.714844 37.542969 271.050781 37.28125 L 271.707031 36.769531 C 274.671875 34.46875 277.734375 32.085938 279.769531 29.09375 C 281.203125 26.980469 282.324219 23.992188 281.871094 21.152344 C 281.589844 23.097656 280.753906 24.953125 279.769531 26.402344 "/></g></svg>