<?xml version="1.0" encoding="UTF-8"?><svg xmlns="http://www.w3.org/2000/svg" xmlns:xlink="http://www.w3.org/1999/xlink" contentScriptType="text/ecmascript" width="375pt" zoomAndPan="magnify" contentStyleType="text/css" viewBox="0 0 375 71.249999" height="71.249999pt" preserveAspectRatio="xMidYMid meet" version="1.2"><defs><g/><clipPath xml:id="clip1" id="clip1"><path d="M 117 7 L 192 7 L 192 70.507812 L 117 70.507812 Z M 117 7 "/></clipPath><clipPath xml:id="clip2" id="clip2"><path d="M 186 2 L 245 2 L 245 70.507812 L 186 70.507812 Z M 186 2 "/></clipPath><clipPath xml:id="clip3" id="clip3"><path d="M 292 7 L 296 7 L 296 11 L 292 11 Z M 292 7 "/></clipPath><clipPath xml:id="clip4" id="clip4"><path d="M 277.539062 10.074219 L 295.015625 6.625 L 297.460938 19.003906 L 279.984375 22.453125 Z M 277.539062 10.074219 "/></clipPath><clipPath xml:id="clip5" id="clip5"><path d="M 277.539062 10.074219 L 295.015625 6.625 L 297.460938 19.003906 L 279.984375 22.453125 Z M 277.539062 10.074219 "/></clipPath><clipPath xml:id="clip6" id="clip6"><path d="M 277.539062 10.074219 L 295.351562 6.558594 L 297.839844 19.167969 L 280.03125 22.683594 Z M 277.539062 10.074219 "/></clipPath><clipPath xml:id="clip7" id="clip7"><path d="M 293 7 L 294 7 L 294 9 L 293 9 Z M 293 7 "/></clipPath><clipPath xml:id="clip8" id="clip8"><path d="M 277.539062 10.074219 L 295.015625 6.625 L 297.460938 19.003906 L 279.984375 22.453125 Z M 277.539062 10.074219 "/></clipPath><clipPath xml:id="clip9" id="clip9"><path d="M 277.539062 10.074219 L 295.015625 6.625 L 297.460938 19.003906 L 279.984375 22.453125 Z M 277.539062 10.074219 "/></clipPath><clipPath xml:id="clip10" id="clip10"><path d="M 277.539062 10.074219 L 295.351562 6.558594 L 297.839844 19.167969 L 280.03125 22.683594 Z M 277.539062 10.074219 "/></clipPath><clipPath xml:id="clip11" id="clip11"><path d="M 290 8 L 295 8 L 295 13 L 290 13 Z M 290 8 "/></clipPath><clipPath xml:id="clip12" id="clip12"><path d="M 277.539062 10.074219 L 295.015625 6.625 L 297.460938 19.003906 L 279.984375 22.453125 Z M 277.539062 10.074219 "/></clipPath><clipPath xml:id="clip13" id="clip13"><path d="M 277.539062 10.074219 L 295.015625 6.625 L 297.460938 19.003906 L 279.984375 22.453125 Z M 277.539062 10.074219 "/></clipPath><clipPath xml:id="clip14" id="clip14"><path d="M 277.539062 10.074219 L 295.351562 6.558594 L 297.839844 19.167969 L 280.03125 22.683594 Z M 277.539062 10.074219 "/></clipPath><clipPath xml:id="clip15" id="clip15"><path d="M 294 8 L 295 8 L 295 9 L 294 9 Z M 294 8 "/></clipPath><clipPath xml:id="clip16" id="clip16"><path d="M 277.539062 10.074219 L 295.015625 6.625 L 297.460938 19.003906 L 279.984375 22.453125 Z M 277.539062 10.074219 "/></clipPath><clipPath xml:id="clip17" id="clip17"><path d="M 277.539062 10.074219 L 295.015625 6.625 L 297.460938 19.003906 L 279.984375 22.453125 Z M 277.539062 10.074219 "/></clipPath><clipPath xml:id="clip18" id="clip18"><path d="M 277.539062 10.074219 L 295.351562 6.558594 L 297.839844 19.167969 L 280.03125 22.683594 Z M 277.539062 10.074219 "/></clipPath><clipPath xml:id="clip19" id="clip19"><path d="M 292 9 L 294 9 L 294 11 L 292 11 Z M 292 9 "/></clipPath><clipPath xml:id="clip20" id="clip20"><path d="M 277.539062 10.074219 L 295.015625 6.625 L 297.460938 19.003906 L 279.984375 22.453125 Z M 277.539062 10.074219 "/></clipPath><clipPath xml:id="clip21" id="clip21"><path d="M 277.539062 10.074219 L 295.015625 6.625 L 297.460938 19.003906 L 279.984375 22.453125 Z M 277.539062 10.074219 "/></clipPath><clipPath xml:id="clip22" id="clip22"><path d="M 277.539062 10.074219 L 295.351562 6.558594 L 297.839844 19.167969 L 280.03125 22.683594 Z M 277.539062 10.074219 "/></clipPath><clipPath xml:id="clip23" id="clip23"><path d="M 291 9 L 294 9 L 294 12 L 291 12 Z M 291 9 "/></clipPath><clipPath xml:id="clip24" id="clip24"><path d="M 277.539062 10.074219 L 295.015625 6.625 L 297.460938 19.003906 L 279.984375 22.453125 Z M 277.539062 10.074219 "/></clipPath><clipPath xml:id="clip25" id="clip25"><path d="M 277.539062 10.074219 L 295.015625 6.625 L 297.460938 19.003906 L 279.984375 22.453125 Z M 277.539062 10.074219 "/></clipPath><clipPath xml:id="clip26" id="clip26"><path d="M 277.539062 10.074219 L 295.351562 6.558594 L 297.839844 19.167969 L 280.03125 22.683594 Z M 277.539062 10.074219 "/></clipPath><clipPath xml:id="clip27" id="clip27"><path d="M 284 10 L 291 10 L 291 18 L 284 18 Z M 284 10 "/></clipPath><clipPath xml:id="clip28" id="clip28"><path d="M 277.539062 10.074219 L 295.015625 6.625 L 297.460938 19.003906 L 279.984375 22.453125 Z M 277.539062 10.074219 "/></clipPath><clipPath xml:id="clip29" id="clip29"><path d="M 277.539062 10.074219 L 295.015625 6.625 L 297.460938 19.003906 L 279.984375 22.453125 Z M 277.539062 10.074219 "/></clipPath><clipPath xml:id="clip30" id="clip30"><path d="M 277.539062 10.074219 L 295.351562 6.558594 L 297.839844 19.167969 L 280.03125 22.683594 Z M 277.539062 10.074219 "/></clipPath><clipPath xml:id="clip31" id="clip31"><path d="M 285 10 L 293 10 L 293 18 L 285 18 Z M 285 10 "/></clipPath><clipPath xml:id="clip32" id="clip32"><path d="M 277.539062 10.074219 L 295.015625 6.625 L 297.460938 19.003906 L 279.984375 22.453125 Z M 277.539062 10.074219 "/></clipPath><clipPath xml:id="clip33" id="clip33"><path d="M 277.539062 10.074219 L 295.015625 6.625 L 297.460938 19.003906 L 279.984375 22.453125 Z M 277.539062 10.074219 "/></clipPath><clipPath xml:id="clip34" id="clip34"><path d="M 277.539062 10.074219 L 295.351562 6.558594 L 297.839844 19.167969 L 280.03125 22.683594 Z M 277.539062 10.074219 "/></clipPath><clipPath xml:id="clip35" id="clip35"><path d="M 286 11 L 293 11 L 293 19 L 286 19 Z M 286 11 "/></clipPath><clipPath xml:id="clip36" id="clip36"><path d="M 277.539062 10.074219 L 295.015625 6.625 L 297.460938 19.003906 L 279.984375 22.453125 Z M 277.539062 10.074219 "/></clipPath><clipPath xml:id="clip37" id="clip37"><path d="M 277.539062 10.074219 L 295.015625 6.625 L 297.460938 19.003906 L 279.984375 22.453125 Z M 277.539062 10.074219 "/></clipPath><clipPath xml:id="clip38" id="clip38"><path d="M 277.539062 10.074219 L 295.351562 6.558594 L 297.839844 19.167969 L 280.03125 22.683594 Z M 277.539062 10.074219 "/></clipPath><clipPath xml:id="clip39" id="clip39"><path d="M 290 12 L 291 12 L 291 13 L 290 13 Z M 290 12 "/></clipPath><clipPath xml:id="clip40" id="clip40"><path d="M 277.539062 10.074219 L 295.015625 6.625 L 297.460938 19.003906 L 279.984375 22.453125 Z M 277.539062 10.074219 "/></clipPath><clipPath xml:id="clip41" id="clip41"><path d="M 277.539062 10.074219 L 295.015625 6.625 L 297.460938 19.003906 L 279.984375 22.453125 Z M 277.539062 10.074219 "/></clipPath><clipPath xml:id="clip42" id="clip42"><path d="M 277.539062 10.074219 L 295.351562 6.558594 L 297.839844 19.167969 L 280.03125 22.683594 Z M 277.539062 10.074219 "/></clipPath><clipPath xml:id="clip43" id="clip43"><path d="M 282 17 L 287 17 L 287 21 L 282 21 Z M 282 17 "/></clipPath><clipPath xml:id="clip44" id="clip44"><path d="M 277.539062 10.074219 L 295.015625 6.625 L 297.460938 19.003906 L 279.984375 22.453125 Z M 277.539062 10.074219 "/></clipPath><clipPath xml:id="clip45" id="clip45"><path d="M 277.539062 10.074219 L 295.015625 6.625 L 297.460938 19.003906 L 279.984375 22.453125 Z M 277.539062 10.074219 "/></clipPath><clipPath xml:id="clip46" id="clip46"><path d="M 277.539062 10.074219 L 295.351562 6.558594 L 297.839844 19.167969 L 280.03125 22.683594 Z M 277.539062 10.074219 "/></clipPath><clipPath xml:id="clip47" id="clip47"><path d="M 287 17 L 288 17 L 288 18 L 287 18 Z M 287 17 "/></clipPath><clipPath xml:id="clip48" id="clip48"><path d="M 277.539062 10.074219 L 295.015625 6.625 L 297.460938 19.003906 L 279.984375 22.453125 Z M 277.539062 10.074219 "/></clipPath><clipPath xml:id="clip49" id="clip49"><path d="M 277.539062 10.074219 L 295.015625 6.625 L 297.460938 19.003906 L 279.984375 22.453125 Z M 277.539062 10.074219 "/></clipPath><clipPath xml:id="clip50" id="clip50"><path d="M 277.539062 10.074219 L 295.351562 6.558594 L 297.839844 19.167969 L 280.03125 22.683594 Z M 277.539062 10.074219 "/></clipPath><clipPath xml:id="clip51" id="clip51"><path d="M 283 18 L 285 18 L 285 20 L 283 20 Z M 283 18 "/></clipPath><clipPath xml:id="clip52" id="clip52"><path d="M 277.539062 10.074219 L 295.015625 6.625 L 297.460938 19.003906 L 279.984375 22.453125 Z M 277.539062 10.074219 "/></clipPath><clipPath xml:id="clip53" id="clip53"><path d="M 277.539062 10.074219 L 295.015625 6.625 L 297.460938 19.003906 L 279.984375 22.453125 Z M 277.539062 10.074219 "/></clipPath><clipPath xml:id="clip54" id="clip54"><path d="M 277.539062 10.074219 L 295.351562 6.558594 L 297.839844 19.167969 L 280.03125 22.683594 Z M 277.539062 10.074219 "/></clipPath><clipPath xml:id="clip55" id="clip55"><path d="M 284 18 L 286 18 L 286 20 L 284 20 Z M 284 18 "/></clipPath><clipPath xml:id="clip56" id="clip56"><path d="M 277.539062 10.074219 L 295.015625 6.625 L 297.460938 19.003906 L 279.984375 22.453125 Z M 277.539062 10.074219 "/></clipPath><clipPath xml:id="clip57" id="clip57"><path d="M 277.539062 10.074219 L 295.015625 6.625 L 297.460938 19.003906 L 279.984375 22.453125 Z M 277.539062 10.074219 "/></clipPath><clipPath xml:id="clip58" id="clip58"><path d="M 277.539062 10.074219 L 295.351562 6.558594 L 297.839844 19.167969 L 280.03125 22.683594 Z M 277.539062 10.074219 "/></clipPath><clipPath xml:id="clip59" id="clip59"><path d="M 280 22 L 281 22 L 281 23 L 280 23 Z M 280 22 "/></clipPath><clipPath xml:id="clip60" id="clip60"><path d="M 277.539062 10.074219 L 295.015625 6.625 L 297.460938 19.003906 L 279.984375 22.453125 Z M 277.539062 10.074219 "/></clipPath><clipPath xml:id="clip61" id="clip61"><path d="M 277.539062 10.074219 L 295.015625 6.625 L 297.460938 19.003906 L 279.984375 22.453125 Z M 277.539062 10.074219 "/></clipPath><clipPath xml:id="clip62" id="clip62"><path d="M 277.539062 10.074219 L 295.351562 6.558594 L 297.839844 19.167969 L 280.03125 22.683594 Z M 277.539062 10.074219 "/></clipPath><clipPath xml:id="clip63" id="clip63"><path d="M 282 21 L 283 21 L 283 23 L 282 23 Z M 282 21 "/></clipPath><clipPath xml:id="clip64" id="clip64"><path d="M 277.539062 10.074219 L 295.015625 6.625 L 297.460938 19.003906 L 279.984375 22.453125 Z M 277.539062 10.074219 "/></clipPath><clipPath xml:id="clip65" id="clip65"><path d="M 277.539062 10.074219 L 295.015625 6.625 L 297.460938 19.003906 L 279.984375 22.453125 Z M 277.539062 10.074219 "/></clipPath><clipPath xml:id="clip66" id="clip66"><path d="M 277.539062 10.074219 L 295.351562 6.558594 L 297.839844 19.167969 L 280.03125 22.683594 Z M 277.539062 10.074219 "/></clipPath><clipPath xml:id="clip67" id="clip67"><path d="M 282.285156 21.882812 L 282.824219 21.773438 L 282.894531 22.117188 L 282.351562 22.226562 Z M 282.285156 21.882812 "/></clipPath><clipPath xml:id="clip68" id="clip68"><path d="M 282.285156 21.882812 L 282.824219 21.773438 L 282.894531 22.117188 L 282.351562 22.222656 Z M 282.285156 21.882812 "/></clipPath><clipPath xml:id="clip69" id="clip69"><path d="M 281 6 L 296 6 L 296 22 L 281 22 Z M 281 6 "/></clipPath><clipPath xml:id="clip70" id="clip70"><path d="M 277.539062 10.074219 L 295.015625 6.625 L 297.460938 19.003906 L 279.984375 22.453125 Z M 277.539062 10.074219 "/></clipPath><clipPath xml:id="clip71" id="clip71"><path d="M 277.539062 10.074219 L 295.015625 6.625 L 297.460938 19.003906 L 279.984375 22.453125 Z M 277.539062 10.074219 "/></clipPath><clipPath xml:id="clip72" id="clip72"><path d="M 277.539062 10.074219 L 295.351562 6.558594 L 297.839844 19.167969 L 280.03125 22.683594 Z M 277.539062 10.074219 "/></clipPath><clipPath xml:id="clip73" id="clip73"><path d="M 279.414062 9.703125 L 295.351562 6.558594 L 297.742188 18.667969 L 281.804688 21.8125 Z M 279.414062 9.703125 "/></clipPath><clipPath xml:id="clip74" id="clip74"><path d="M 279.414062 9.703125 L 295.34375 6.558594 L 297.734375 18.667969 L 281.804688 21.8125 Z M 279.414062 9.703125 "/></clipPath><clipPath xml:id="clip75" id="clip75"><path d="M 241 12.503906 L 284 12.503906 L 284 47.785156 L 241 47.785156 Z M 241 12.503906 "/></clipPath></defs><g xml:id="surface1" id="surface1"><g clip-rule="nonzero" clip-path="url(#clip1)"><g style="fill:rgb(0%,33.729553%,52.549744%);fill-opacity:1;"><g transform="translate(117.654507, 61.248837)"><path style="stroke:none;" d="M 1.605469 10.492188 C 2.078125 10.492188 2.457031 10.304688 2.835938 9.925781 C 3.496094 9.167969 4.066406 8.320312 4.539062 7.375 C 5.199219 6.144531 5.765625 5.011719 6.332031 3.78125 C 6.804688 2.550781 7.375 1.417969 7.941406 0.1875 C 9.167969 -2.550781 10.492188 -5.199219 11.722656 -7.941406 C 12.953125 -10.585938 14.179688 -13.234375 15.410156 -15.882812 C 19.757812 -24.863281 26.847656 -36.679688 34.882812 -42.730469 C 35.167969 -42.824219 35.355469 -43.011719 35.640625 -43.203125 C 35.921875 -43.296875 36.207031 -43.484375 36.492188 -43.582031 L 36.679688 -43.582031 C 36.964844 -43.582031 37.152344 -43.484375 37.152344 -43.203125 C 37.152344 -42.824219 37.152344 -42.445312 37.152344 -42.066406 C 37.152344 -41.691406 37.058594 -41.3125 36.964844 -41.027344 C 36.585938 -38.382812 35.828125 -35.828125 35.074219 -33.277344 C 33.84375 -29.210938 32.519531 -25.144531 31.386719 -21.082031 C 30.628906 -18.152344 30.0625 -15.316406 29.777344 -12.007812 C 29.871094 -11.722656 29.871094 -11.34375 29.871094 -10.964844 C 29.777344 -10.585938 29.871094 -10.210938 29.96875 -9.832031 C 30.25 -8.222656 31.007812 -7.46875 32.140625 -7.46875 C 32.707031 -7.46875 33.277344 -7.65625 33.84375 -8.035156 C 34.695312 -8.507812 35.546875 -9.265625 36.394531 -10.304688 C 37.4375 -11.628906 38.476562 -12.953125 39.421875 -14.179688 C 41.785156 -17.488281 44.148438 -20.417969 46.792969 -23.351562 C 47.265625 -23.726562 47.644531 -24.105469 48.023438 -24.578125 C 48.402344 -24.957031 48.875 -25.335938 49.347656 -25.617188 C 49.820312 -25.902344 50.199219 -26.089844 50.480469 -26.089844 C 51.617188 -26.089844 51.804688 -24.296875 52.089844 -23.445312 C 52.183594 -22.59375 52.371094 -21.835938 52.464844 -21.082031 C 52.5625 -20.230469 52.75 -19.378906 52.84375 -18.527344 C 53.035156 -17.394531 53.222656 -16.261719 53.410156 -15.125 C 53.601562 -13.898438 53.789062 -12.761719 54.074219 -11.53125 C 54.640625 -8.886719 57.097656 -5.292969 59.839844 -5.292969 C 60.597656 -5.292969 61.542969 -5.578125 62.675781 -6.050781 C 64.757812 -7.183594 73.074219 -17.488281 73.832031 -19.851562 C 73.925781 -20.324219 73.832031 -20.609375 73.359375 -20.796875 C 73.265625 -20.890625 72.980469 -20.988281 72.695312 -20.988281 C 72.414062 -20.988281 72.320312 -20.988281 72.222656 -20.890625 C 71.941406 -20.796875 71.75 -20.609375 71.46875 -20.324219 C 69.105469 -17.109375 67.214844 -14.558594 65.796875 -12.574219 C 64.378906 -10.585938 63.339844 -9.453125 62.867188 -9.074219 C 61.824219 -8.222656 60.878906 -7.847656 60.03125 -7.847656 C 57.003906 -7.847656 56.246094 -12.855469 55.679688 -15.597656 L 54.546875 -23.917969 C 54.074219 -26.46875 53.316406 -28.644531 50.292969 -28.644531 C 49.253906 -28.550781 48.402344 -28.171875 47.550781 -27.414062 C 46.132812 -26.1875 45 -25.050781 43.863281 -23.632812 C 41.21875 -20.703125 39.042969 -17.773438 36.679688 -14.652344 C 35.828125 -13.425781 34.789062 -12.289062 33.75 -11.15625 C 33.558594 -10.871094 33.277344 -10.683594 32.992188 -10.683594 C 32.804688 -10.683594 32.707031 -10.683594 32.613281 -10.777344 C 32.332031 -10.964844 32.234375 -11.34375 32.234375 -11.816406 C 32.234375 -13.992188 32.707031 -15.976562 33.179688 -17.960938 C 34.222656 -22.214844 35.355469 -26.28125 36.773438 -30.441406 C 37.8125 -33.75 38.757812 -36.964844 39.421875 -40.273438 C 39.703125 -41.691406 39.800781 -43.203125 39.515625 -44.621094 C 39.136719 -46.132812 38.191406 -46.511719 36.773438 -46.511719 C 36.492188 -46.417969 36.207031 -46.320312 35.921875 -46.226562 C 35.640625 -46.132812 35.355469 -45.945312 35.074219 -45.847656 C 24.769531 -38.949219 16.636719 -24.578125 11.4375 -13.425781 C 10.398438 -11.058594 9.265625 -8.792969 8.222656 -6.429688 C 7.183594 -4.066406 6.050781 -1.703125 5.011719 0.660156 C 4.820312 1.132812 4.632812 1.605469 4.441406 2.078125 C 4.160156 2.550781 3.96875 3.023438 3.78125 3.496094 C 3.6875 3.59375 3.59375 3.78125 3.496094 3.96875 C 3.402344 4.160156 3.214844 4.253906 2.929688 4.253906 C 2.648438 4.253906 2.457031 4.160156 2.550781 3.96875 C 2.550781 3.6875 2.550781 3.496094 2.550781 3.308594 C 2.550781 2.929688 2.648438 2.457031 2.742188 1.796875 C 3.496094 -4.253906 4.726562 -10.019531 6.523438 -15.691406 C 7.75 -19.851562 9.074219 -24.011719 10.492188 -28.078125 C 11.816406 -32.140625 13.140625 -36.300781 14.464844 -40.460938 C 15.125 -42.445312 15.691406 -44.335938 16.261719 -46.320312 C 16.734375 -48.210938 17.394531 -50.101562 18.152344 -51.992188 C 18.433594 -52.65625 18.339844 -53.222656 17.679688 -53.601562 C 17.582031 -53.695312 17.488281 -53.695312 17.207031 -53.695312 C 16.828125 -53.695312 16.449219 -53.507812 16.070312 -53.035156 C 15.789062 -52.5625 15.503906 -51.992188 15.316406 -51.519531 C 15.125 -50.953125 14.9375 -50.386719 14.746094 -49.914062 L 8.792969 -31.007812 C 6.144531 -22.6875 3.402344 -14.652344 1.605469 -6.050781 C 0.757812 -1.890625 -0.09375 2.078125 0 6.523438 C 0 6.996094 0 7.375 0 7.847656 C 0 8.320312 0.09375 8.792969 0.1875 9.265625 C 0.378906 10.113281 0.851562 10.492188 1.605469 10.492188 Z M 1.605469 10.492188 "/></g></g></g><g clip-rule="nonzero" clip-path="url(#clip2)"><g style="fill:rgb(0%,33.729553%,52.549744%);fill-opacity:1;"><g transform="translate(186.736358, 61.248837)"><path style="stroke:none;" d="M 6.617188 9.640625 C 6.902344 9.640625 7.277344 9.453125 7.65625 9.074219 C 8.414062 7.941406 8.414062 6.710938 8.035156 5.199219 L 8.886719 -0.945312 C 8.980469 -1.511719 9.265625 -1.796875 9.640625 -1.796875 C 10.019531 -1.796875 12.007812 -0.757812 12.382812 -0.472656 C 15.503906 1.230469 21.460938 3.496094 25.050781 3.496094 C 31.574219 3.496094 39.988281 -2.363281 44.527344 -6.902344 C 46.320312 -8.601562 48.117188 -10.304688 49.914062 -12.101562 C 51.617188 -13.800781 53.410156 -15.503906 55.207031 -17.207031 C 55.679688 -17.679688 56.058594 -18.054688 56.246094 -18.339844 C 57.191406 -19.378906 57.382812 -20.136719 56.816406 -20.796875 C 56.625 -20.988281 56.4375 -21.082031 56.246094 -21.082031 C 55.773438 -21.082031 55.207031 -20.703125 54.546875 -20.042969 L 43.484375 -9.265625 C 38.757812 -5.011719 31.574219 1.039062 25.050781 1.039062 C 21.742188 1.039062 12.007812 -2.457031 9.738281 -5.199219 C 9.832031 -6.050781 9.832031 -6.804688 9.925781 -7.65625 C 10.019531 -8.414062 10.019531 -9.167969 10.113281 -10.019531 C 10.304688 -11.4375 10.964844 -12.480469 12.195312 -13.328125 C 19.664062 -18.246094 27.226562 -24.105469 33.75 -30.914062 C 40.273438 -37.625 45.945312 -45.1875 49.628906 -53.507812 C 50.101562 -54.640625 50.574219 -55.871094 50.671875 -57.097656 C 50.671875 -57.761719 50.386719 -58.140625 49.820312 -58.234375 C 49.726562 -58.234375 49.726562 -58.234375 49.726562 -58.328125 C 49.628906 -58.328125 49.628906 -58.328125 49.535156 -58.328125 C 49.253906 -58.328125 48.96875 -58.042969 48.683594 -57.570312 C 46.226562 -47.929688 33.9375 -33.75 26.5625 -27.414062 C 22.5 -23.726562 18.152344 -20.609375 13.707031 -17.300781 C 13.425781 -17.207031 13.140625 -17.015625 12.953125 -16.828125 C 12.667969 -16.636719 12.382812 -16.449219 12.101562 -16.355469 C 12.007812 -16.261719 11.910156 -16.261719 11.816406 -16.261719 C 11.4375 -16.261719 11.25 -16.449219 11.25 -16.828125 C 11.25 -17.109375 11.25 -17.488281 11.25 -17.773438 C 11.25 -18.054688 11.25 -18.339844 11.34375 -18.625 C 12.953125 -29.117188 15.03125 -38.855469 18.054688 -49.0625 C 18.152344 -49.535156 18.339844 -49.914062 18.433594 -50.292969 C 18.527344 -50.671875 18.625 -51.046875 18.71875 -51.425781 C 18.8125 -52.089844 18.625 -52.464844 18.152344 -52.75 C 18.054688 -52.75 18.054688 -52.75 17.960938 -52.84375 C 17.867188 -52.84375 17.867188 -52.84375 17.773438 -52.84375 C 17.207031 -52.84375 16.828125 -52.5625 16.636719 -52.089844 C 16.355469 -51.425781 15.976562 -50.671875 15.691406 -49.726562 C 12.382812 -38.664062 9.925781 -27.414062 8.507812 -15.976562 C 8.222656 -14.085938 7.46875 -12.953125 5.957031 -12.101562 C 5.011719 -11.628906 1.703125 -9.738281 0.757812 -8.792969 C -0.378906 -7.75 -0.378906 -6.804688 1.039062 -6.144531 C 1.324219 -6.050781 1.511719 -5.957031 1.796875 -5.859375 C 1.984375 -5.765625 2.175781 -5.671875 2.457031 -5.578125 C 3.308594 -5.292969 4.253906 -5.011719 5.011719 -4.632812 C 6.617188 -3.875 6.804688 -3.78125 6.523438 -1.984375 C 6.429688 -0.566406 6.238281 0.945312 6.050781 2.363281 C 5.859375 3.78125 5.671875 5.199219 5.484375 6.617188 C 5.386719 7.277344 5.199219 8.035156 5.484375 8.695312 C 5.671875 9.359375 6.050781 9.640625 6.617188 9.640625 Z M 6.617188 -6.902344 C 6.238281 -6.902344 5.957031 -6.996094 5.765625 -7.089844 C 5.484375 -7.183594 5.292969 -7.277344 5.105469 -7.375 C 4.820312 -7.46875 4.632812 -7.65625 4.347656 -7.75 C 4.820312 -8.886719 6.050781 -9.359375 7.183594 -9.738281 C 7.847656 -9.074219 7.5625 -8.601562 7.46875 -7.941406 C 7.375 -7.277344 7.089844 -6.902344 6.617188 -6.902344 Z M 6.617188 -6.902344 "/></g></g></g><g clip-rule="nonzero" clip-path="url(#clip3)"><g clip-rule="nonzero" clip-path="url(#clip4)"><g clip-rule="nonzero" clip-path="url(#clip5)"><g clip-rule="nonzero" clip-path="url(#clip6)"><path style=" stroke:none;fill-rule:evenodd;fill:rgb(100%,59.999084%,59.999084%);fill-opacity:1;" d="M 294.089844 8.660156 C 294.109375 8.707031 294.160156 8.707031 294.179688 8.75 C 294.285156 8.726562 294.28125 8.636719 294.367188 8.605469 C 294.324219 8.550781 294.332031 8.417969 294.230469 8.449219 C 294.214844 8.542969 294.042969 8.527344 294.089844 8.660156 Z M 293.730469 8.296875 C 293.941406 8.386719 293.949219 8.113281 293.996094 7.992188 C 293.796875 7.933594 293.699219 8.109375 293.730469 8.296875 Z M 294.308594 10.132812 C 293.996094 9.277344 293.484375 8.71875 292.808594 8.40625 C 292.992188 7.992188 293.355469 7.703125 293.613281 7.34375 C 294.289062 7.332031 295.050781 7.839844 295.261719 8.535156 C 295.527344 9.421875 294.804688 9.765625 294.308594 10.132812 "/></g></g></g></g><g clip-rule="nonzero" clip-path="url(#clip7)"><g clip-rule="nonzero" clip-path="url(#clip8)"><g clip-rule="nonzero" clip-path="url(#clip9)"><g clip-rule="nonzero" clip-path="url(#clip10)"><path style=" stroke:none;fill-rule:evenodd;fill:rgb(0%,0%,0%);fill-opacity:1;" d="M 293.996094 7.992188 C 293.949219 8.113281 293.941406 8.386719 293.730469 8.296875 C 293.699219 8.109375 293.796875 7.933594 293.996094 7.992188 "/></g></g></g></g><g clip-rule="nonzero" clip-path="url(#clip11)"><g clip-rule="nonzero" clip-path="url(#clip12)"><g clip-rule="nonzero" clip-path="url(#clip13)"><g clip-rule="nonzero" clip-path="url(#clip14)"><path style=" stroke:none;fill-rule:evenodd;fill:rgb(92.939758%,92.939758%,92.939758%);fill-opacity:1;" d="M 291.71875 9.851562 C 292.40625 9.945312 292.769531 10.71875 292.917969 11.347656 C 293.21875 11.21875 292.921875 10.824219 292.804688 10.578125 C 292.5625 10.082031 292.234375 9.640625 291.691406 9.710938 C 291.714844 9.804688 291.648438 9.792969 291.71875 9.851562 Z M 292.535156 9.398438 C 292.832031 9.59375 293.109375 9.90625 293.285156 10.265625 C 293.339844 10.378906 293.289062 10.605469 293.492188 10.585938 C 293.589844 10.347656 293.363281 9.996094 293.183594 9.742188 C 293.042969 9.546875 292.808594 9.394531 292.6875 9.261719 C 292.640625 9.273438 292.609375 9.257812 292.578125 9.246094 C 292.589844 9.316406 292.492188 9.308594 292.535156 9.398438 Z M 294.277344 10.898438 C 293.953125 11.074219 293.722656 11.4375 293.71875 11.914062 C 293.589844 11.9375 293.464844 11.964844 293.335938 11.988281 C 293.191406 12.378906 292.914062 13.085938 292.359375 12.90625 C 292.339844 12.636719 292.589844 12.480469 292.617188 12.203125 C 292.765625 10.824219 291.285156 10.058594 290.207031 10.800781 C 290.136719 10.441406 290.226562 10.1875 290.410156 10 C 291.066406 10.128906 291.265625 9.667969 291.371094 9.195312 C 291.515625 9.117188 291.570312 9.167969 291.757812 9.121094 C 291.984375 8.941406 291.808594 8.492188 292.238281 8.445312 C 292.96875 8.632812 293.828125 9.234375 294.132812 10.167969 C 294.21875 10.425781 294.164062 10.691406 294.277344 10.898438 "/></g></g></g></g><g clip-rule="nonzero" clip-path="url(#clip15)"><g clip-rule="nonzero" clip-path="url(#clip16)"><g clip-rule="nonzero" clip-path="url(#clip17)"><g clip-rule="nonzero" clip-path="url(#clip18)"><path style=" stroke:none;fill-rule:evenodd;fill:rgb(0%,0%,0%);fill-opacity:1;" d="M 294.230469 8.449219 C 294.332031 8.417969 294.324219 8.550781 294.367188 8.605469 C 294.28125 8.636719 294.285156 8.726562 294.179688 8.75 C 294.160156 8.707031 294.109375 8.707031 294.089844 8.660156 C 294.042969 8.527344 294.214844 8.542969 294.230469 8.449219 "/></g></g></g></g><g clip-rule="nonzero" clip-path="url(#clip19)"><g clip-rule="nonzero" clip-path="url(#clip20)"><g clip-rule="nonzero" clip-path="url(#clip21)"><g clip-rule="nonzero" clip-path="url(#clip22)"><path style=" stroke:none;fill-rule:evenodd;fill:rgb(0%,0%,0%);fill-opacity:1;" d="M 292.578125 9.246094 C 292.609375 9.257812 292.640625 9.273438 292.6875 9.261719 C 292.808594 9.394531 293.042969 9.546875 293.183594 9.742188 C 293.363281 9.996094 293.589844 10.347656 293.492188 10.585938 C 293.289062 10.605469 293.339844 10.378906 293.285156 10.265625 C 293.109375 9.90625 292.832031 9.59375 292.535156 9.398438 C 292.492188 9.308594 292.589844 9.316406 292.578125 9.246094 "/></g></g></g></g><g clip-rule="nonzero" clip-path="url(#clip23)"><g clip-rule="nonzero" clip-path="url(#clip24)"><g clip-rule="nonzero" clip-path="url(#clip25)"><g clip-rule="nonzero" clip-path="url(#clip26)"><path style=" stroke:none;fill-rule:evenodd;fill:rgb(0%,0%,0%);fill-opacity:1;" d="M 291.691406 9.710938 C 292.234375 9.640625 292.5625 10.082031 292.804688 10.578125 C 292.921875 10.824219 293.21875 11.21875 292.917969 11.347656 C 292.769531 10.71875 292.40625 9.945312 291.71875 9.851562 C 291.648438 9.792969 291.714844 9.804688 291.691406 9.710938 "/></g></g></g></g><g clip-rule="nonzero" clip-path="url(#clip27)"><g clip-rule="nonzero" clip-path="url(#clip28)"><g clip-rule="nonzero" clip-path="url(#clip29)"><g clip-rule="nonzero" clip-path="url(#clip30)"><path style=" stroke:none;fill-rule:evenodd;fill:rgb(100%,85.488892%,0%);fill-opacity:1;" d="M 290.753906 10.835938 C 290.253906 11.601562 289.605469 12.246094 288.996094 12.917969 C 287.726562 14.3125 286.652344 15.886719 285.292969 17.265625 C 285.132812 17.023438 284.886719 16.910156 284.511719 16.984375 C 285.21875 15.878906 286.238281 14.972656 287.175781 13.964844 C 287.835938 13.253906 288.570312 12.496094 289.351562 11.800781 C 289.777344 11.421875 290.082031 11.101562 290.644531 10.820312 C 290.675781 10.835938 290.707031 10.847656 290.753906 10.835938 "/></g></g></g></g><g clip-rule="nonzero" clip-path="url(#clip31)"><g clip-rule="nonzero" clip-path="url(#clip32)"><g clip-rule="nonzero" clip-path="url(#clip33)"><g clip-rule="nonzero" clip-path="url(#clip34)"><path style=" stroke:none;fill-rule:evenodd;fill:rgb(100%,87.449646%,25.099182%);fill-opacity:1;" d="M 290.386719 12.644531 C 290.5 12.648438 290.460938 12.65625 290.5625 12.609375 C 290.574219 12.507812 290.625 12.335938 290.527344 12.253906 C 290.324219 12.277344 290.378906 12.476562 290.386719 12.644531 Z M 290.738281 12.394531 C 290.765625 12.398438 290.804688 12.382812 290.8125 12.414062 C 290.980469 12.410156 290.953125 12.101562 290.792969 12.128906 C 290.800781 12.234375 290.667969 12.246094 290.738281 12.394531 Z M 292.230469 11.339844 C 291.035156 12.804688 289.621094 14.074219 288.339844 15.472656 C 287.578125 16.300781 286.898438 17.207031 286.042969 17.949219 C 285.921875 17.648438 285.742188 17.433594 285.347656 17.542969 C 287.269531 15.246094 289.195312 12.953125 291.203125 10.710938 C 291.675781 10.722656 291.984375 10.988281 292.230469 11.339844 "/></g></g></g></g><g clip-rule="nonzero" clip-path="url(#clip35)"><g clip-rule="nonzero" clip-path="url(#clip36)"><g clip-rule="nonzero" clip-path="url(#clip37)"><g clip-rule="nonzero" clip-path="url(#clip38)"><path style=" stroke:none;fill-rule:evenodd;fill:rgb(100%,85.488892%,0%);fill-opacity:1;" d="M 287.273438 17.960938 C 287.449219 17.925781 287.429688 17.761719 287.378906 17.578125 C 287.316406 17.597656 287.296875 17.550781 287.234375 17.570312 C 287.253906 17.742188 287.183594 17.808594 287.273438 17.960938 Z M 287.570312 17.429688 C 287.652344 17.425781 287.703125 17.398438 287.734375 17.363281 C 287.699219 17.28125 287.671875 17.1875 287.5625 17.214844 C 287.535156 17.316406 287.507812 17.335938 287.570312 17.429688 Z M 286.625 18.882812 C 286.578125 18.566406 286.359375 18.347656 286.125 18.1875 C 288.125 15.992188 290.121094 13.792969 292.265625 11.695312 C 292.304688 11.679688 292.328125 11.691406 292.339844 11.714844 C 292.410156 12.023438 292.3125 12.222656 292.3125 12.480469 C 290.5 14.671875 288.617188 16.8125 286.625 18.882812 "/></g></g></g></g><g clip-rule="nonzero" clip-path="url(#clip39)"><g clip-rule="nonzero" clip-path="url(#clip40)"><g clip-rule="nonzero" clip-path="url(#clip41)"><g clip-rule="nonzero" clip-path="url(#clip42)"><path style=" stroke:none;fill-rule:evenodd;fill:rgb(0%,0%,0%);fill-opacity:1;" d="M 290.792969 12.128906 C 290.953125 12.101562 290.980469 12.410156 290.8125 12.414062 C 290.804688 12.382812 290.765625 12.398438 290.738281 12.394531 C 290.667969 12.246094 290.800781 12.234375 290.792969 12.128906 "/><path style=" stroke:none;fill-rule:evenodd;fill:rgb(0%,0%,0%);fill-opacity:1;" d="M 290.527344 12.253906 C 290.625 12.335938 290.574219 12.507812 290.5625 12.609375 C 290.460938 12.65625 290.5 12.648438 290.386719 12.644531 C 290.378906 12.476562 290.324219 12.277344 290.527344 12.253906 "/></g></g></g></g><g clip-rule="nonzero" clip-path="url(#clip43)"><g clip-rule="nonzero" clip-path="url(#clip44)"><g clip-rule="nonzero" clip-path="url(#clip45)"><g clip-rule="nonzero" clip-path="url(#clip46)"><path style=" stroke:none;fill-rule:evenodd;fill:rgb(98.81897%,97.648621%,90.979004%);fill-opacity:1;" d="M 284.457031 19.636719 C 284.484375 19.636719 284.503906 19.65625 284.503906 19.699219 C 284.894531 19.527344 285.117188 19.242188 285.378906 18.984375 C 284.996094 19.03125 284.683594 19.382812 284.457031 19.636719 Z M 283.328125 19.96875 C 283.507812 20.09375 283.601562 19.785156 283.664062 19.648438 C 284 19.332031 284.328125 18.910156 284.5 18.578125 C 284.101562 18.917969 283.585938 19.4375 283.328125 19.96875 Z M 285.042969 17.277344 C 285.132812 17.496094 285.089844 17.664062 285.1875 17.828125 C 285.375 17.8125 285.6875 17.691406 285.8125 17.886719 C 285.886719 18.097656 285.835938 18.222656 285.839844 18.386719 C 285.9375 18.480469 286.125 18.445312 286.230469 18.527344 C 286.332031 18.6875 286.457031 18.902344 286.421875 19.140625 C 285.574219 19.804688 284.367188 20.164062 283.480469 20.734375 C 283.25 20.652344 283.097656 20.460938 282.867188 20.382812 C 282.960938 19.917969 283.230469 19.355469 283.457031 18.785156 C 283.640625 18.320312 284.042969 17.398438 284.378906 17.230469 C 284.554688 17.140625 284.84375 17.175781 285.042969 17.277344 "/></g></g></g></g><g clip-rule="nonzero" clip-path="url(#clip47)"><g clip-rule="nonzero" clip-path="url(#clip48)"><g clip-rule="nonzero" clip-path="url(#clip49)"><g clip-rule="nonzero" clip-path="url(#clip50)"><path style=" stroke:none;fill-rule:evenodd;fill:rgb(0%,0%,0%);fill-opacity:1;" d="M 287.5625 17.214844 C 287.671875 17.1875 287.699219 17.28125 287.734375 17.363281 C 287.703125 17.398438 287.652344 17.425781 287.570312 17.429688 C 287.507812 17.335938 287.535156 17.316406 287.5625 17.214844 "/><path style=" stroke:none;fill-rule:evenodd;fill:rgb(0%,0%,0%);fill-opacity:1;" d="M 287.234375 17.570312 C 287.296875 17.550781 287.316406 17.597656 287.378906 17.578125 C 287.429688 17.761719 287.449219 17.925781 287.273438 17.960938 C 287.183594 17.808594 287.253906 17.742188 287.234375 17.570312 "/></g></g></g></g><g clip-rule="nonzero" clip-path="url(#clip51)"><g clip-rule="nonzero" clip-path="url(#clip52)"><g clip-rule="nonzero" clip-path="url(#clip53)"><g clip-rule="nonzero" clip-path="url(#clip54)"><path style=" stroke:none;fill-rule:evenodd;fill:rgb(0%,0%,0%);fill-opacity:1;" d="M 284.5 18.578125 C 284.328125 18.910156 284 19.332031 283.664062 19.648438 C 283.601562 19.785156 283.507812 20.09375 283.328125 19.96875 C 283.585938 19.4375 284.101562 18.917969 284.5 18.578125 "/></g></g></g></g><g clip-rule="nonzero" clip-path="url(#clip55)"><g clip-rule="nonzero" clip-path="url(#clip56)"><g clip-rule="nonzero" clip-path="url(#clip57)"><g clip-rule="nonzero" clip-path="url(#clip58)"><path style=" stroke:none;fill-rule:evenodd;fill:rgb(0%,0%,0%);fill-opacity:1;" d="M 285.378906 18.984375 C 285.117188 19.242188 284.894531 19.527344 284.503906 19.699219 C 284.503906 19.65625 284.484375 19.636719 284.457031 19.636719 C 284.683594 19.382812 284.996094 19.03125 285.378906 18.984375 "/></g></g></g></g><g clip-rule="nonzero" clip-path="url(#clip59)"><g clip-rule="nonzero" clip-path="url(#clip60)"><g clip-rule="nonzero" clip-path="url(#clip61)"><g clip-rule="nonzero" clip-path="url(#clip62)"><path style=" stroke:none;fill-rule:evenodd;fill:rgb(0%,0%,0%);fill-opacity:1;" d="M 280.84375 22.050781 C 280.820312 22.304688 280.753906 22.535156 280.402344 22.570312 C 279.964844 22.320312 280.402344 21.886719 280.84375 22.050781 "/></g></g></g></g><g clip-rule="nonzero" clip-path="url(#clip63)"><g clip-rule="nonzero" clip-path="url(#clip64)"><g clip-rule="nonzero" clip-path="url(#clip65)"><g clip-rule="nonzero" clip-path="url(#clip66)"><g clip-rule="nonzero" clip-path="url(#clip67)"><g clip-rule="nonzero" clip-path="url(#clip68)"><path style=" stroke:none;fill-rule:evenodd;fill:rgb(0%,0%,0%);fill-opacity:1;" d="M 282.828125 21.835938 C 282.890625 22.089844 282.691406 22.171875 282.429688 22.207031 C 282.109375 21.984375 282.566406 21.757812 282.828125 21.835938 "/></g></g></g></g></g></g><g clip-rule="nonzero" clip-path="url(#clip69)"><g clip-rule="nonzero" clip-path="url(#clip70)"><g clip-rule="nonzero" clip-path="url(#clip71)"><g clip-rule="nonzero" clip-path="url(#clip72)"><g clip-rule="nonzero" clip-path="url(#clip73)"><g clip-rule="nonzero" clip-path="url(#clip74)"><path style=" stroke:none;fill-rule:evenodd;fill:rgb(0%,0%,0%);fill-opacity:1;" d="M 284.378906 17.230469 C 284.042969 17.398438 283.640625 18.320312 283.457031 18.785156 C 283.230469 19.355469 282.960938 19.917969 282.867188 20.382812 C 283.097656 20.460938 283.25 20.652344 283.480469 20.734375 C 284.367188 20.164062 285.574219 19.804688 286.421875 19.140625 C 286.457031 18.902344 286.332031 18.6875 286.230469 18.527344 C 286.125 18.445312 285.9375 18.480469 285.839844 18.386719 C 285.835938 18.222656 285.886719 18.097656 285.8125 17.886719 C 285.6875 17.691406 285.375 17.8125 285.1875 17.828125 C 285.089844 17.664062 285.132812 17.496094 285.042969 17.277344 C 284.84375 17.175781 284.554688 17.140625 284.378906 17.230469 Z M 292.3125 12.480469 C 292.3125 12.222656 292.410156 12.023438 292.339844 11.714844 C 292.328125 11.691406 292.304688 11.679688 292.265625 11.695312 C 290.121094 13.792969 288.125 15.992188 286.125 18.1875 C 286.359375 18.347656 286.578125 18.566406 286.625 18.882812 C 288.617188 16.8125 290.5 14.671875 292.3125 12.480469 Z M 291.203125 10.710938 C 289.195312 12.953125 287.269531 15.246094 285.347656 17.542969 C 285.742188 17.433594 285.921875 17.648438 286.042969 17.949219 C 286.898438 17.207031 287.578125 16.300781 288.339844 15.472656 C 289.621094 14.074219 291.035156 12.804688 292.230469 11.339844 C 291.984375 10.988281 291.675781 10.722656 291.203125 10.710938 Z M 290.644531 10.820312 C 290.082031 11.101562 289.777344 11.421875 289.351562 11.800781 C 288.570312 12.496094 287.835938 13.253906 287.175781 13.964844 C 286.238281 14.972656 285.21875 15.878906 284.511719 16.984375 C 284.886719 16.910156 285.132812 17.023438 285.292969 17.265625 C 286.652344 15.886719 287.726562 14.3125 288.996094 12.917969 C 289.605469 12.246094 290.253906 11.601562 290.753906 10.835938 C 290.707031 10.847656 290.675781 10.835938 290.644531 10.820312 Z M 294.132812 10.167969 C 293.828125 9.234375 292.96875 8.632812 292.238281 8.445312 C 291.808594 8.492188 291.984375 8.941406 291.757812 9.121094 C 291.570312 9.167969 291.515625 9.117188 291.371094 9.195312 C 291.265625 9.667969 291.066406 10.128906 290.410156 10 C 290.226562 10.1875 290.136719 10.441406 290.207031 10.800781 C 291.285156 10.058594 292.765625 10.824219 292.617188 12.203125 C 292.589844 12.480469 292.339844 12.636719 292.359375 12.90625 C 292.914062 13.085938 293.191406 12.378906 293.335938 11.988281 C 293.464844 11.964844 293.589844 11.9375 293.71875 11.914062 C 293.722656 11.4375 293.953125 11.074219 294.277344 10.898438 C 294.164062 10.691406 294.21875 10.425781 294.132812 10.167969 Z M 295.261719 8.535156 C 295.050781 7.839844 294.289062 7.332031 293.613281 7.34375 C 293.355469 7.703125 292.992188 7.992188 292.808594 8.40625 C 293.484375 8.71875 293.996094 9.277344 294.308594 10.132812 C 294.804688 9.765625 295.527344 9.421875 295.261719 8.535156 Z M 294.636719 10.503906 C 294.742188 10.828125 294.695312 11.046875 294.597656 11.234375 C 294.496094 11.285156 294.359375 11.414062 294.222656 11.34375 C 294.292969 11.867188 294.117188 12.222656 293.628906 12.367188 C 293.570312 12.691406 293.433594 12.960938 293.207031 13.171875 C 292.8125 13.410156 292.441406 13.226562 292.09375 13.390625 C 291.933594 13.46875 291.734375 13.78125 291.535156 14.046875 C 291.027344 14.707031 290.398438 15.367188 289.878906 15.925781 C 289.5 16.332031 289.164062 16.804688 288.753906 17.195312 C 287.882812 18.023438 287.191406 18.902344 286.398438 19.757812 C 285.257812 20.101562 284.234375 20.847656 283.101562 21.386719 C 282.832031 21.515625 282.515625 21.636719 282.238281 21.59375 C 282.058594 21.664062 282.007812 21.859375 281.796875 21.75 C 281.859375 21.441406 282.066406 21.226562 282.222656 20.980469 C 282.246094 20.625 282.375 20.285156 282.492188 19.953125 C 282.734375 19.257812 282.96875 18.609375 283.292969 17.949219 C 283.632812 17.25 283.984375 16.742188 284.527344 16.152344 C 286.125 14.417969 287.859375 12.515625 289.648438 10.910156 C 289.476562 10.226562 289.804688 9.429688 290.660156 9.625 C 290.800781 9.355469 290.800781 8.996094 291.039062 8.789062 C 291.167969 8.78125 291.257812 8.828125 291.402344 8.792969 C 291.527344 8.382812 291.917969 7.691406 292.390625 8.125 C 292.820312 7.75 293.015625 6.921875 293.753906 6.953125 C 293.875 6.972656 293.757812 6.835938 293.878906 6.855469 C 294.773438 6.941406 295.484375 7.640625 295.734375 8.550781 C 296.007812 9.5625 295.191406 9.941406 294.636719 10.503906 "/></g></g></g></g></g></g><path style=" stroke:none;fill-rule:nonzero;fill:rgb(6.269836%,5.879211%,5.099487%);fill-opacity:1;" d="M 252.722656 26.710938 L 253.753906 26.710938 C 254.398438 26.710938 254.929688 26.199219 254.929688 25.574219 C 254.929688 24.945312 254.398438 24.4375 253.753906 24.4375 L 252.722656 24.4375 Z M 253.753906 27.378906 L 252.375 27.378906 C 252.183594 27.378906 252.027344 27.230469 252.027344 27.042969 L 252.027344 24.101562 C 252.027344 23.917969 252.183594 23.765625 252.375 23.765625 L 253.753906 23.765625 C 254.78125 23.765625 255.621094 24.578125 255.621094 25.574219 C 255.621094 26.570312 254.78125 27.378906 253.753906 27.378906 "/><path style=" stroke:none;fill-rule:nonzero;fill:rgb(6.269836%,5.879211%,5.099487%);fill-opacity:1;" d="M 252.722656 29.652344 L 253.753906 29.652344 C 254.398438 29.652344 254.929688 29.144531 254.929688 28.515625 C 254.929688 27.890625 254.398438 27.378906 253.753906 27.378906 L 252.722656 27.378906 Z M 253.753906 30.320312 L 252.375 30.320312 C 252.183594 30.320312 252.027344 30.171875 252.027344 29.988281 L 252.027344 27.042969 C 252.027344 26.859375 252.183594 26.710938 252.375 26.710938 L 253.753906 26.710938 C 254.78125 26.710938 255.621094 27.519531 255.621094 28.515625 C 255.621094 29.511719 254.78125 30.320312 253.753906 30.320312 "/><path style=" stroke:none;fill-rule:nonzero;fill:rgb(6.269836%,5.879211%,5.099487%);fill-opacity:1;" d="M 261.375 30.320312 L 258.476562 30.320312 C 258.285156 30.320312 258.128906 30.171875 258.128906 29.988281 L 258.128906 24.101562 C 258.128906 23.917969 258.285156 23.765625 258.476562 23.765625 C 258.664062 23.765625 258.820312 23.917969 258.820312 24.101562 L 258.820312 29.652344 L 261.375 29.652344 C 261.5625 29.652344 261.71875 29.804688 261.71875 29.988281 C 261.71875 30.171875 261.5625 30.320312 261.375 30.320312 "/><path style=" stroke:none;fill-rule:nonzero;fill:rgb(6.269836%,5.879211%,5.099487%);fill-opacity:1;" d="M 265.167969 24.4375 C 264.355469 24.4375 263.695312 25.074219 263.695312 25.859375 L 263.695312 28.230469 C 263.695312 29.015625 264.355469 29.652344 265.167969 29.652344 C 265.980469 29.652344 266.640625 29.015625 266.640625 28.230469 L 266.640625 25.859375 C 266.640625 25.074219 265.980469 24.4375 265.167969 24.4375 Z M 265.167969 30.320312 C 263.972656 30.320312 263.003906 29.382812 263.003906 28.230469 L 263.003906 25.859375 C 263.003906 24.707031 263.972656 23.765625 265.167969 23.765625 C 266.363281 23.765625 267.332031 24.707031 267.332031 25.859375 L 267.332031 28.230469 C 267.332031 29.382812 266.363281 30.320312 265.167969 30.320312 "/><path style=" stroke:none;fill-rule:nonzero;fill:rgb(6.269836%,5.879211%,5.099487%);fill-opacity:1;" d="M 271.824219 30.320312 L 271.433594 30.320312 C 270.347656 30.320312 269.464844 29.46875 269.464844 28.417969 L 269.464844 25.671875 C 269.464844 24.621094 270.347656 23.765625 271.433594 23.765625 L 271.824219 23.765625 C 272.71875 23.765625 273.5 24.351562 273.726562 25.183594 C 273.777344 25.363281 273.667969 25.546875 273.484375 25.59375 C 273.296875 25.640625 273.109375 25.535156 273.058594 25.355469 C 272.910156 24.8125 272.402344 24.4375 271.824219 24.4375 L 271.433594 24.4375 C 270.730469 24.4375 270.15625 24.992188 270.15625 25.671875 L 270.15625 28.417969 C 270.15625 29.097656 270.730469 29.652344 271.433594 29.652344 L 271.824219 29.652344 C 272.527344 29.652344 273.101562 29.097656 273.101562 28.417969 L 273.101562 27.800781 L 272.398438 27.800781 C 272.207031 27.800781 272.054688 27.652344 272.054688 27.46875 C 272.054688 27.28125 272.207031 27.132812 272.398438 27.132812 L 273.449219 27.132812 C 273.636719 27.132812 273.792969 27.28125 273.792969 27.46875 L 273.792969 28.417969 C 273.792969 29.46875 272.910156 30.320312 271.824219 30.320312 "/><g clip-rule="nonzero" clip-path="url(#clip75)"><path style=" stroke:none;fill-rule:nonzero;fill:rgb(6.269836%,5.879211%,5.099487%);fill-opacity:1;" d="M 252.585938 13.335938 C 248.746094 13.335938 245.144531 15.363281 243.578125 18.433594 C 241.613281 22.277344 243.042969 26.792969 245.042969 29.734375 C 247.179688 32.882812 250.320312 35.320312 253.355469 37.679688 L 254.011719 38.191406 C 254.347656 38.457031 254.695312 38.71875 255.039062 38.988281 C 257.878906 41.175781 261.074219 43.636719 262.910156 46.710938 C 264.75 43.636719 267.945312 41.175781 270.785156 38.988281 C 271.128906 38.71875 271.472656 38.457031 271.808594 38.191406 L 272.46875 37.679688 C 275.503906 35.320312 278.644531 32.882812 280.78125 29.734375 C 282.777344 26.792969 284.210938 22.277344 282.242188 18.433594 C 280.648438 15.308594 276.945312 13.265625 273.015625 13.339844 C 268.851562 13.421875 265.0625 16.921875 263.171875 19 C 263.039062 19.144531 262.785156 19.144531 262.652344 19 C 260.761719 16.921875 256.96875 13.421875 252.804688 13.339844 C 252.730469 13.339844 252.660156 13.335938 252.585938 13.335938 Z M 262.910156 47.742188 C 262.78125 47.742188 262.664062 47.671875 262.601562 47.5625 C 260.898438 44.359375 257.558594 41.785156 254.609375 39.511719 C 254.261719 39.242188 253.914062 38.976562 253.578125 38.710938 L 252.921875 38.203125 C 249.84375 35.8125 246.660156 33.339844 244.464844 30.101562 C 242.363281 27.003906 240.863281 22.238281 242.957031 18.136719 C 244.671875 14.785156 248.636719 12.59375 252.816406 12.671875 C 257.0625 12.757812 260.871094 16.097656 262.910156 18.277344 C 264.953125 16.097656 268.761719 12.757812 273.003906 12.671875 C 277.195312 12.589844 281.148438 14.785156 282.863281 18.136719 C 284.960938 22.238281 283.460938 27.003906 281.359375 30.101562 C 279.160156 33.339844 275.976562 35.8125 272.902344 38.203125 L 272.246094 38.710938 C 271.90625 38.976562 271.5625 39.242188 271.214844 39.511719 C 268.265625 41.785156 264.921875 44.359375 263.21875 47.5625 C 263.160156 47.671875 263.039062 47.742188 262.910156 47.742188 "/></g><path style=" stroke:none;fill-rule:nonzero;fill:rgb(32.159424%,72.549438%,81.568909%);fill-opacity:1;" d="M 279.769531 26.402344 C 277.734375 29.398438 274.671875 31.777344 271.707031 34.082031 L 271.050781 34.59375 C 270.714844 34.855469 270.371094 35.117188 270.027344 35.382812 C 267.578125 37.269531 264.871094 39.359375 262.910156 41.902344 C 260.949219 39.359375 258.242188 37.269531 255.796875 35.382812 C 255.449219 35.117188 255.109375 34.855469 254.773438 34.59375 L 254.113281 34.078125 C 251.152344 31.777344 248.085938 29.398438 246.054688 26.402344 C 245.070312 24.953125 244.234375 23.097656 243.949219 21.152344 C 243.496094 23.992188 244.621094 26.980469 246.054688 29.09375 C 248.085938 32.085938 251.152344 34.46875 254.113281 36.769531 L 254.773438 37.28125 C 255.109375 37.542969 255.449219 37.804688 255.796875 38.074219 C 258.242188 39.960938 260.949219 42.046875 262.910156 44.589844 C 264.871094 42.046875 267.578125 39.960938 270.027344 38.070312 C 270.371094 37.804688 270.714844 37.542969 271.050781 37.28125 L 271.707031 36.769531 C 274.671875 34.46875 277.734375 32.085938 279.769531 29.09375 C 281.203125 26.980469 282.324219 23.992188 281.871094 21.152344 C 281.589844 23.097656 280.753906 24.953125 279.769531 26.402344 "/></g></svg>