<?xml version="1.0" encoding="UTF-8"?><svg xmlns="http://www.w3.org/2000/svg" xmlns:xlink="http://www.w3.org/1999/xlink" contentScriptType="text/ecmascript" width="375pt" zoomAndPan="magnify" contentStyleType="text/css" viewBox="0 0 375 63.749997" height="63.749997pt" preserveAspectRatio="xMidYMid meet" version="1.2"><defs><g/><clipPath xml:id="clip1" id="clip1"><path d="M 123 6 L 190 6 L 190 63.5 L 123 63.5 Z M 123 6 "/></clipPath><clipPath xml:id="clip2" id="clip2"><path d="M 185 2 L 238 2 L 238 63.5 L 185 63.5 Z M 185 2 "/></clipPath><clipPath xml:id="clip3" id="clip3"><path d="M 251 14 L 256 14 L 256 20 L 251 20 Z M 251 14 "/></clipPath><clipPath xml:id="clip4" id="clip4"><path d="M 228.949219 18.824219 L 255.335938 13.617188 L 259.097656 32.675781 L 232.710938 37.882812 Z M 228.949219 18.824219 "/></clipPath><clipPath xml:id="clip5" id="clip5"><path d="M 228.949219 18.824219 L 255.335938 13.617188 L 259.097656 32.675781 L 232.710938 37.882812 Z M 228.949219 18.824219 "/></clipPath><clipPath xml:id="clip6" id="clip6"><path d="M 228.949219 18.824219 L 255.199219 13.644531 L 259.011719 32.96875 L 232.765625 38.148438 Z M 228.949219 18.824219 "/></clipPath><clipPath xml:id="clip7" id="clip7"><path d="M 252 15 L 254 15 L 254 17 L 252 17 Z M 252 15 "/></clipPath><clipPath xml:id="clip8" id="clip8"><path d="M 228.949219 18.824219 L 255.335938 13.617188 L 259.097656 32.675781 L 232.710938 37.882812 Z M 228.949219 18.824219 "/></clipPath><clipPath xml:id="clip9" id="clip9"><path d="M 228.949219 18.824219 L 255.335938 13.617188 L 259.097656 32.675781 L 232.710938 37.882812 Z M 228.949219 18.824219 "/></clipPath><clipPath xml:id="clip10" id="clip10"><path d="M 228.949219 18.824219 L 255.199219 13.644531 L 259.011719 32.96875 L 232.765625 38.148438 Z M 228.949219 18.824219 "/></clipPath><clipPath xml:id="clip11" id="clip11"><path d="M 247 16 L 254 16 L 254 24 L 247 24 Z M 247 16 "/></clipPath><clipPath xml:id="clip12" id="clip12"><path d="M 228.949219 18.824219 L 255.335938 13.617188 L 259.097656 32.675781 L 232.710938 37.882812 Z M 228.949219 18.824219 "/></clipPath><clipPath xml:id="clip13" id="clip13"><path d="M 228.949219 18.824219 L 255.335938 13.617188 L 259.097656 32.675781 L 232.710938 37.882812 Z M 228.949219 18.824219 "/></clipPath><clipPath xml:id="clip14" id="clip14"><path d="M 228.949219 18.824219 L 255.199219 13.644531 L 259.011719 32.96875 L 232.765625 38.148438 Z M 228.949219 18.824219 "/></clipPath><clipPath xml:id="clip15" id="clip15"><path d="M 253 16 L 254 16 L 254 17 L 253 17 Z M 253 16 "/></clipPath><clipPath xml:id="clip16" id="clip16"><path d="M 228.949219 18.824219 L 255.335938 13.617188 L 259.097656 32.675781 L 232.710938 37.882812 Z M 228.949219 18.824219 "/></clipPath><clipPath xml:id="clip17" id="clip17"><path d="M 228.949219 18.824219 L 255.335938 13.617188 L 259.097656 32.675781 L 232.710938 37.882812 Z M 228.949219 18.824219 "/></clipPath><clipPath xml:id="clip18" id="clip18"><path d="M 228.949219 18.824219 L 255.199219 13.644531 L 259.011719 32.96875 L 232.765625 38.148438 Z M 228.949219 18.824219 "/></clipPath><clipPath xml:id="clip19" id="clip19"><path d="M 251 17 L 253 17 L 253 20 L 251 20 Z M 251 17 "/></clipPath><clipPath xml:id="clip20" id="clip20"><path d="M 228.949219 18.824219 L 255.335938 13.617188 L 259.097656 32.675781 L 232.710938 37.882812 Z M 228.949219 18.824219 "/></clipPath><clipPath xml:id="clip21" id="clip21"><path d="M 228.949219 18.824219 L 255.335938 13.617188 L 259.097656 32.675781 L 232.710938 37.882812 Z M 228.949219 18.824219 "/></clipPath><clipPath xml:id="clip22" id="clip22"><path d="M 228.949219 18.824219 L 255.199219 13.644531 L 259.011719 32.96875 L 232.765625 38.148438 Z M 228.949219 18.824219 "/></clipPath><clipPath xml:id="clip23" id="clip23"><path d="M 249 18 L 252 18 L 252 21 L 249 21 Z M 249 18 "/></clipPath><clipPath xml:id="clip24" id="clip24"><path d="M 228.949219 18.824219 L 255.335938 13.617188 L 259.097656 32.675781 L 232.710938 37.882812 Z M 228.949219 18.824219 "/></clipPath><clipPath xml:id="clip25" id="clip25"><path d="M 228.949219 18.824219 L 255.335938 13.617188 L 259.097656 32.675781 L 232.710938 37.882812 Z M 228.949219 18.824219 "/></clipPath><clipPath xml:id="clip26" id="clip26"><path d="M 228.949219 18.824219 L 255.199219 13.644531 L 259.011719 32.96875 L 232.765625 38.148438 Z M 228.949219 18.824219 "/></clipPath><clipPath xml:id="clip27" id="clip27"><path d="M 239 20 L 249 20 L 249 30 L 239 30 Z M 239 20 "/></clipPath><clipPath xml:id="clip28" id="clip28"><path d="M 228.949219 18.824219 L 255.335938 13.617188 L 259.097656 32.675781 L 232.710938 37.882812 Z M 228.949219 18.824219 "/></clipPath><clipPath xml:id="clip29" id="clip29"><path d="M 228.949219 18.824219 L 255.335938 13.617188 L 259.097656 32.675781 L 232.710938 37.882812 Z M 228.949219 18.824219 "/></clipPath><clipPath xml:id="clip30" id="clip30"><path d="M 228.949219 18.824219 L 255.199219 13.644531 L 259.011719 32.96875 L 232.765625 38.148438 Z M 228.949219 18.824219 "/></clipPath><clipPath xml:id="clip31" id="clip31"><path d="M 240 19 L 251 19 L 251 31 L 240 31 Z M 240 19 "/></clipPath><clipPath xml:id="clip32" id="clip32"><path d="M 228.949219 18.824219 L 255.335938 13.617188 L 259.097656 32.675781 L 232.710938 37.882812 Z M 228.949219 18.824219 "/></clipPath><clipPath xml:id="clip33" id="clip33"><path d="M 228.949219 18.824219 L 255.335938 13.617188 L 259.097656 32.675781 L 232.710938 37.882812 Z M 228.949219 18.824219 "/></clipPath><clipPath xml:id="clip34" id="clip34"><path d="M 228.949219 18.824219 L 255.199219 13.644531 L 259.011719 32.96875 L 232.765625 38.148438 Z M 228.949219 18.824219 "/></clipPath><clipPath xml:id="clip35" id="clip35"><path d="M 241 21 L 251 21 L 251 33 L 241 33 Z M 241 21 "/></clipPath><clipPath xml:id="clip36" id="clip36"><path d="M 228.949219 18.824219 L 255.335938 13.617188 L 259.097656 32.675781 L 232.710938 37.882812 Z M 228.949219 18.824219 "/></clipPath><clipPath xml:id="clip37" id="clip37"><path d="M 228.949219 18.824219 L 255.335938 13.617188 L 259.097656 32.675781 L 232.710938 37.882812 Z M 228.949219 18.824219 "/></clipPath><clipPath xml:id="clip38" id="clip38"><path d="M 228.949219 18.824219 L 255.199219 13.644531 L 259.011719 32.96875 L 232.765625 38.148438 Z M 228.949219 18.824219 "/></clipPath><clipPath xml:id="clip39" id="clip39"><path d="M 248 22 L 249 22 L 249 23 L 248 23 Z M 248 22 "/></clipPath><clipPath xml:id="clip40" id="clip40"><path d="M 228.949219 18.824219 L 255.335938 13.617188 L 259.097656 32.675781 L 232.710938 37.882812 Z M 228.949219 18.824219 "/></clipPath><clipPath xml:id="clip41" id="clip41"><path d="M 228.949219 18.824219 L 255.335938 13.617188 L 259.097656 32.675781 L 232.710938 37.882812 Z M 228.949219 18.824219 "/></clipPath><clipPath xml:id="clip42" id="clip42"><path d="M 228.949219 18.824219 L 255.199219 13.644531 L 259.011719 32.96875 L 232.765625 38.148438 Z M 228.949219 18.824219 "/></clipPath><clipPath xml:id="clip43" id="clip43"><path d="M 247 22 L 249 22 L 249 23 L 247 23 Z M 247 22 "/></clipPath><clipPath xml:id="clip44" id="clip44"><path d="M 228.949219 18.824219 L 255.335938 13.617188 L 259.097656 32.675781 L 232.710938 37.882812 Z M 228.949219 18.824219 "/></clipPath><clipPath xml:id="clip45" id="clip45"><path d="M 228.949219 18.824219 L 255.335938 13.617188 L 259.097656 32.675781 L 232.710938 37.882812 Z M 228.949219 18.824219 "/></clipPath><clipPath xml:id="clip46" id="clip46"><path d="M 228.949219 18.824219 L 255.199219 13.644531 L 259.011719 32.96875 L 232.765625 38.148438 Z M 228.949219 18.824219 "/></clipPath><clipPath xml:id="clip47" id="clip47"><path d="M 236 29 L 243 29 L 243 36 L 236 36 Z M 236 29 "/></clipPath><clipPath xml:id="clip48" id="clip48"><path d="M 228.949219 18.824219 L 255.335938 13.617188 L 259.097656 32.675781 L 232.710938 37.882812 Z M 228.949219 18.824219 "/></clipPath><clipPath xml:id="clip49" id="clip49"><path d="M 228.949219 18.824219 L 255.335938 13.617188 L 259.097656 32.675781 L 232.710938 37.882812 Z M 228.949219 18.824219 "/></clipPath><clipPath xml:id="clip50" id="clip50"><path d="M 228.949219 18.824219 L 255.199219 13.644531 L 259.011719 32.96875 L 232.765625 38.148438 Z M 228.949219 18.824219 "/></clipPath><clipPath xml:id="clip51" id="clip51"><path d="M 243 29 L 245 29 L 245 31 L 243 31 Z M 243 29 "/></clipPath><clipPath xml:id="clip52" id="clip52"><path d="M 228.949219 18.824219 L 255.335938 13.617188 L 259.097656 32.675781 L 232.710938 37.882812 Z M 228.949219 18.824219 "/></clipPath><clipPath xml:id="clip53" id="clip53"><path d="M 228.949219 18.824219 L 255.335938 13.617188 L 259.097656 32.675781 L 232.710938 37.882812 Z M 228.949219 18.824219 "/></clipPath><clipPath xml:id="clip54" id="clip54"><path d="M 228.949219 18.824219 L 255.199219 13.644531 L 259.011719 32.96875 L 232.765625 38.148438 Z M 228.949219 18.824219 "/></clipPath><clipPath xml:id="clip55" id="clip55"><path d="M 243 30 L 244 30 L 244 31 L 243 31 Z M 243 30 "/></clipPath><clipPath xml:id="clip56" id="clip56"><path d="M 228.949219 18.824219 L 255.335938 13.617188 L 259.097656 32.675781 L 232.710938 37.882812 Z M 228.949219 18.824219 "/></clipPath><clipPath xml:id="clip57" id="clip57"><path d="M 228.949219 18.824219 L 255.335938 13.617188 L 259.097656 32.675781 L 232.710938 37.882812 Z M 228.949219 18.824219 "/></clipPath><clipPath xml:id="clip58" id="clip58"><path d="M 228.949219 18.824219 L 255.199219 13.644531 L 259.011719 32.96875 L 232.765625 38.148438 Z M 228.949219 18.824219 "/></clipPath><clipPath xml:id="clip59" id="clip59"><path d="M 237 31 L 240 31 L 240 35 L 237 35 Z M 237 31 "/></clipPath><clipPath xml:id="clip60" id="clip60"><path d="M 228.949219 18.824219 L 255.335938 13.617188 L 259.097656 32.675781 L 232.710938 37.882812 Z M 228.949219 18.824219 "/></clipPath><clipPath xml:id="clip61" id="clip61"><path d="M 228.949219 18.824219 L 255.335938 13.617188 L 259.097656 32.675781 L 232.710938 37.882812 Z M 228.949219 18.824219 "/></clipPath><clipPath xml:id="clip62" id="clip62"><path d="M 228.949219 18.824219 L 255.199219 13.644531 L 259.011719 32.96875 L 232.765625 38.148438 Z M 228.949219 18.824219 "/></clipPath><clipPath xml:id="clip63" id="clip63"><path d="M 239 32 L 241 32 L 241 34 L 239 34 Z M 239 32 "/></clipPath><clipPath xml:id="clip64" id="clip64"><path d="M 228.949219 18.824219 L 255.335938 13.617188 L 259.097656 32.675781 L 232.710938 37.882812 Z M 228.949219 18.824219 "/></clipPath><clipPath xml:id="clip65" id="clip65"><path d="M 228.949219 18.824219 L 255.335938 13.617188 L 259.097656 32.675781 L 232.710938 37.882812 Z M 228.949219 18.824219 "/></clipPath><clipPath xml:id="clip66" id="clip66"><path d="M 228.949219 18.824219 L 255.199219 13.644531 L 259.011719 32.96875 L 232.765625 38.148438 Z M 228.949219 18.824219 "/></clipPath><clipPath xml:id="clip67" id="clip67"><path d="M 233 37 L 234 37 L 234 38 L 233 38 Z M 233 37 "/></clipPath><clipPath xml:id="clip68" id="clip68"><path d="M 228.949219 18.824219 L 255.335938 13.617188 L 259.097656 32.675781 L 232.710938 37.882812 Z M 228.949219 18.824219 "/></clipPath><clipPath xml:id="clip69" id="clip69"><path d="M 228.949219 18.824219 L 255.335938 13.617188 L 259.097656 32.675781 L 232.710938 37.882812 Z M 228.949219 18.824219 "/></clipPath><clipPath xml:id="clip70" id="clip70"><path d="M 228.949219 18.824219 L 255.199219 13.644531 L 259.011719 32.96875 L 232.765625 38.148438 Z M 228.949219 18.824219 "/></clipPath><clipPath xml:id="clip71" id="clip71"><path d="M 236 36 L 237 36 L 237 38 L 236 38 Z M 236 36 "/></clipPath><clipPath xml:id="clip72" id="clip72"><path d="M 228.949219 18.824219 L 255.335938 13.617188 L 259.097656 32.675781 L 232.710938 37.882812 Z M 228.949219 18.824219 "/></clipPath><clipPath xml:id="clip73" id="clip73"><path d="M 228.949219 18.824219 L 255.335938 13.617188 L 259.097656 32.675781 L 232.710938 37.882812 Z M 228.949219 18.824219 "/></clipPath><clipPath xml:id="clip74" id="clip74"><path d="M 228.949219 18.824219 L 255.199219 13.644531 L 259.011719 32.96875 L 232.765625 38.148438 Z M 228.949219 18.824219 "/></clipPath><clipPath xml:id="clip75" id="clip75"><path d="M 236.085938 36.949219 L 236.882812 36.789062 L 236.988281 37.316406 L 236.1875 37.472656 Z M 236.085938 36.949219 "/></clipPath><clipPath xml:id="clip76" id="clip76"><path d="M 236.085938 36.949219 L 236.882812 36.789062 L 236.988281 37.316406 L 236.1875 37.472656 Z M 236.085938 36.949219 "/></clipPath><clipPath xml:id="clip77" id="clip77"><path d="M 235 14 L 256 14 L 256 37 L 235 37 Z M 235 14 "/></clipPath><clipPath xml:id="clip78" id="clip78"><path d="M 228.949219 18.824219 L 255.335938 13.617188 L 259.097656 32.675781 L 232.710938 37.882812 Z M 228.949219 18.824219 "/></clipPath><clipPath xml:id="clip79" id="clip79"><path d="M 228.949219 18.824219 L 255.335938 13.617188 L 259.097656 32.675781 L 232.710938 37.882812 Z M 228.949219 18.824219 "/></clipPath><clipPath xml:id="clip80" id="clip80"><path d="M 228.949219 18.824219 L 255.199219 13.644531 L 259.011719 32.96875 L 232.765625 38.148438 Z M 228.949219 18.824219 "/></clipPath><clipPath xml:id="clip81" id="clip81"><path d="M 231.714844 18.28125 L 255.195312 13.644531 L 258.859375 32.199219 L 235.375 36.835938 Z M 231.714844 18.28125 "/></clipPath><clipPath xml:id="clip82" id="clip82"><path d="M 231.714844 18.28125 L 255.1875 13.648438 L 258.847656 32.203125 L 235.375 36.835938 Z M 231.714844 18.28125 "/></clipPath></defs><g xml:id="surface1" id="surface1"><g clip-rule="nonzero" clip-path="url(#clip1)"><g style="fill:rgb(0%,33.729553%,52.549744%);fill-opacity:1;"><g transform="translate(123.381353, 55.164833)"><path style="stroke:none;" d="M 1.445312 9.4375 C 1.871094 9.4375 2.210938 9.265625 2.550781 8.925781 C 3.144531 8.246094 3.65625 7.480469 4.082031 6.628906 C 4.675781 5.527344 5.183594 4.503906 5.695312 3.398438 C 6.121094 2.296875 6.628906 1.273438 7.140625 0.171875 C 8.246094 -2.296875 9.4375 -4.675781 10.539062 -7.140625 C 11.644531 -9.519531 12.75 -11.902344 13.855469 -14.28125 C 17.765625 -22.355469 24.140625 -32.984375 31.367188 -38.421875 C 31.621094 -38.507812 31.792969 -38.679688 32.046875 -38.847656 C 32.300781 -38.933594 32.558594 -39.101562 32.8125 -39.1875 L 32.984375 -39.1875 C 33.238281 -39.1875 33.40625 -39.101562 33.40625 -38.847656 C 33.40625 -38.507812 33.40625 -38.167969 33.40625 -37.828125 C 33.40625 -37.488281 33.324219 -37.148438 33.238281 -36.894531 C 32.898438 -34.511719 32.21875 -32.21875 31.539062 -29.921875 C 30.433594 -26.265625 29.242188 -22.613281 28.222656 -18.957031 C 27.542969 -16.320312 27.03125 -13.769531 26.777344 -10.796875 C 26.863281 -10.539062 26.863281 -10.199219 26.863281 -9.859375 C 26.777344 -9.519531 26.863281 -9.179688 26.945312 -8.839844 C 27.203125 -7.394531 27.882812 -6.714844 28.902344 -6.714844 C 29.414062 -6.714844 29.921875 -6.886719 30.433594 -7.226562 C 31.199219 -7.652344 31.960938 -8.332031 32.726562 -9.265625 C 33.664062 -10.457031 34.597656 -11.644531 35.449219 -12.75 C 37.574219 -15.726562 39.699219 -18.363281 42.078125 -20.996094 C 42.503906 -21.335938 42.84375 -21.675781 43.183594 -22.101562 C 43.523438 -22.441406 43.949219 -22.78125 44.375 -23.035156 C 44.796875 -23.292969 45.136719 -23.460938 45.394531 -23.460938 C 46.414062 -23.460938 46.582031 -21.847656 46.839844 -21.082031 C 46.921875 -20.316406 47.09375 -19.636719 47.179688 -18.957031 C 47.261719 -18.191406 47.433594 -17.425781 47.519531 -16.660156 C 47.6875 -15.640625 47.859375 -14.621094 48.027344 -13.601562 C 48.199219 -12.496094 48.367188 -11.476562 48.625 -10.371094 C 49.132812 -7.992188 51.34375 -4.761719 53.808594 -4.761719 C 54.488281 -4.761719 55.339844 -5.015625 56.359375 -5.441406 C 58.230469 -6.460938 65.710938 -15.726562 66.390625 -17.851562 C 66.476562 -18.277344 66.390625 -18.53125 65.964844 -18.703125 C 65.878906 -18.785156 65.625 -18.871094 65.371094 -18.871094 C 65.113281 -18.871094 65.03125 -18.871094 64.945312 -18.785156 C 64.691406 -18.703125 64.519531 -18.53125 64.265625 -18.277344 C 62.140625 -15.386719 60.441406 -13.089844 59.164062 -11.304688 C 57.890625 -9.519531 56.953125 -8.5 56.527344 -8.160156 C 55.59375 -7.394531 54.742188 -7.054688 53.980469 -7.054688 C 51.257812 -7.054688 50.578125 -11.5625 50.070312 -14.027344 L 49.046875 -21.507812 C 48.625 -23.800781 47.945312 -25.757812 45.222656 -25.757812 C 44.289062 -25.671875 43.523438 -25.332031 42.757812 -24.652344 C 41.484375 -23.546875 40.464844 -22.527344 39.441406 -21.25 C 37.0625 -18.617188 35.109375 -15.980469 32.984375 -13.175781 C 32.21875 -12.070312 31.28125 -11.050781 30.347656 -10.03125 C 30.175781 -9.777344 29.921875 -9.605469 29.667969 -9.605469 C 29.496094 -9.605469 29.414062 -9.605469 29.328125 -9.691406 C 29.070312 -9.859375 28.988281 -10.199219 28.988281 -10.625 C 28.988281 -12.582031 29.414062 -14.367188 29.835938 -16.152344 C 30.773438 -19.976562 31.792969 -23.632812 33.066406 -27.371094 C 34.003906 -30.347656 34.851562 -33.238281 35.449219 -36.210938 C 35.703125 -37.488281 35.789062 -38.847656 35.53125 -40.121094 C 35.191406 -41.484375 34.34375 -41.824219 33.066406 -41.824219 C 32.8125 -41.738281 32.558594 -41.652344 32.300781 -41.566406 C 32.046875 -41.484375 31.792969 -41.3125 31.539062 -41.226562 C 22.273438 -35.023438 14.960938 -22.101562 10.285156 -12.070312 C 9.351562 -9.945312 8.332031 -7.90625 7.394531 -5.78125 C 6.460938 -3.65625 5.441406 -1.53125 4.503906 0.59375 C 4.335938 1.019531 4.164062 1.445312 3.996094 1.871094 C 3.742188 2.296875 3.570312 2.71875 3.398438 3.144531 C 3.316406 3.230469 3.230469 3.398438 3.144531 3.570312 C 3.058594 3.742188 2.890625 3.824219 2.636719 3.824219 C 2.378906 3.824219 2.210938 3.742188 2.296875 3.570312 C 2.296875 3.316406 2.296875 3.144531 2.296875 2.976562 C 2.296875 2.636719 2.378906 2.210938 2.464844 1.613281 C 3.144531 -3.824219 4.25 -9.011719 5.867188 -14.109375 C 6.96875 -17.851562 8.160156 -21.589844 9.4375 -25.246094 C 10.625 -28.902344 11.816406 -32.640625 13.007812 -36.382812 C 13.601562 -38.167969 14.109375 -39.867188 14.621094 -41.652344 C 15.046875 -43.351562 15.640625 -45.054688 16.320312 -46.753906 C 16.578125 -47.347656 16.492188 -47.859375 15.894531 -48.199219 C 15.8125 -48.285156 15.726562 -48.285156 15.472656 -48.285156 C 15.132812 -48.285156 14.792969 -48.113281 14.449219 -47.6875 C 14.195312 -47.261719 13.941406 -46.753906 13.769531 -46.328125 C 13.601562 -45.820312 13.429688 -45.308594 13.261719 -44.882812 L 7.90625 -27.882812 C 5.527344 -20.402344 3.058594 -13.175781 1.445312 -5.441406 C 0.679688 -1.699219 -0.0859375 1.871094 0 5.867188 C 0 6.289062 0 6.628906 0 7.054688 C 0 7.480469 0.0859375 7.90625 0.171875 8.332031 C 0.339844 9.09375 0.765625 9.4375 1.445312 9.4375 Z M 1.445312 9.4375 "/></g></g></g><g clip-rule="nonzero" clip-path="url(#clip2)"><g style="fill:rgb(0%,33.729553%,52.549744%);fill-opacity:1;"><g transform="translate(185.500526, 55.164833)"><path style="stroke:none;" d="M 5.949219 8.671875 C 6.207031 8.671875 6.546875 8.5 6.886719 8.160156 C 7.566406 7.140625 7.566406 6.035156 7.226562 4.675781 L 7.992188 -0.851562 C 8.074219 -1.359375 8.332031 -1.613281 8.671875 -1.613281 C 9.011719 -1.613281 10.796875 -0.679688 11.136719 -0.425781 C 13.941406 1.105469 19.296875 3.144531 22.527344 3.144531 C 28.390625 3.144531 35.957031 -2.125 40.039062 -6.207031 C 41.652344 -7.734375 43.269531 -9.265625 44.882812 -10.878906 C 46.414062 -12.410156 48.027344 -13.941406 49.644531 -15.472656 C 50.070312 -15.894531 50.410156 -16.234375 50.578125 -16.492188 C 51.429688 -17.425781 51.597656 -18.105469 51.089844 -18.703125 C 50.917969 -18.871094 50.75 -18.957031 50.578125 -18.957031 C 50.152344 -18.957031 49.644531 -18.617188 49.046875 -18.019531 L 39.101562 -8.332031 C 34.851562 -4.503906 28.390625 0.933594 22.527344 0.933594 C 19.550781 0.933594 10.796875 -2.210938 8.753906 -4.675781 C 8.839844 -5.441406 8.839844 -6.121094 8.925781 -6.886719 C 9.011719 -7.566406 9.011719 -8.246094 9.09375 -9.011719 C 9.265625 -10.285156 9.859375 -11.222656 10.964844 -11.984375 C 17.679688 -16.40625 24.480469 -21.675781 30.347656 -27.796875 C 36.210938 -33.832031 41.3125 -40.632812 44.628906 -48.113281 C 45.054688 -49.132812 45.476562 -50.238281 45.5625 -51.34375 C 45.5625 -51.9375 45.308594 -52.277344 44.796875 -52.363281 C 44.714844 -52.363281 44.714844 -52.363281 44.714844 -52.449219 C 44.628906 -52.449219 44.628906 -52.449219 44.542969 -52.449219 C 44.289062 -52.449219 44.035156 -52.195312 43.777344 -51.769531 C 41.566406 -43.097656 30.515625 -30.347656 23.886719 -24.652344 C 20.230469 -21.335938 16.320312 -18.53125 12.324219 -15.554688 C 12.070312 -15.472656 11.816406 -15.300781 11.644531 -15.132812 C 11.390625 -14.960938 11.136719 -14.792969 10.878906 -14.707031 C 10.796875 -14.621094 10.710938 -14.621094 10.625 -14.621094 C 10.285156 -14.621094 10.117188 -14.792969 10.117188 -15.132812 C 10.117188 -15.386719 10.117188 -15.726562 10.117188 -15.980469 C 10.117188 -16.234375 10.117188 -16.492188 10.199219 -16.746094 C 11.644531 -26.183594 13.515625 -34.9375 16.234375 -44.117188 C 16.320312 -44.542969 16.492188 -44.882812 16.578125 -45.222656 C 16.660156 -45.5625 16.746094 -45.902344 16.832031 -46.242188 C 16.917969 -46.839844 16.746094 -47.179688 16.320312 -47.433594 C 16.234375 -47.433594 16.234375 -47.433594 16.152344 -47.519531 C 16.066406 -47.519531 16.066406 -47.519531 15.980469 -47.519531 C 15.472656 -47.519531 15.132812 -47.261719 14.960938 -46.839844 C 14.707031 -46.242188 14.367188 -45.5625 14.109375 -44.714844 C 11.136719 -34.769531 8.925781 -24.652344 7.652344 -14.367188 C 7.394531 -12.664062 6.714844 -11.644531 5.355469 -10.878906 C 4.503906 -10.457031 1.53125 -8.753906 0.679688 -7.90625 C -0.339844 -6.96875 -0.339844 -6.121094 0.933594 -5.527344 C 1.191406 -5.441406 1.359375 -5.355469 1.613281 -5.269531 C 1.785156 -5.183594 1.957031 -5.101562 2.210938 -5.015625 C 2.976562 -4.761719 3.824219 -4.503906 4.503906 -4.164062 C 5.949219 -3.484375 6.121094 -3.398438 5.867188 -1.785156 C 5.78125 -0.511719 5.609375 0.851562 5.441406 2.125 C 5.269531 3.398438 5.101562 4.675781 4.929688 5.949219 C 4.84375 6.546875 4.675781 7.226562 4.929688 7.820312 C 5.101562 8.414062 5.441406 8.671875 5.949219 8.671875 Z M 5.949219 -6.207031 C 5.609375 -6.207031 5.355469 -6.289062 5.183594 -6.375 C 4.929688 -6.460938 4.761719 -6.546875 4.589844 -6.628906 C 4.335938 -6.714844 4.164062 -6.886719 3.910156 -6.96875 C 4.335938 -7.992188 5.441406 -8.414062 6.460938 -8.753906 C 7.054688 -8.160156 6.800781 -7.734375 6.714844 -7.140625 C 6.628906 -6.546875 6.375 -6.207031 5.949219 -6.207031 Z M 5.949219 -6.207031 "/></g></g></g><g clip-rule="nonzero" clip-path="url(#clip3)"><g clip-rule="nonzero" clip-path="url(#clip4)"><g clip-rule="nonzero" clip-path="url(#clip5)"><g clip-rule="nonzero" clip-path="url(#clip6)"><path style=" stroke:none;fill-rule:evenodd;fill:rgb(100%,59.999084%,59.999084%);fill-opacity:1;" d="M 253.359375 16.847656 C 253.386719 16.921875 253.460938 16.917969 253.492188 16.984375 C 253.644531 16.953125 253.640625 16.8125 253.769531 16.765625 C 253.703125 16.683594 253.714844 16.480469 253.5625 16.527344 C 253.542969 16.667969 253.285156 16.644531 253.359375 16.847656 Z M 252.820312 16.289062 C 253.136719 16.425781 253.148438 16.007812 253.210938 15.824219 C 252.921875 15.734375 252.773438 16.003906 252.820312 16.289062 Z M 253.699219 19.105469 C 253.226562 17.792969 252.464844 16.933594 251.464844 16.445312 C 251.726562 15.816406 252.265625 15.378906 252.640625 14.828125 C 253.640625 14.816406 254.769531 15.605469 255.082031 16.671875 C 255.484375 18.03125 254.425781 18.550781 253.699219 19.105469 "/></g></g></g></g><g clip-rule="nonzero" clip-path="url(#clip7)"><g clip-rule="nonzero" clip-path="url(#clip8)"><g clip-rule="nonzero" clip-path="url(#clip9)"><g clip-rule="nonzero" clip-path="url(#clip10)"><path style=" stroke:none;fill-rule:evenodd;fill:rgb(0%,0%,0%);fill-opacity:1;" d="M 253.210938 15.824219 C 253.148438 16.007812 253.136719 16.425781 252.820312 16.289062 C 252.773438 16.003906 252.921875 15.734375 253.210938 15.824219 "/></g></g></g></g><g clip-rule="nonzero" clip-path="url(#clip11)"><g clip-rule="nonzero" clip-path="url(#clip12)"><g clip-rule="nonzero" clip-path="url(#clip13)"><g clip-rule="nonzero" clip-path="url(#clip14)"><path style=" stroke:none;fill-rule:evenodd;fill:rgb(92.939758%,92.939758%,92.939758%);fill-opacity:1;" d="M 249.871094 18.640625 C 250.886719 18.792969 251.433594 19.984375 251.660156 20.949219 C 252.101562 20.753906 251.660156 20.148438 251.480469 19.765625 C 251.121094 19.003906 250.628906 18.328125 249.832031 18.429688 C 249.863281 18.574219 249.765625 18.554688 249.871094 18.640625 Z M 251.070312 17.960938 C 251.511719 18.261719 251.925781 18.742188 252.1875 19.292969 C 252.273438 19.472656 252.195312 19.816406 252.5 19.785156 C 252.636719 19.425781 252.300781 18.886719 252.03125 18.492188 C 251.820312 18.191406 251.472656 17.957031 251.296875 17.75 C 251.226562 17.769531 251.179688 17.75 251.132812 17.730469 C 251.152344 17.835938 251.003906 17.824219 251.070312 17.960938 Z M 253.660156 20.277344 C 253.179688 20.542969 252.847656 21.09375 252.847656 21.824219 C 252.660156 21.859375 252.472656 21.898438 252.28125 21.933594 C 252.074219 22.527344 251.675781 23.605469 250.851562 23.324219 C 250.820312 22.910156 251.183594 22.679688 251.226562 22.253906 C 251.429688 20.140625 249.234375 18.957031 247.648438 20.078125 C 247.542969 19.527344 247.671875 19.144531 247.941406 18.855469 C 248.910156 19.0625 249.203125 18.363281 249.355469 17.636719 C 249.5625 17.519531 249.644531 17.597656 249.917969 17.523438 C 250.253906 17.253906 249.988281 16.5625 250.625 16.5 C 251.707031 16.792969 252.980469 17.722656 253.441406 19.15625 C 253.570312 19.554688 253.488281 19.957031 253.660156 20.277344 "/></g></g></g></g><g clip-rule="nonzero" clip-path="url(#clip15)"><g clip-rule="nonzero" clip-path="url(#clip16)"><g clip-rule="nonzero" clip-path="url(#clip17)"><g clip-rule="nonzero" clip-path="url(#clip18)"><path style=" stroke:none;fill-rule:evenodd;fill:rgb(0%,0%,0%);fill-opacity:1;" d="M 253.5625 16.527344 C 253.714844 16.480469 253.703125 16.683594 253.769531 16.765625 C 253.640625 16.8125 253.644531 16.953125 253.492188 16.984375 C 253.460938 16.917969 253.386719 16.921875 253.359375 16.847656 C 253.285156 16.644531 253.542969 16.667969 253.5625 16.527344 "/></g></g></g></g><g clip-rule="nonzero" clip-path="url(#clip19)"><g clip-rule="nonzero" clip-path="url(#clip20)"><g clip-rule="nonzero" clip-path="url(#clip21)"><g clip-rule="nonzero" clip-path="url(#clip22)"><path style=" stroke:none;fill-rule:evenodd;fill:rgb(0%,0%,0%);fill-opacity:1;" d="M 251.132812 17.730469 C 251.179688 17.75 251.226562 17.769531 251.296875 17.75 C 251.472656 17.957031 251.820312 18.191406 252.03125 18.492188 C 252.300781 18.886719 252.636719 19.425781 252.5 19.785156 C 252.195312 19.816406 252.273438 19.472656 252.1875 19.292969 C 251.925781 18.742188 251.511719 18.261719 251.070312 17.960938 C 251.003906 17.824219 251.152344 17.835938 251.132812 17.730469 "/></g></g></g></g><g clip-rule="nonzero" clip-path="url(#clip23)"><g clip-rule="nonzero" clip-path="url(#clip24)"><g clip-rule="nonzero" clip-path="url(#clip25)"><g clip-rule="nonzero" clip-path="url(#clip26)"><path style=" stroke:none;fill-rule:evenodd;fill:rgb(0%,0%,0%);fill-opacity:1;" d="M 249.832031 18.429688 C 250.628906 18.328125 251.121094 19.003906 251.480469 19.765625 C 251.660156 20.148438 252.101562 20.753906 251.660156 20.949219 C 251.433594 19.984375 250.886719 18.792969 249.871094 18.640625 C 249.765625 18.554688 249.863281 18.574219 249.832031 18.429688 "/></g></g></g></g><g clip-rule="nonzero" clip-path="url(#clip27)"><g clip-rule="nonzero" clip-path="url(#clip28)"><g clip-rule="nonzero" clip-path="url(#clip29)"><g clip-rule="nonzero" clip-path="url(#clip30)"><path style=" stroke:none;fill-rule:evenodd;fill:rgb(100%,85.488892%,0%);fill-opacity:1;" d="M 248.460938 20.140625 C 247.730469 21.304688 246.78125 22.285156 245.886719 23.308594 C 244.027344 25.429688 242.460938 27.824219 240.472656 29.917969 C 240.234375 29.542969 239.867188 29.371094 239.320312 29.480469 C 240.347656 27.796875 241.84375 26.421875 243.210938 24.886719 C 244.179688 23.804688 245.253906 22.65625 246.402344 21.597656 C 247.023438 21.027344 247.46875 20.535156 248.296875 20.117188 C 248.34375 20.136719 248.390625 20.15625 248.460938 20.140625 "/></g></g></g></g><g clip-rule="nonzero" clip-path="url(#clip31)"><g clip-rule="nonzero" clip-path="url(#clip32)"><g clip-rule="nonzero" clip-path="url(#clip33)"><g clip-rule="nonzero" clip-path="url(#clip34)"><path style=" stroke:none;fill-rule:evenodd;fill:rgb(100%,87.449646%,25.099182%);fill-opacity:1;" d="M 247.941406 22.902344 C 248.105469 22.910156 248.046875 22.921875 248.195312 22.851562 C 248.210938 22.695312 248.289062 22.433594 248.144531 22.308594 C 247.839844 22.34375 247.921875 22.644531 247.941406 22.902344 Z M 248.453125 22.523438 C 248.496094 22.527344 248.554688 22.503906 248.566406 22.558594 C 248.8125 22.550781 248.769531 22.082031 248.53125 22.121094 C 248.546875 22.28125 248.347656 22.296875 248.453125 22.523438 Z M 250.644531 20.929688 C 248.898438 23.15625 246.824219 25.082031 244.949219 27.207031 C 243.835938 28.464844 242.839844 29.847656 241.585938 30.972656 C 241.40625 30.511719 241.140625 30.179688 240.554688 30.34375 C 243.367188 26.851562 246.183594 23.359375 249.117188 19.953125 C 249.820312 19.976562 250.273438 20.386719 250.644531 20.929688 "/></g></g></g></g><g clip-rule="nonzero" clip-path="url(#clip35)"><g clip-rule="nonzero" clip-path="url(#clip36)"><g clip-rule="nonzero" clip-path="url(#clip37)"><g clip-rule="nonzero" clip-path="url(#clip38)"><path style=" stroke:none;fill-rule:evenodd;fill:rgb(100%,85.488892%,0%);fill-opacity:1;" d="M 243.40625 31 C 243.664062 30.953125 243.632812 30.699219 243.558594 30.417969 C 243.460938 30.449219 243.429688 30.378906 243.339844 30.402344 C 243.371094 30.667969 243.265625 30.765625 243.40625 31 Z M 243.832031 30.195312 C 243.957031 30.1875 244.027344 30.148438 244.078125 30.089844 C 244.023438 29.96875 243.980469 29.824219 243.820312 29.867188 C 243.785156 30.015625 243.742188 30.046875 243.832031 30.195312 Z M 242.457031 32.40625 C 242.382812 31.917969 242.058594 31.585938 241.710938 31.335938 C 244.636719 27.996094 247.558594 24.660156 250.699219 21.472656 C 250.753906 21.453125 250.792969 21.464844 250.8125 21.503906 C 250.914062 21.976562 250.777344 22.277344 250.773438 22.675781 C 248.128906 26.007812 245.371094 29.261719 242.457031 32.40625 "/></g></g></g></g><g clip-rule="nonzero" clip-path="url(#clip39)"><g clip-rule="nonzero" clip-path="url(#clip40)"><g clip-rule="nonzero" clip-path="url(#clip41)"><g clip-rule="nonzero" clip-path="url(#clip42)"><path style=" stroke:none;fill-rule:evenodd;fill:rgb(0%,0%,0%);fill-opacity:1;" d="M 248.53125 22.121094 C 248.769531 22.082031 248.8125 22.550781 248.566406 22.558594 C 248.554688 22.503906 248.496094 22.527344 248.453125 22.523438 C 248.347656 22.296875 248.546875 22.28125 248.53125 22.121094 "/></g></g></g></g><g clip-rule="nonzero" clip-path="url(#clip43)"><g clip-rule="nonzero" clip-path="url(#clip44)"><g clip-rule="nonzero" clip-path="url(#clip45)"><g clip-rule="nonzero" clip-path="url(#clip46)"><path style=" stroke:none;fill-rule:evenodd;fill:rgb(0%,0%,0%);fill-opacity:1;" d="M 248.144531 22.308594 C 248.289062 22.433594 248.210938 22.695312 248.195312 22.851562 C 248.046875 22.921875 248.105469 22.910156 247.941406 22.902344 C 247.921875 22.644531 247.839844 22.34375 248.144531 22.308594 "/></g></g></g></g><g clip-rule="nonzero" clip-path="url(#clip47)"><g clip-rule="nonzero" clip-path="url(#clip48)"><g clip-rule="nonzero" clip-path="url(#clip49)"><g clip-rule="nonzero" clip-path="url(#clip50)"><path style=" stroke:none;fill-rule:evenodd;fill:rgb(98.81897%,97.648621%,90.979004%);fill-opacity:1;" d="M 239.265625 33.535156 C 239.308594 33.539062 239.335938 33.566406 239.339844 33.632812 C 239.910156 33.371094 240.238281 32.941406 240.617188 32.546875 C 240.054688 32.617188 239.59375 33.152344 239.265625 33.535156 Z M 237.605469 34.03125 C 237.875 34.226562 238.007812 33.753906 238.09375 33.542969 C 238.585938 33.0625 239.066406 32.421875 239.320312 31.917969 C 238.738281 32.429688 237.980469 33.21875 237.605469 34.03125 Z M 240.101562 29.933594 C 240.242188 30.265625 240.179688 30.523438 240.320312 30.777344 C 240.601562 30.757812 241.0625 30.574219 241.246094 30.871094 C 241.359375 31.195312 241.285156 31.390625 241.292969 31.640625 C 241.4375 31.785156 241.710938 31.730469 241.867188 31.859375 C 242.023438 32.105469 242.210938 32.433594 242.160156 32.796875 C 240.917969 33.804688 239.140625 34.34375 237.835938 35.203125 C 237.5 35.078125 237.269531 34.78125 236.929688 34.660156 C 237.0625 33.953125 237.453125 33.089844 237.78125 32.222656 C 238.046875 31.511719 238.628906 30.105469 239.125 29.851562 C 239.382812 29.71875 239.8125 29.773438 240.101562 29.933594 "/></g></g></g></g><g clip-rule="nonzero" clip-path="url(#clip51)"><g clip-rule="nonzero" clip-path="url(#clip52)"><g clip-rule="nonzero" clip-path="url(#clip53)"><g clip-rule="nonzero" clip-path="url(#clip54)"><path style=" stroke:none;fill-rule:evenodd;fill:rgb(0%,0%,0%);fill-opacity:1;" d="M 243.820312 29.867188 C 243.980469 29.824219 244.023438 29.96875 244.078125 30.089844 C 244.027344 30.148438 243.957031 30.1875 243.832031 30.195312 C 243.742188 30.046875 243.785156 30.015625 243.820312 29.867188 "/></g></g></g></g><g clip-rule="nonzero" clip-path="url(#clip55)"><g clip-rule="nonzero" clip-path="url(#clip56)"><g clip-rule="nonzero" clip-path="url(#clip57)"><g clip-rule="nonzero" clip-path="url(#clip58)"><path style=" stroke:none;fill-rule:evenodd;fill:rgb(0%,0%,0%);fill-opacity:1;" d="M 243.339844 30.402344 C 243.429688 30.378906 243.460938 30.449219 243.558594 30.417969 C 243.632812 30.699219 243.664062 30.953125 243.40625 31 C 243.265625 30.765625 243.371094 30.667969 243.339844 30.402344 "/></g></g></g></g><g clip-rule="nonzero" clip-path="url(#clip59)"><g clip-rule="nonzero" clip-path="url(#clip60)"><g clip-rule="nonzero" clip-path="url(#clip61)"><g clip-rule="nonzero" clip-path="url(#clip62)"><path style=" stroke:none;fill-rule:evenodd;fill:rgb(0%,0%,0%);fill-opacity:1;" d="M 239.320312 31.917969 C 239.066406 32.421875 238.585938 33.0625 238.09375 33.542969 C 238.007812 33.753906 237.875 34.226562 237.605469 34.03125 C 237.980469 33.21875 238.738281 32.429688 239.320312 31.917969 "/></g></g></g></g><g clip-rule="nonzero" clip-path="url(#clip63)"><g clip-rule="nonzero" clip-path="url(#clip64)"><g clip-rule="nonzero" clip-path="url(#clip65)"><g clip-rule="nonzero" clip-path="url(#clip66)"><path style=" stroke:none;fill-rule:evenodd;fill:rgb(0%,0%,0%);fill-opacity:1;" d="M 240.617188 32.546875 C 240.238281 32.941406 239.910156 33.371094 239.339844 33.632812 C 239.335938 33.566406 239.308594 33.539062 239.265625 33.535156 C 239.59375 33.152344 240.054688 32.617188 240.617188 32.546875 "/></g></g></g></g><g clip-rule="nonzero" clip-path="url(#clip67)"><g clip-rule="nonzero" clip-path="url(#clip68)"><g clip-rule="nonzero" clip-path="url(#clip69)"><g clip-rule="nonzero" clip-path="url(#clip70)"><path style=" stroke:none;fill-rule:evenodd;fill:rgb(0%,0%,0%);fill-opacity:1;" d="M 233.960938 37.1875 C 233.929688 37.578125 233.835938 37.929688 233.316406 37.976562 C 232.667969 37.59375 233.3125 36.933594 233.960938 37.1875 "/></g></g></g></g><g clip-rule="nonzero" clip-path="url(#clip71)"><g clip-rule="nonzero" clip-path="url(#clip72)"><g clip-rule="nonzero" clip-path="url(#clip73)"><g clip-rule="nonzero" clip-path="url(#clip74)"><g clip-rule="nonzero" clip-path="url(#clip75)"><g clip-rule="nonzero" clip-path="url(#clip76)"><path style=" stroke:none;fill-rule:evenodd;fill:rgb(0%,0%,0%);fill-opacity:1;" d="M 236.886719 36.886719 C 236.980469 37.273438 236.691406 37.394531 236.304688 37.445312 C 235.832031 37.101562 236.5 36.761719 236.886719 36.886719 "/></g></g></g></g></g></g><g clip-rule="nonzero" clip-path="url(#clip77)"><g clip-rule="nonzero" clip-path="url(#clip78)"><g clip-rule="nonzero" clip-path="url(#clip79)"><g clip-rule="nonzero" clip-path="url(#clip80)"><g clip-rule="nonzero" clip-path="url(#clip81)"><g clip-rule="nonzero" clip-path="url(#clip82)"><path style=" stroke:none;fill-rule:evenodd;fill:rgb(0%,0%,0%);fill-opacity:1;" d="M 239.125 29.851562 C 238.628906 30.105469 238.046875 31.511719 237.78125 32.222656 C 237.453125 33.089844 237.0625 33.953125 236.929688 34.660156 C 237.269531 34.78125 237.5 35.078125 237.835938 35.203125 C 239.140625 34.34375 240.917969 33.804688 242.160156 32.796875 C 242.210938 32.433594 242.023438 32.105469 241.867188 31.859375 C 241.710938 31.730469 241.4375 31.785156 241.292969 31.640625 C 241.285156 31.390625 241.359375 31.195312 241.246094 30.871094 C 241.0625 30.574219 240.601562 30.757812 240.320312 30.777344 C 240.179688 30.523438 240.242188 30.265625 240.101562 29.933594 C 239.8125 29.773438 239.382812 29.71875 239.125 29.851562 Z M 250.773438 22.675781 C 250.777344 22.277344 250.914062 21.976562 250.8125 21.503906 C 250.792969 21.464844 250.753906 21.453125 250.699219 21.472656 C 247.558594 24.660156 244.636719 27.996094 241.710938 31.335938 C 242.058594 31.585938 242.382812 31.917969 242.457031 32.40625 C 245.371094 29.261719 248.128906 26.007812 250.773438 22.675781 Z M 249.117188 19.953125 C 246.183594 23.359375 243.367188 26.851562 240.554688 30.34375 C 241.140625 30.179688 241.40625 30.511719 241.585938 30.972656 C 242.839844 29.847656 243.835938 28.464844 244.949219 27.207031 C 246.824219 25.082031 248.898438 23.15625 250.644531 20.929688 C 250.273438 20.386719 249.820312 19.976562 249.117188 19.953125 Z M 248.296875 20.117188 C 247.46875 20.535156 247.023438 21.027344 246.402344 21.597656 C 245.253906 22.65625 244.179688 23.804688 243.210938 24.886719 C 241.84375 26.421875 240.347656 27.796875 239.320312 29.480469 C 239.867188 29.371094 240.234375 29.542969 240.472656 29.917969 C 242.460938 27.824219 244.027344 25.429688 245.886719 23.308594 C 246.78125 22.285156 247.730469 21.304688 248.460938 20.140625 C 248.390625 20.15625 248.34375 20.136719 248.296875 20.117188 Z M 253.441406 19.15625 C 252.980469 17.722656 251.707031 16.792969 250.625 16.5 C 249.988281 16.5625 250.253906 17.253906 249.917969 17.523438 C 249.644531 17.597656 249.5625 17.519531 249.355469 17.636719 C 249.203125 18.363281 248.910156 19.0625 247.941406 18.855469 C 247.671875 19.144531 247.542969 19.527344 247.648438 20.078125 C 249.234375 18.957031 251.429688 20.140625 251.226562 22.253906 C 251.183594 22.679688 250.820312 22.910156 250.851562 23.324219 C 251.675781 23.605469 252.074219 22.527344 252.28125 21.933594 C 252.472656 21.898438 252.660156 21.859375 252.847656 21.824219 C 252.847656 21.09375 253.179688 20.542969 253.660156 20.277344 C 253.488281 19.957031 253.570312 19.554688 253.441406 19.15625 Z M 255.082031 16.671875 C 254.769531 15.605469 253.640625 14.816406 252.640625 14.828125 C 252.265625 15.378906 251.726562 15.816406 251.464844 16.445312 C 252.464844 16.933594 253.226562 17.792969 253.699219 19.105469 C 254.425781 18.550781 255.484375 18.03125 255.082031 16.671875 Z M 254.183594 19.675781 C 254.347656 20.171875 254.277344 20.507812 254.136719 20.792969 C 253.988281 20.867188 253.785156 21.066406 253.582031 20.957031 C 253.695312 21.757812 253.441406 22.296875 252.71875 22.515625 C 252.636719 23.011719 252.4375 23.421875 252.105469 23.742188 C 251.527344 24.097656 250.980469 23.816406 250.464844 24.066406 C 250.226562 24.179688 249.941406 24.660156 249.644531 25.058594 C 248.902344 26.066406 247.984375 27.070312 247.222656 27.917969 C 246.671875 28.539062 246.183594 29.257812 245.578125 29.851562 C 244.300781 31.109375 243.292969 32.441406 242.132812 33.746094 C 240.453125 34.257812 238.953125 35.386719 237.285156 36.199219 C 236.890625 36.390625 236.421875 36.574219 236.011719 36.503906 C 235.753906 36.609375 235.675781 36.910156 235.367188 36.742188 C 235.457031 36.269531 235.757812 35.941406 235.988281 35.566406 C 236.015625 35.023438 236.203125 34.503906 236.371094 33.996094 C 236.71875 32.933594 237.058594 31.949219 237.527344 30.941406 C 238.027344 29.875 238.535156 29.101562 239.332031 28.203125 C 241.667969 25.570312 244.207031 22.675781 246.828125 20.242188 C 246.566406 19.195312 247.042969 17.980469 248.308594 18.285156 C 248.511719 17.875 248.511719 17.324219 248.859375 17.015625 C 249.042969 17.003906 249.179688 17.074219 249.394531 17.019531 C 249.574219 16.398438 250.140625 15.339844 250.847656 16.011719 C 251.472656 15.445312 251.75 14.175781 252.84375 14.234375 C 253.019531 14.265625 252.847656 14.054688 253.027344 14.085938 C 254.351562 14.222656 255.40625 15.300781 255.78125 16.699219 C 256.199219 18.25 254.996094 18.820312 254.183594 19.675781 "/></g></g></g></g></g></g></g></svg>