<?xml version="1.0" encoding="UTF-8"?><svg xmlns="http://www.w3.org/2000/svg" xmlns:xlink="http://www.w3.org/1999/xlink" contentScriptType="text/ecmascript" width="375pt" zoomAndPan="magnify" contentStyleType="text/css" viewBox="0 0 375 63.749997" height="63.749997pt" preserveAspectRatio="xMidYMid meet" version="1.2"><defs><g/><clipPath xml:id="clip1" id="clip1"><path d="M 110 5 L 179 5 L 179 63.5 L 110 63.5 Z M 110 5 "/></clipPath><clipPath xml:id="clip2" id="clip2"><path d="M 173 1 L 227 1 L 227 63.5 L 173 63.5 Z M 173 1 "/></clipPath><clipPath xml:id="clip3" id="clip3"><path d="M 268 3 L 272 3 L 272 7 L 268 7 Z M 268 3 "/></clipPath><clipPath xml:id="clip4" id="clip4"><path d="M 253.535156 5.984375 L 271.125 2.515625 L 273.582031 14.972656 L 255.992188 18.445312 Z M 253.535156 5.984375 "/></clipPath><clipPath xml:id="clip5" id="clip5"><path d="M 253.535156 5.984375 L 271.125 2.515625 L 273.582031 14.972656 L 255.992188 18.445312 Z M 253.535156 5.984375 "/></clipPath><clipPath xml:id="clip6" id="clip6"><path d="M 253.535156 5.984375 L 271.460938 2.449219 L 273.96875 15.140625 L 256.039062 18.679688 Z M 253.535156 5.984375 "/></clipPath><clipPath xml:id="clip7" id="clip7"><path d="M 269 3 L 271 3 L 271 5 L 269 5 Z M 269 3 "/></clipPath><clipPath xml:id="clip8" id="clip8"><path d="M 253.535156 5.984375 L 271.125 2.515625 L 273.582031 14.972656 L 255.992188 18.445312 Z M 253.535156 5.984375 "/></clipPath><clipPath xml:id="clip9" id="clip9"><path d="M 253.535156 5.984375 L 271.125 2.515625 L 273.582031 14.972656 L 255.992188 18.445312 Z M 253.535156 5.984375 "/></clipPath><clipPath xml:id="clip10" id="clip10"><path d="M 253.535156 5.984375 L 271.460938 2.449219 L 273.96875 15.140625 L 256.039062 18.679688 Z M 253.535156 5.984375 "/></clipPath><clipPath xml:id="clip11" id="clip11"><path d="M 266 4 L 271 4 L 271 9 L 266 9 Z M 266 4 "/></clipPath><clipPath xml:id="clip12" id="clip12"><path d="M 253.535156 5.984375 L 271.125 2.515625 L 273.582031 14.972656 L 255.992188 18.445312 Z M 253.535156 5.984375 "/></clipPath><clipPath xml:id="clip13" id="clip13"><path d="M 253.535156 5.984375 L 271.125 2.515625 L 273.582031 14.972656 L 255.992188 18.445312 Z M 253.535156 5.984375 "/></clipPath><clipPath xml:id="clip14" id="clip14"><path d="M 253.535156 5.984375 L 271.460938 2.449219 L 273.96875 15.140625 L 256.039062 18.679688 Z M 253.535156 5.984375 "/></clipPath><clipPath xml:id="clip15" id="clip15"><path d="M 270 4 L 271 4 L 271 5 L 270 5 Z M 270 4 "/></clipPath><clipPath xml:id="clip16" id="clip16"><path d="M 253.535156 5.984375 L 271.125 2.515625 L 273.582031 14.972656 L 255.992188 18.445312 Z M 253.535156 5.984375 "/></clipPath><clipPath xml:id="clip17" id="clip17"><path d="M 253.535156 5.984375 L 271.125 2.515625 L 273.582031 14.972656 L 255.992188 18.445312 Z M 253.535156 5.984375 "/></clipPath><clipPath xml:id="clip18" id="clip18"><path d="M 253.535156 5.984375 L 271.460938 2.449219 L 273.96875 15.140625 L 256.039062 18.679688 Z M 253.535156 5.984375 "/></clipPath><clipPath xml:id="clip19" id="clip19"><path d="M 268 5 L 270 5 L 270 7 L 268 7 Z M 268 5 "/></clipPath><clipPath xml:id="clip20" id="clip20"><path d="M 253.535156 5.984375 L 271.125 2.515625 L 273.582031 14.972656 L 255.992188 18.445312 Z M 253.535156 5.984375 "/></clipPath><clipPath xml:id="clip21" id="clip21"><path d="M 253.535156 5.984375 L 271.125 2.515625 L 273.582031 14.972656 L 255.992188 18.445312 Z M 253.535156 5.984375 "/></clipPath><clipPath xml:id="clip22" id="clip22"><path d="M 253.535156 5.984375 L 271.460938 2.449219 L 273.96875 15.140625 L 256.039062 18.679688 Z M 253.535156 5.984375 "/></clipPath><clipPath xml:id="clip23" id="clip23"><path d="M 267 5 L 270 5 L 270 8 L 267 8 Z M 267 5 "/></clipPath><clipPath xml:id="clip24" id="clip24"><path d="M 253.535156 5.984375 L 271.125 2.515625 L 273.582031 14.972656 L 255.992188 18.445312 Z M 253.535156 5.984375 "/></clipPath><clipPath xml:id="clip25" id="clip25"><path d="M 253.535156 5.984375 L 271.125 2.515625 L 273.582031 14.972656 L 255.992188 18.445312 Z M 253.535156 5.984375 "/></clipPath><clipPath xml:id="clip26" id="clip26"><path d="M 253.535156 5.984375 L 271.460938 2.449219 L 273.96875 15.140625 L 256.039062 18.679688 Z M 253.535156 5.984375 "/></clipPath><clipPath xml:id="clip27" id="clip27"><path d="M 260 6 L 267 6 L 267 14 L 260 14 Z M 260 6 "/></clipPath><clipPath xml:id="clip28" id="clip28"><path d="M 253.535156 5.984375 L 271.125 2.515625 L 273.582031 14.972656 L 255.992188 18.445312 Z M 253.535156 5.984375 "/></clipPath><clipPath xml:id="clip29" id="clip29"><path d="M 253.535156 5.984375 L 271.125 2.515625 L 273.582031 14.972656 L 255.992188 18.445312 Z M 253.535156 5.984375 "/></clipPath><clipPath xml:id="clip30" id="clip30"><path d="M 253.535156 5.984375 L 271.460938 2.449219 L 273.96875 15.140625 L 256.039062 18.679688 Z M 253.535156 5.984375 "/></clipPath><clipPath xml:id="clip31" id="clip31"><path d="M 261 6 L 269 6 L 269 14 L 261 14 Z M 261 6 "/></clipPath><clipPath xml:id="clip32" id="clip32"><path d="M 253.535156 5.984375 L 271.125 2.515625 L 273.582031 14.972656 L 255.992188 18.445312 Z M 253.535156 5.984375 "/></clipPath><clipPath xml:id="clip33" id="clip33"><path d="M 253.535156 5.984375 L 271.125 2.515625 L 273.582031 14.972656 L 255.992188 18.445312 Z M 253.535156 5.984375 "/></clipPath><clipPath xml:id="clip34" id="clip34"><path d="M 253.535156 5.984375 L 271.460938 2.449219 L 273.96875 15.140625 L 256.039062 18.679688 Z M 253.535156 5.984375 "/></clipPath><clipPath xml:id="clip35" id="clip35"><path d="M 262 7 L 269 7 L 269 15 L 262 15 Z M 262 7 "/></clipPath><clipPath xml:id="clip36" id="clip36"><path d="M 253.535156 5.984375 L 271.125 2.515625 L 273.582031 14.972656 L 255.992188 18.445312 Z M 253.535156 5.984375 "/></clipPath><clipPath xml:id="clip37" id="clip37"><path d="M 253.535156 5.984375 L 271.125 2.515625 L 273.582031 14.972656 L 255.992188 18.445312 Z M 253.535156 5.984375 "/></clipPath><clipPath xml:id="clip38" id="clip38"><path d="M 253.535156 5.984375 L 271.460938 2.449219 L 273.96875 15.140625 L 256.039062 18.679688 Z M 253.535156 5.984375 "/></clipPath><clipPath xml:id="clip39" id="clip39"><path d="M 266 8 L 268 8 L 268 9 L 266 9 Z M 266 8 "/></clipPath><clipPath xml:id="clip40" id="clip40"><path d="M 253.535156 5.984375 L 271.125 2.515625 L 273.582031 14.972656 L 255.992188 18.445312 Z M 253.535156 5.984375 "/></clipPath><clipPath xml:id="clip41" id="clip41"><path d="M 253.535156 5.984375 L 271.125 2.515625 L 273.582031 14.972656 L 255.992188 18.445312 Z M 253.535156 5.984375 "/></clipPath><clipPath xml:id="clip42" id="clip42"><path d="M 253.535156 5.984375 L 271.460938 2.449219 L 273.96875 15.140625 L 256.039062 18.679688 Z M 253.535156 5.984375 "/></clipPath><clipPath xml:id="clip43" id="clip43"><path d="M 266 8 L 267 8 L 267 9 L 266 9 Z M 266 8 "/></clipPath><clipPath xml:id="clip44" id="clip44"><path d="M 253.535156 5.984375 L 271.125 2.515625 L 273.582031 14.972656 L 255.992188 18.445312 Z M 253.535156 5.984375 "/></clipPath><clipPath xml:id="clip45" id="clip45"><path d="M 253.535156 5.984375 L 271.125 2.515625 L 273.582031 14.972656 L 255.992188 18.445312 Z M 253.535156 5.984375 "/></clipPath><clipPath xml:id="clip46" id="clip46"><path d="M 253.535156 5.984375 L 271.460938 2.449219 L 273.96875 15.140625 L 256.039062 18.679688 Z M 253.535156 5.984375 "/></clipPath><clipPath xml:id="clip47" id="clip47"><path d="M 258 13 L 263 13 L 263 17 L 258 17 Z M 258 13 "/></clipPath><clipPath xml:id="clip48" id="clip48"><path d="M 253.535156 5.984375 L 271.125 2.515625 L 273.582031 14.972656 L 255.992188 18.445312 Z M 253.535156 5.984375 "/></clipPath><clipPath xml:id="clip49" id="clip49"><path d="M 253.535156 5.984375 L 271.125 2.515625 L 273.582031 14.972656 L 255.992188 18.445312 Z M 253.535156 5.984375 "/></clipPath><clipPath xml:id="clip50" id="clip50"><path d="M 253.535156 5.984375 L 271.460938 2.449219 L 273.96875 15.140625 L 256.039062 18.679688 Z M 253.535156 5.984375 "/></clipPath><clipPath xml:id="clip51" id="clip51"><path d="M 263 13 L 264 13 L 264 14 L 263 14 Z M 263 13 "/></clipPath><clipPath xml:id="clip52" id="clip52"><path d="M 253.535156 5.984375 L 271.125 2.515625 L 273.582031 14.972656 L 255.992188 18.445312 Z M 253.535156 5.984375 "/></clipPath><clipPath xml:id="clip53" id="clip53"><path d="M 253.535156 5.984375 L 271.125 2.515625 L 273.582031 14.972656 L 255.992188 18.445312 Z M 253.535156 5.984375 "/></clipPath><clipPath xml:id="clip54" id="clip54"><path d="M 253.535156 5.984375 L 271.460938 2.449219 L 273.96875 15.140625 L 256.039062 18.679688 Z M 253.535156 5.984375 "/></clipPath><clipPath xml:id="clip55" id="clip55"><path d="M 259 14 L 261 14 L 261 16 L 259 16 Z M 259 14 "/></clipPath><clipPath xml:id="clip56" id="clip56"><path d="M 253.535156 5.984375 L 271.125 2.515625 L 273.582031 14.972656 L 255.992188 18.445312 Z M 253.535156 5.984375 "/></clipPath><clipPath xml:id="clip57" id="clip57"><path d="M 253.535156 5.984375 L 271.125 2.515625 L 273.582031 14.972656 L 255.992188 18.445312 Z M 253.535156 5.984375 "/></clipPath><clipPath xml:id="clip58" id="clip58"><path d="M 253.535156 5.984375 L 271.460938 2.449219 L 273.96875 15.140625 L 256.039062 18.679688 Z M 253.535156 5.984375 "/></clipPath><clipPath xml:id="clip59" id="clip59"><path d="M 260 14 L 262 14 L 262 16 L 260 16 Z M 260 14 "/></clipPath><clipPath xml:id="clip60" id="clip60"><path d="M 253.535156 5.984375 L 271.125 2.515625 L 273.582031 14.972656 L 255.992188 18.445312 Z M 253.535156 5.984375 "/></clipPath><clipPath xml:id="clip61" id="clip61"><path d="M 253.535156 5.984375 L 271.125 2.515625 L 273.582031 14.972656 L 255.992188 18.445312 Z M 253.535156 5.984375 "/></clipPath><clipPath xml:id="clip62" id="clip62"><path d="M 253.535156 5.984375 L 271.460938 2.449219 L 273.96875 15.140625 L 256.039062 18.679688 Z M 253.535156 5.984375 "/></clipPath><clipPath xml:id="clip63" id="clip63"><path d="M 256 18 L 257 18 L 257 19 L 256 19 Z M 256 18 "/></clipPath><clipPath xml:id="clip64" id="clip64"><path d="M 253.535156 5.984375 L 271.125 2.515625 L 273.582031 14.972656 L 255.992188 18.445312 Z M 253.535156 5.984375 "/></clipPath><clipPath xml:id="clip65" id="clip65"><path d="M 253.535156 5.984375 L 271.125 2.515625 L 273.582031 14.972656 L 255.992188 18.445312 Z M 253.535156 5.984375 "/></clipPath><clipPath xml:id="clip66" id="clip66"><path d="M 253.535156 5.984375 L 271.460938 2.449219 L 273.96875 15.140625 L 256.039062 18.679688 Z M 253.535156 5.984375 "/></clipPath><clipPath xml:id="clip67" id="clip67"><path d="M 258 17 L 259 17 L 259 19 L 258 19 Z M 258 17 "/></clipPath><clipPath xml:id="clip68" id="clip68"><path d="M 253.535156 5.984375 L 271.125 2.515625 L 273.582031 14.972656 L 255.992188 18.445312 Z M 253.535156 5.984375 "/></clipPath><clipPath xml:id="clip69" id="clip69"><path d="M 253.535156 5.984375 L 271.125 2.515625 L 273.582031 14.972656 L 255.992188 18.445312 Z M 253.535156 5.984375 "/></clipPath><clipPath xml:id="clip70" id="clip70"><path d="M 253.535156 5.984375 L 271.460938 2.449219 L 273.96875 15.140625 L 256.039062 18.679688 Z M 253.535156 5.984375 "/></clipPath><clipPath xml:id="clip71" id="clip71"><path d="M 258.308594 17.871094 L 258.851562 17.765625 L 258.921875 18.109375 L 258.375 18.21875 Z M 258.308594 17.871094 "/></clipPath><clipPath xml:id="clip72" id="clip72"><path d="M 258.308594 17.871094 L 258.851562 17.765625 L 258.921875 18.109375 L 258.375 18.21875 Z M 258.308594 17.871094 "/></clipPath><clipPath xml:id="clip73" id="clip73"><path d="M 257 2 L 272 2 L 272 18 L 257 18 Z M 257 2 "/></clipPath><clipPath xml:id="clip74" id="clip74"><path d="M 253.535156 5.984375 L 271.125 2.515625 L 273.582031 14.972656 L 255.992188 18.445312 Z M 253.535156 5.984375 "/></clipPath><clipPath xml:id="clip75" id="clip75"><path d="M 253.535156 5.984375 L 271.125 2.515625 L 273.582031 14.972656 L 255.992188 18.445312 Z M 253.535156 5.984375 "/></clipPath><clipPath xml:id="clip76" id="clip76"><path d="M 253.535156 5.984375 L 271.460938 2.449219 L 273.96875 15.140625 L 256.039062 18.679688 Z M 253.535156 5.984375 "/></clipPath><clipPath xml:id="clip77" id="clip77"><path d="M 255.417969 5.613281 L 271.460938 2.449219 L 273.867188 14.636719 L 257.824219 17.800781 Z M 255.417969 5.613281 "/></clipPath><clipPath xml:id="clip78" id="clip78"><path d="M 255.417969 5.613281 L 271.457031 2.449219 L 273.859375 14.636719 L 257.824219 17.800781 Z M 255.417969 5.613281 "/></clipPath><clipPath xml:id="clip79" id="clip79"><path d="M 220 8.46875 L 259.941406 8.46875 L 259.941406 40.992188 L 220 40.992188 Z M 220 8.46875 "/></clipPath></defs><g xml:id="surface1" id="surface1"><g clip-rule="nonzero" clip-path="url(#clip1)"><g style="fill:rgb(0%,33.729553%,52.549744%);fill-opacity:1;"><g transform="translate(110.135071, 55.102403)"><path style="stroke:none;" d="M 1.480469 9.675781 C 1.917969 9.675781 2.265625 9.5 2.613281 9.152344 C 3.226562 8.453125 3.746094 7.667969 4.183594 6.796875 C 4.792969 5.664062 5.316406 4.621094 5.839844 3.484375 C 6.273438 2.351562 6.796875 1.308594 7.320312 0.175781 C 8.453125 -2.351562 9.675781 -4.792969 10.808594 -7.320312 C 11.941406 -9.761719 13.074219 -12.203125 14.207031 -14.640625 C 18.214844 -22.921875 24.753906 -33.816406 32.160156 -39.394531 C 32.421875 -39.484375 32.597656 -39.65625 32.859375 -39.832031 C 33.121094 -39.917969 33.382812 -40.09375 33.644531 -40.179688 L 33.816406 -40.179688 C 34.078125 -40.179688 34.253906 -40.09375 34.253906 -39.832031 C 34.253906 -39.484375 34.253906 -39.132812 34.253906 -38.785156 C 34.253906 -38.4375 34.164062 -38.089844 34.078125 -37.828125 C 33.730469 -35.386719 33.03125 -33.03125 32.335938 -30.679688 C 31.203125 -26.933594 29.980469 -23.183594 28.9375 -19.4375 C 28.238281 -16.734375 27.714844 -14.121094 27.453125 -11.070312 C 27.542969 -10.808594 27.542969 -10.457031 27.542969 -10.109375 C 27.453125 -9.761719 27.542969 -9.414062 27.628906 -9.0625 C 27.890625 -7.582031 28.585938 -6.886719 29.632812 -6.886719 C 30.15625 -6.886719 30.679688 -7.058594 31.203125 -7.410156 C 31.988281 -7.84375 32.769531 -8.542969 33.554688 -9.5 C 34.515625 -10.71875 35.472656 -11.941406 36.34375 -13.074219 C 38.523438 -16.125 40.703125 -18.824219 43.144531 -21.527344 C 43.578125 -21.875 43.925781 -22.226562 44.277344 -22.660156 C 44.625 -23.007812 45.0625 -23.359375 45.496094 -23.621094 C 45.933594 -23.882812 46.28125 -24.054688 46.542969 -24.054688 C 47.589844 -24.054688 47.761719 -22.398438 48.023438 -21.613281 C 48.109375 -20.832031 48.285156 -20.132812 48.371094 -19.4375 C 48.460938 -18.652344 48.632812 -17.867188 48.722656 -17.082031 C 48.894531 -16.035156 49.070312 -14.992188 49.246094 -13.945312 C 49.417969 -12.8125 49.59375 -11.765625 49.855469 -10.632812 C 50.378906 -8.191406 52.644531 -4.878906 55.171875 -4.878906 C 55.867188 -4.878906 56.738281 -5.140625 57.785156 -5.578125 C 59.703125 -6.625 67.375 -16.125 68.070312 -18.304688 C 68.15625 -18.738281 68.070312 -19 67.632812 -19.175781 C 67.546875 -19.261719 67.285156 -19.347656 67.023438 -19.347656 C 66.761719 -19.347656 66.675781 -19.347656 66.589844 -19.261719 C 66.328125 -19.175781 66.152344 -19 65.890625 -18.738281 C 63.710938 -15.777344 61.96875 -13.421875 60.660156 -11.59375 C 59.355469 -9.761719 58.394531 -8.714844 57.960938 -8.367188 C 57 -7.582031 56.128906 -7.234375 55.34375 -7.234375 C 52.554688 -7.234375 51.859375 -11.851562 51.335938 -14.382812 L 50.289062 -22.050781 C 49.855469 -24.402344 49.15625 -26.410156 46.367188 -26.410156 C 45.410156 -26.320312 44.625 -25.972656 43.839844 -25.277344 C 42.53125 -24.144531 41.488281 -23.097656 40.441406 -21.789062 C 38 -19.085938 35.996094 -16.386719 33.816406 -13.507812 C 33.03125 -12.375 32.074219 -11.332031 31.117188 -10.285156 C 30.941406 -10.023438 30.679688 -9.847656 30.417969 -9.847656 C 30.242188 -9.847656 30.15625 -9.847656 30.070312 -9.9375 C 29.808594 -10.109375 29.722656 -10.457031 29.722656 -10.894531 C 29.722656 -12.898438 30.15625 -14.730469 30.59375 -16.558594 C 31.550781 -20.480469 32.597656 -24.230469 33.90625 -28.066406 C 34.863281 -31.117188 35.734375 -34.078125 36.34375 -37.128906 C 36.605469 -38.4375 36.695312 -39.832031 36.433594 -41.136719 C 36.082031 -42.53125 35.210938 -42.882812 33.90625 -42.882812 C 33.644531 -42.792969 33.382812 -42.707031 33.121094 -42.621094 C 32.859375 -42.53125 32.597656 -42.359375 32.335938 -42.273438 C 22.835938 -35.910156 15.339844 -22.660156 10.546875 -12.375 C 9.585938 -10.199219 8.542969 -8.105469 7.582031 -5.925781 C 6.625 -3.746094 5.578125 -1.570312 4.621094 0.609375 C 4.445312 1.046875 4.269531 1.480469 4.097656 1.917969 C 3.835938 2.351562 3.660156 2.789062 3.484375 3.226562 C 3.398438 3.3125 3.3125 3.484375 3.226562 3.660156 C 3.136719 3.835938 2.964844 3.921875 2.703125 3.921875 C 2.441406 3.921875 2.265625 3.835938 2.351562 3.660156 C 2.351562 3.398438 2.351562 3.226562 2.351562 3.050781 C 2.351562 2.703125 2.441406 2.265625 2.527344 1.65625 C 3.226562 -3.921875 4.359375 -9.238281 6.015625 -14.46875 C 7.148438 -18.304688 8.367188 -22.136719 9.675781 -25.886719 C 10.894531 -29.632812 12.113281 -33.46875 13.335938 -37.304688 C 13.945312 -39.132812 14.46875 -40.878906 14.992188 -42.707031 C 15.425781 -44.449219 16.035156 -46.195312 16.734375 -47.9375 C 16.996094 -48.546875 16.910156 -49.070312 16.296875 -49.417969 C 16.210938 -49.503906 16.125 -49.503906 15.863281 -49.503906 C 15.515625 -49.503906 15.164062 -49.332031 14.816406 -48.894531 C 14.554688 -48.460938 14.292969 -47.9375 14.121094 -47.5 C 13.945312 -46.976562 13.769531 -46.457031 13.597656 -46.019531 L 8.105469 -28.585938 C 5.664062 -20.917969 3.136719 -13.507812 1.480469 -5.578125 C 0.695312 -1.742188 -0.0859375 1.917969 0 6.015625 C 0 6.449219 0 6.796875 0 7.234375 C 0 7.667969 0.0859375 8.105469 0.175781 8.542969 C 0.347656 9.324219 0.785156 9.675781 1.480469 9.675781 Z M 1.480469 9.675781 "/></g></g></g><g clip-rule="nonzero" clip-path="url(#clip2)"><g style="fill:rgb(0%,33.729553%,52.549744%);fill-opacity:1;"><g transform="translate(173.826623, 55.102403)"><path style="stroke:none;" d="M 6.101562 8.890625 C 6.363281 8.890625 6.710938 8.714844 7.058594 8.367188 C 7.757812 7.320312 7.757812 6.1875 7.410156 4.792969 L 8.191406 -0.871094 C 8.28125 -1.394531 8.542969 -1.65625 8.890625 -1.65625 C 9.238281 -1.65625 11.070312 -0.695312 11.417969 -0.4375 C 14.292969 1.132812 19.785156 3.226562 23.097656 3.226562 C 29.109375 3.226562 36.867188 -2.179688 41.050781 -6.363281 C 42.707031 -7.929688 44.363281 -9.5 46.019531 -11.15625 C 47.589844 -12.726562 49.246094 -14.292969 50.898438 -15.863281 C 51.335938 -16.296875 51.683594 -16.648438 51.859375 -16.910156 C 52.730469 -17.867188 52.90625 -18.566406 52.382812 -19.175781 C 52.207031 -19.347656 52.035156 -19.4375 51.859375 -19.4375 C 51.421875 -19.4375 50.898438 -19.085938 50.289062 -18.476562 L 40.09375 -8.542969 C 35.734375 -4.621094 29.109375 0.957031 23.097656 0.957031 C 20.046875 0.957031 11.070312 -2.265625 8.976562 -4.792969 C 9.0625 -5.578125 9.0625 -6.273438 9.152344 -7.058594 C 9.238281 -7.757812 9.238281 -8.453125 9.324219 -9.238281 C 9.5 -10.546875 10.109375 -11.503906 11.242188 -12.289062 C 18.128906 -16.820312 25.101562 -22.226562 31.117188 -28.5 C 37.128906 -34.6875 42.359375 -41.660156 45.757812 -49.332031 C 46.195312 -50.378906 46.628906 -51.511719 46.714844 -52.644531 C 46.714844 -53.253906 46.457031 -53.601562 45.933594 -53.6875 C 45.84375 -53.6875 45.84375 -53.6875 45.84375 -53.777344 C 45.757812 -53.777344 45.757812 -53.777344 45.671875 -53.777344 C 45.410156 -53.777344 45.148438 -53.515625 44.886719 -53.078125 C 42.621094 -44.1875 31.289062 -31.117188 24.492188 -25.277344 C 20.742188 -21.875 16.734375 -19 12.636719 -15.949219 C 12.375 -15.863281 12.113281 -15.6875 11.941406 -15.515625 C 11.679688 -15.339844 11.417969 -15.164062 11.15625 -15.078125 C 11.070312 -14.992188 10.980469 -14.992188 10.894531 -14.992188 C 10.546875 -14.992188 10.371094 -15.164062 10.371094 -15.515625 C 10.371094 -15.777344 10.371094 -16.125 10.371094 -16.386719 C 10.371094 -16.648438 10.371094 -16.910156 10.457031 -17.171875 C 11.941406 -26.84375 13.859375 -35.820312 16.648438 -45.234375 C 16.734375 -45.671875 16.910156 -46.019531 16.996094 -46.367188 C 17.082031 -46.714844 17.171875 -47.066406 17.257812 -47.414062 C 17.34375 -48.023438 17.171875 -48.371094 16.734375 -48.632812 C 16.648438 -48.632812 16.648438 -48.632812 16.558594 -48.722656 C 16.472656 -48.722656 16.472656 -48.722656 16.386719 -48.722656 C 15.863281 -48.722656 15.515625 -48.460938 15.339844 -48.023438 C 15.078125 -47.414062 14.730469 -46.714844 14.46875 -45.84375 C 11.417969 -35.648438 9.152344 -25.277344 7.84375 -14.730469 C 7.582031 -12.988281 6.886719 -11.941406 5.492188 -11.15625 C 4.621094 -10.71875 1.570312 -8.976562 0.695312 -8.105469 C -0.347656 -7.148438 -0.347656 -6.273438 0.957031 -5.664062 C 1.21875 -5.578125 1.394531 -5.492188 1.65625 -5.402344 C 1.832031 -5.316406 2.003906 -5.230469 2.265625 -5.140625 C 3.050781 -4.878906 3.921875 -4.621094 4.621094 -4.269531 C 6.101562 -3.574219 6.273438 -3.484375 6.015625 -1.832031 C 5.925781 -0.523438 5.753906 0.871094 5.578125 2.179688 C 5.402344 3.484375 5.230469 4.792969 5.054688 6.101562 C 4.96875 6.710938 4.792969 7.410156 5.054688 8.019531 C 5.230469 8.628906 5.578125 8.890625 6.101562 8.890625 Z M 6.101562 -6.363281 C 5.753906 -6.363281 5.492188 -6.449219 5.316406 -6.535156 C 5.054688 -6.625 4.878906 -6.710938 4.707031 -6.796875 C 4.445312 -6.886719 4.269531 -7.058594 4.007812 -7.148438 C 4.445312 -8.191406 5.578125 -8.628906 6.625 -8.976562 C 7.234375 -8.367188 6.972656 -7.929688 6.886719 -7.320312 C 6.796875 -6.710938 6.535156 -6.363281 6.101562 -6.363281 Z M 6.101562 -6.363281 "/></g></g></g><g clip-rule="nonzero" clip-path="url(#clip3)"><g clip-rule="nonzero" clip-path="url(#clip4)"><g clip-rule="nonzero" clip-path="url(#clip5)"><g clip-rule="nonzero" clip-path="url(#clip6)"><path style=" stroke:none;fill-rule:evenodd;fill:rgb(100%,59.999084%,59.999084%);fill-opacity:1;" d="M 270.191406 4.5625 C 270.210938 4.609375 270.261719 4.609375 270.28125 4.652344 C 270.386719 4.632812 270.382812 4.539062 270.472656 4.507812 C 270.429688 4.453125 270.4375 4.320312 270.332031 4.351562 C 270.320312 4.445312 270.144531 4.429688 270.191406 4.5625 Z M 269.828125 4.195312 C 270.042969 4.285156 270.050781 4.011719 270.097656 3.890625 C 269.898438 3.832031 269.796875 4.007812 269.828125 4.195312 Z M 270.414062 6.046875 C 270.097656 5.1875 269.582031 4.625 268.902344 4.308594 C 269.085938 3.890625 269.453125 3.601562 269.710938 3.238281 C 270.394531 3.226562 271.160156 3.738281 271.371094 4.4375 C 271.636719 5.332031 270.910156 5.675781 270.414062 6.046875 "/></g></g></g></g><g clip-rule="nonzero" clip-path="url(#clip7)"><g clip-rule="nonzero" clip-path="url(#clip8)"><g clip-rule="nonzero" clip-path="url(#clip9)"><g clip-rule="nonzero" clip-path="url(#clip10)"><path style=" stroke:none;fill-rule:evenodd;fill:rgb(0%,0%,0%);fill-opacity:1;" d="M 270.097656 3.890625 C 270.050781 4.011719 270.042969 4.285156 269.828125 4.195312 C 269.796875 4.007812 269.898438 3.832031 270.097656 3.890625 "/></g></g></g></g><g clip-rule="nonzero" clip-path="url(#clip11)"><g clip-rule="nonzero" clip-path="url(#clip12)"><g clip-rule="nonzero" clip-path="url(#clip13)"><g clip-rule="nonzero" clip-path="url(#clip14)"><path style=" stroke:none;fill-rule:evenodd;fill:rgb(92.939758%,92.939758%,92.939758%);fill-opacity:1;" d="M 267.804688 5.761719 C 268.496094 5.855469 268.863281 6.636719 269.015625 7.269531 C 269.316406 7.140625 269.019531 6.742188 268.898438 6.492188 C 268.65625 5.992188 268.324219 5.550781 267.777344 5.621094 C 267.800781 5.714844 267.734375 5.703125 267.804688 5.761719 Z M 268.625 5.308594 C 268.925781 5.503906 269.207031 5.816406 269.382812 6.179688 C 269.4375 6.296875 269.386719 6.523438 269.589844 6.5 C 269.6875 6.261719 269.460938 5.910156 269.277344 5.652344 C 269.136719 5.453125 268.898438 5.300781 268.78125 5.167969 C 268.734375 5.179688 268.699219 5.167969 268.667969 5.152344 C 268.683594 5.222656 268.582031 5.21875 268.625 5.308594 Z M 270.382812 6.816406 C 270.054688 6.996094 269.824219 7.359375 269.820312 7.839844 C 269.691406 7.863281 269.5625 7.890625 269.433594 7.914062 C 269.289062 8.308594 269.011719 9.019531 268.449219 8.835938 C 268.433594 8.566406 268.679688 8.410156 268.710938 8.128906 C 268.859375 6.738281 267.367188 5.972656 266.28125 6.71875 C 266.210938 6.355469 266.300781 6.101562 266.488281 5.914062 C 267.148438 6.042969 267.347656 5.578125 267.457031 5.101562 C 267.601562 5.023438 267.652344 5.074219 267.84375 5.027344 C 268.070312 4.84375 267.894531 4.394531 268.328125 4.347656 C 269.066406 4.535156 269.929688 5.140625 270.238281 6.082031 C 270.320312 6.34375 270.265625 6.609375 270.382812 6.816406 "/></g></g></g></g><g clip-rule="nonzero" clip-path="url(#clip15)"><g clip-rule="nonzero" clip-path="url(#clip16)"><g clip-rule="nonzero" clip-path="url(#clip17)"><g clip-rule="nonzero" clip-path="url(#clip18)"><path style=" stroke:none;fill-rule:evenodd;fill:rgb(0%,0%,0%);fill-opacity:1;" d="M 270.332031 4.351562 C 270.4375 4.320312 270.429688 4.453125 270.472656 4.507812 C 270.382812 4.539062 270.386719 4.632812 270.28125 4.652344 C 270.261719 4.609375 270.210938 4.609375 270.191406 4.5625 C 270.144531 4.429688 270.320312 4.445312 270.332031 4.351562 "/></g></g></g></g><g clip-rule="nonzero" clip-path="url(#clip19)"><g clip-rule="nonzero" clip-path="url(#clip20)"><g clip-rule="nonzero" clip-path="url(#clip21)"><g clip-rule="nonzero" clip-path="url(#clip22)"><path style=" stroke:none;fill-rule:evenodd;fill:rgb(0%,0%,0%);fill-opacity:1;" d="M 268.667969 5.152344 C 268.699219 5.167969 268.734375 5.179688 268.78125 5.167969 C 268.898438 5.300781 269.136719 5.453125 269.277344 5.652344 C 269.460938 5.910156 269.6875 6.261719 269.589844 6.5 C 269.386719 6.523438 269.4375 6.296875 269.382812 6.179688 C 269.207031 5.816406 268.925781 5.503906 268.625 5.308594 C 268.582031 5.21875 268.683594 5.222656 268.667969 5.152344 "/></g></g></g></g><g clip-rule="nonzero" clip-path="url(#clip23)"><g clip-rule="nonzero" clip-path="url(#clip24)"><g clip-rule="nonzero" clip-path="url(#clip25)"><g clip-rule="nonzero" clip-path="url(#clip26)"><path style=" stroke:none;fill-rule:evenodd;fill:rgb(0%,0%,0%);fill-opacity:1;" d="M 267.777344 5.621094 C 268.324219 5.550781 268.65625 5.992188 268.898438 6.492188 C 269.019531 6.742188 269.316406 7.140625 269.015625 7.269531 C 268.863281 6.636719 268.496094 5.855469 267.804688 5.761719 C 267.734375 5.703125 267.800781 5.714844 267.777344 5.621094 "/></g></g></g></g><g clip-rule="nonzero" clip-path="url(#clip27)"><g clip-rule="nonzero" clip-path="url(#clip28)"><g clip-rule="nonzero" clip-path="url(#clip29)"><g clip-rule="nonzero" clip-path="url(#clip30)"><path style=" stroke:none;fill-rule:evenodd;fill:rgb(100%,85.488892%,0%);fill-opacity:1;" d="M 266.835938 6.753906 C 266.332031 7.523438 265.679688 8.171875 265.0625 8.851562 C 263.785156 10.253906 262.703125 11.835938 261.335938 13.226562 C 261.175781 12.980469 260.925781 12.867188 260.550781 12.945312 C 261.261719 11.832031 262.289062 10.917969 263.230469 9.902344 C 263.894531 9.1875 264.632812 8.425781 265.421875 7.722656 C 265.851562 7.34375 266.15625 7.019531 266.722656 6.738281 C 266.753906 6.753906 266.789062 6.765625 266.835938 6.753906 "/></g></g></g></g><g clip-rule="nonzero" clip-path="url(#clip31)"><g clip-rule="nonzero" clip-path="url(#clip32)"><g clip-rule="nonzero" clip-path="url(#clip33)"><g clip-rule="nonzero" clip-path="url(#clip34)"><path style=" stroke:none;fill-rule:evenodd;fill:rgb(100%,87.449646%,25.099182%);fill-opacity:1;" d="M 266.464844 8.574219 C 266.578125 8.578125 266.539062 8.585938 266.640625 8.539062 C 266.652344 8.4375 266.703125 8.261719 266.605469 8.179688 C 266.402344 8.207031 266.457031 8.40625 266.464844 8.574219 Z M 266.816406 8.320312 C 266.84375 8.324219 266.886719 8.308594 266.894531 8.34375 C 267.0625 8.339844 267.035156 8.027344 266.875 8.054688 C 266.882812 8.164062 266.746094 8.175781 266.816406 8.320312 Z M 268.320312 7.261719 C 267.117188 8.734375 265.691406 10.015625 264.402344 11.417969 C 263.636719 12.253906 262.953125 13.167969 262.089844 13.914062 C 261.96875 13.609375 261.789062 13.394531 261.390625 13.503906 C 263.328125 11.195312 265.265625 8.882812 267.285156 6.628906 C 267.765625 6.640625 268.070312 6.90625 268.320312 7.261719 "/></g></g></g></g><g clip-rule="nonzero" clip-path="url(#clip35)"><g clip-rule="nonzero" clip-path="url(#clip36)"><g clip-rule="nonzero" clip-path="url(#clip37)"><g clip-rule="nonzero" clip-path="url(#clip38)"><path style=" stroke:none;fill-rule:evenodd;fill:rgb(100%,85.488892%,0%);fill-opacity:1;" d="M 263.332031 13.921875 C 263.507812 13.890625 263.488281 13.722656 263.4375 13.539062 C 263.375 13.558594 263.351562 13.515625 263.289062 13.53125 C 263.3125 13.707031 263.238281 13.769531 263.332031 13.921875 Z M 263.628906 13.390625 C 263.710938 13.386719 263.761719 13.359375 263.796875 13.324219 C 263.757812 13.242188 263.730469 13.148438 263.621094 13.175781 C 263.59375 13.273438 263.566406 13.296875 263.628906 13.390625 Z M 262.675781 14.855469 C 262.628906 14.53125 262.410156 14.316406 262.175781 14.152344 C 264.1875 11.941406 266.195312 9.730469 268.355469 7.617188 C 268.394531 7.605469 268.417969 7.613281 268.429688 7.640625 C 268.5 7.949219 268.402344 8.148438 268.402344 8.410156 C 266.578125 10.617188 264.683594 12.769531 262.675781 14.855469 "/></g></g></g></g><g clip-rule="nonzero" clip-path="url(#clip39)"><g clip-rule="nonzero" clip-path="url(#clip40)"><g clip-rule="nonzero" clip-path="url(#clip41)"><g clip-rule="nonzero" clip-path="url(#clip42)"><path style=" stroke:none;fill-rule:evenodd;fill:rgb(0%,0%,0%);fill-opacity:1;" d="M 266.875 8.054688 C 267.035156 8.027344 267.0625 8.339844 266.894531 8.34375 C 266.886719 8.308594 266.84375 8.324219 266.816406 8.320312 C 266.746094 8.175781 266.882812 8.164062 266.875 8.054688 "/></g></g></g></g><g clip-rule="nonzero" clip-path="url(#clip43)"><g clip-rule="nonzero" clip-path="url(#clip44)"><g clip-rule="nonzero" clip-path="url(#clip45)"><g clip-rule="nonzero" clip-path="url(#clip46)"><path style=" stroke:none;fill-rule:evenodd;fill:rgb(0%,0%,0%);fill-opacity:1;" d="M 266.605469 8.179688 C 266.703125 8.261719 266.652344 8.4375 266.640625 8.539062 C 266.539062 8.585938 266.578125 8.578125 266.464844 8.574219 C 266.457031 8.40625 266.402344 8.207031 266.605469 8.179688 "/></g></g></g></g><g clip-rule="nonzero" clip-path="url(#clip47)"><g clip-rule="nonzero" clip-path="url(#clip48)"><g clip-rule="nonzero" clip-path="url(#clip49)"><g clip-rule="nonzero" clip-path="url(#clip50)"><path style=" stroke:none;fill-rule:evenodd;fill:rgb(98.81897%,97.648621%,90.979004%);fill-opacity:1;" d="M 260.496094 15.613281 C 260.523438 15.613281 260.542969 15.632812 260.542969 15.675781 C 260.933594 15.5 261.160156 15.214844 261.421875 14.957031 C 261.039062 15.003906 260.722656 15.359375 260.496094 15.613281 Z M 259.359375 15.945312 C 259.542969 16.074219 259.636719 15.761719 259.695312 15.625 C 260.035156 15.304688 260.363281 14.882812 260.539062 14.546875 C 260.140625 14.886719 259.621094 15.410156 259.359375 15.945312 Z M 261.082031 13.238281 C 261.175781 13.457031 261.132812 13.625 261.230469 13.792969 C 261.421875 13.777344 261.734375 13.65625 261.859375 13.851562 C 261.933594 14.0625 261.882812 14.191406 261.886719 14.355469 C 261.984375 14.449219 262.171875 14.410156 262.277344 14.496094 C 262.382812 14.660156 262.507812 14.871094 262.472656 15.113281 C 261.621094 15.78125 260.40625 16.144531 259.511719 16.714844 C 259.28125 16.632812 259.125 16.441406 258.894531 16.363281 C 258.992188 15.894531 259.261719 15.328125 259.488281 14.753906 C 259.671875 14.285156 260.078125 13.359375 260.417969 13.1875 C 260.59375 13.101562 260.886719 13.132812 261.082031 13.238281 "/></g></g></g></g><g clip-rule="nonzero" clip-path="url(#clip51)"><g clip-rule="nonzero" clip-path="url(#clip52)"><g clip-rule="nonzero" clip-path="url(#clip53)"><g clip-rule="nonzero" clip-path="url(#clip54)"><path style=" stroke:none;fill-rule:evenodd;fill:rgb(0%,0%,0%);fill-opacity:1;" d="M 263.621094 13.175781 C 263.730469 13.148438 263.757812 13.242188 263.796875 13.324219 C 263.761719 13.359375 263.710938 13.386719 263.628906 13.390625 C 263.566406 13.296875 263.59375 13.273438 263.621094 13.175781 "/><path style=" stroke:none;fill-rule:evenodd;fill:rgb(0%,0%,0%);fill-opacity:1;" d="M 263.289062 13.53125 C 263.351562 13.515625 263.375 13.558594 263.4375 13.539062 C 263.488281 13.722656 263.507812 13.890625 263.332031 13.921875 C 263.238281 13.769531 263.3125 13.707031 263.289062 13.53125 "/></g></g></g></g><g clip-rule="nonzero" clip-path="url(#clip55)"><g clip-rule="nonzero" clip-path="url(#clip56)"><g clip-rule="nonzero" clip-path="url(#clip57)"><g clip-rule="nonzero" clip-path="url(#clip58)"><path style=" stroke:none;fill-rule:evenodd;fill:rgb(0%,0%,0%);fill-opacity:1;" d="M 260.539062 14.546875 C 260.363281 14.882812 260.035156 15.304688 259.695312 15.625 C 259.636719 15.761719 259.542969 16.074219 259.359375 15.945312 C 259.621094 15.410156 260.140625 14.886719 260.539062 14.546875 "/></g></g></g></g><g clip-rule="nonzero" clip-path="url(#clip59)"><g clip-rule="nonzero" clip-path="url(#clip60)"><g clip-rule="nonzero" clip-path="url(#clip61)"><g clip-rule="nonzero" clip-path="url(#clip62)"><path style=" stroke:none;fill-rule:evenodd;fill:rgb(0%,0%,0%);fill-opacity:1;" d="M 261.421875 14.957031 C 261.160156 15.214844 260.933594 15.5 260.542969 15.675781 C 260.542969 15.632812 260.523438 15.613281 260.496094 15.613281 C 260.722656 15.359375 261.039062 15.003906 261.421875 14.957031 "/></g></g></g></g><g clip-rule="nonzero" clip-path="url(#clip63)"><g clip-rule="nonzero" clip-path="url(#clip64)"><g clip-rule="nonzero" clip-path="url(#clip65)"><g clip-rule="nonzero" clip-path="url(#clip66)"><path style=" stroke:none;fill-rule:evenodd;fill:rgb(0%,0%,0%);fill-opacity:1;" d="M 256.859375 18.039062 C 256.832031 18.296875 256.769531 18.527344 256.414062 18.566406 C 255.972656 18.316406 256.417969 17.875 256.859375 18.039062 "/></g></g></g></g><g clip-rule="nonzero" clip-path="url(#clip67)"><g clip-rule="nonzero" clip-path="url(#clip68)"><g clip-rule="nonzero" clip-path="url(#clip69)"><g clip-rule="nonzero" clip-path="url(#clip70)"><g clip-rule="nonzero" clip-path="url(#clip71)"><g clip-rule="nonzero" clip-path="url(#clip72)"><path style=" stroke:none;fill-rule:evenodd;fill:rgb(0%,0%,0%);fill-opacity:1;" d="M 258.855469 17.828125 C 258.917969 18.082031 258.71875 18.164062 258.457031 18.199219 C 258.132812 17.972656 258.59375 17.746094 258.855469 17.828125 "/></g></g></g></g></g></g><g clip-rule="nonzero" clip-path="url(#clip73)"><g clip-rule="nonzero" clip-path="url(#clip74)"><g clip-rule="nonzero" clip-path="url(#clip75)"><g clip-rule="nonzero" clip-path="url(#clip76)"><g clip-rule="nonzero" clip-path="url(#clip77)"><g clip-rule="nonzero" clip-path="url(#clip78)"><path style=" stroke:none;fill-rule:evenodd;fill:rgb(0%,0%,0%);fill-opacity:1;" d="M 260.417969 13.1875 C 260.078125 13.359375 259.671875 14.285156 259.488281 14.753906 C 259.261719 15.328125 258.992188 15.894531 258.894531 16.363281 C 259.125 16.441406 259.28125 16.632812 259.511719 16.714844 C 260.40625 16.144531 261.621094 15.78125 262.472656 15.113281 C 262.507812 14.871094 262.382812 14.660156 262.277344 14.496094 C 262.171875 14.410156 261.984375 14.449219 261.886719 14.355469 C 261.882812 14.191406 261.933594 14.0625 261.859375 13.851562 C 261.734375 13.65625 261.421875 13.777344 261.230469 13.792969 C 261.132812 13.625 261.175781 13.457031 261.082031 13.238281 C 260.886719 13.132812 260.59375 13.101562 260.417969 13.1875 Z M 268.402344 8.410156 C 268.402344 8.148438 268.5 7.949219 268.429688 7.640625 C 268.417969 7.613281 268.394531 7.605469 268.355469 7.617188 C 266.195312 9.730469 264.1875 11.941406 262.175781 14.152344 C 262.410156 14.316406 262.628906 14.53125 262.675781 14.855469 C 264.683594 12.769531 266.578125 10.617188 268.402344 8.410156 Z M 267.285156 6.628906 C 265.265625 8.882812 263.328125 11.195312 261.390625 13.503906 C 261.789062 13.394531 261.96875 13.609375 262.089844 13.914062 C 262.953125 13.167969 263.636719 12.253906 264.402344 11.417969 C 265.691406 10.015625 267.117188 8.734375 268.320312 7.261719 C 268.070312 6.90625 267.765625 6.640625 267.285156 6.628906 Z M 266.722656 6.738281 C 266.15625 7.019531 265.851562 7.34375 265.421875 7.722656 C 264.632812 8.425781 263.894531 9.1875 263.230469 9.902344 C 262.289062 10.917969 261.261719 11.832031 260.550781 12.945312 C 260.925781 12.867188 261.175781 12.980469 261.335938 13.226562 C 262.703125 11.835938 263.785156 10.253906 265.0625 8.851562 C 265.679688 8.171875 266.332031 7.523438 266.835938 6.753906 C 266.789062 6.765625 266.753906 6.753906 266.722656 6.738281 Z M 270.238281 6.082031 C 269.929688 5.140625 269.066406 4.535156 268.328125 4.347656 C 267.894531 4.394531 268.070312 4.84375 267.84375 5.027344 C 267.652344 5.074219 267.601562 5.023438 267.457031 5.101562 C 267.347656 5.578125 267.148438 6.042969 266.488281 5.914062 C 266.300781 6.101562 266.210938 6.355469 266.28125 6.71875 C 267.367188 5.972656 268.859375 6.738281 268.710938 8.128906 C 268.679688 8.410156 268.433594 8.566406 268.449219 8.835938 C 269.011719 9.019531 269.289062 8.308594 269.433594 7.914062 C 269.5625 7.890625 269.691406 7.863281 269.820312 7.839844 C 269.824219 7.359375 270.054688 6.996094 270.382812 6.816406 C 270.265625 6.609375 270.320312 6.34375 270.238281 6.082031 Z M 271.371094 4.4375 C 271.160156 3.738281 270.394531 3.226562 269.710938 3.238281 C 269.453125 3.601562 269.085938 3.890625 268.902344 4.308594 C 269.582031 4.625 270.097656 5.1875 270.414062 6.046875 C 270.910156 5.675781 271.636719 5.332031 271.371094 4.4375 Z M 270.742188 6.417969 C 270.851562 6.746094 270.800781 6.964844 270.703125 7.15625 C 270.601562 7.203125 270.460938 7.335938 270.324219 7.265625 C 270.398438 7.789062 270.222656 8.148438 269.726562 8.292969 C 269.667969 8.621094 269.53125 8.890625 269.304688 9.105469 C 268.90625 9.34375 268.535156 9.160156 268.179688 9.328125 C 268.019531 9.402344 267.820312 9.71875 267.617188 9.984375 C 267.109375 10.648438 266.476562 11.316406 265.953125 11.878906 C 265.570312 12.285156 265.234375 12.761719 264.820312 13.15625 C 263.941406 13.988281 263.25 14.871094 262.449219 15.734375 C 261.300781 16.082031 260.269531 16.832031 259.128906 17.375 C 258.859375 17.5 258.539062 17.625 258.261719 17.582031 C 258.082031 17.652344 258.027344 17.851562 257.820312 17.742188 C 257.882812 17.429688 258.089844 17.214844 258.25 16.964844 C 258.269531 16.605469 258.402344 16.261719 258.519531 15.929688 C 258.761719 15.230469 258.996094 14.578125 259.320312 13.914062 C 259.667969 13.210938 260.019531 12.699219 260.566406 12.101562 C 262.171875 10.359375 263.917969 8.441406 265.71875 6.828125 C 265.546875 6.140625 265.878906 5.339844 266.742188 5.535156 C 266.878906 5.261719 266.882812 4.898438 267.121094 4.695312 C 267.25 4.6875 267.339844 4.734375 267.484375 4.695312 C 267.613281 4.285156 268.003906 3.589844 268.484375 4.027344 C 268.914062 3.648438 269.109375 2.8125 269.851562 2.84375 C 269.976562 2.867188 269.859375 2.726562 269.980469 2.746094 C 270.882812 2.832031 271.597656 3.535156 271.847656 4.453125 C 272.125 5.472656 271.300781 5.851562 270.742188 6.417969 "/></g></g></g></g></g></g><path style=" stroke:none;fill-rule:nonzero;fill:rgb(6.269836%,5.879211%,5.099487%);fill-opacity:1;" d="M 230.5 21.566406 L 231.449219 21.566406 C 232.042969 21.566406 232.527344 21.09375 232.527344 20.515625 C 232.527344 19.9375 232.042969 19.46875 231.449219 19.46875 L 230.5 19.46875 Z M 231.449219 22.179688 L 230.179688 22.179688 C 230.007812 22.179688 229.863281 22.042969 229.863281 21.871094 L 229.863281 19.160156 C 229.863281 18.988281 230.007812 18.851562 230.179688 18.851562 L 231.449219 18.851562 C 232.394531 18.851562 233.164062 19.597656 233.164062 20.515625 C 233.164062 21.433594 232.394531 22.179688 231.449219 22.179688 "/><path style=" stroke:none;fill-rule:nonzero;fill:rgb(6.269836%,5.879211%,5.099487%);fill-opacity:1;" d="M 230.5 24.277344 L 231.449219 24.277344 C 232.042969 24.277344 232.527344 23.808594 232.527344 23.230469 C 232.527344 22.652344 232.042969 22.179688 231.449219 22.179688 L 230.5 22.179688 Z M 231.449219 24.894531 L 230.179688 24.894531 C 230.007812 24.894531 229.863281 24.753906 229.863281 24.585938 L 229.863281 21.871094 C 229.863281 21.703125 230.007812 21.566406 230.179688 21.566406 L 231.449219 21.566406 C 232.394531 21.566406 233.164062 22.308594 233.164062 23.230469 C 233.164062 24.148438 232.394531 24.894531 231.449219 24.894531 "/><path style=" stroke:none;fill-rule:nonzero;fill:rgb(6.269836%,5.879211%,5.099487%);fill-opacity:1;" d="M 238.449219 24.894531 L 235.785156 24.894531 C 235.609375 24.894531 235.46875 24.753906 235.46875 24.585938 L 235.46875 19.160156 C 235.46875 18.988281 235.609375 18.851562 235.785156 18.851562 C 235.960938 18.851562 236.105469 18.988281 236.105469 19.160156 L 236.105469 24.277344 L 238.449219 24.277344 C 238.625 24.277344 238.769531 24.414062 238.769531 24.585938 C 238.769531 24.753906 238.625 24.894531 238.449219 24.894531 "/><path style=" stroke:none;fill-rule:nonzero;fill:rgb(6.269836%,5.879211%,5.099487%);fill-opacity:1;" d="M 241.9375 19.46875 C 241.191406 19.46875 240.585938 20.054688 240.585938 20.78125 L 240.585938 22.964844 C 240.585938 23.6875 241.191406 24.277344 241.9375 24.277344 C 242.683594 24.277344 243.289062 23.6875 243.289062 22.964844 L 243.289062 20.78125 C 243.289062 20.054688 242.683594 19.46875 241.9375 19.46875 Z M 241.9375 24.894531 C 240.839844 24.894531 239.949219 24.027344 239.949219 22.964844 L 239.949219 20.78125 C 239.949219 19.714844 240.839844 18.851562 241.9375 18.851562 C 243.035156 18.851562 243.925781 19.714844 243.925781 20.78125 L 243.925781 22.964844 C 243.925781 24.027344 243.035156 24.894531 241.9375 24.894531 "/><path style=" stroke:none;fill-rule:nonzero;fill:rgb(6.269836%,5.879211%,5.099487%);fill-opacity:1;" d="M 248.054688 24.894531 L 247.695312 24.894531 C 246.699219 24.894531 245.886719 24.105469 245.886719 23.136719 L 245.886719 20.605469 C 245.886719 19.640625 246.699219 18.851562 247.695312 18.851562 L 248.054688 18.851562 C 248.875 18.851562 249.59375 19.386719 249.804688 20.15625 C 249.847656 20.324219 249.75 20.492188 249.578125 20.535156 C 249.40625 20.578125 249.234375 20.480469 249.191406 20.316406 C 249.054688 19.816406 248.585938 19.46875 248.054688 19.46875 L 247.695312 19.46875 C 247.046875 19.46875 246.523438 19.980469 246.523438 20.605469 L 246.523438 23.136719 C 246.523438 23.765625 247.046875 24.277344 247.695312 24.277344 L 248.054688 24.277344 C 248.699219 24.277344 249.226562 23.765625 249.226562 23.136719 L 249.226562 22.570312 L 248.582031 22.570312 C 248.40625 22.570312 248.265625 22.433594 248.265625 22.261719 C 248.265625 22.089844 248.40625 21.953125 248.582031 21.953125 L 249.546875 21.953125 C 249.722656 21.953125 249.863281 22.089844 249.863281 22.261719 L 249.863281 23.136719 C 249.863281 24.105469 249.050781 24.894531 248.054688 24.894531 "/><g clip-rule="nonzero" clip-path="url(#clip79)"><path style=" stroke:none;fill-rule:nonzero;fill:rgb(6.269836%,5.879211%,5.099487%);fill-opacity:1;" d="M 230.375 9.234375 C 226.847656 9.234375 223.539062 11.105469 222.097656 13.929688 C 220.289062 17.480469 221.609375 21.640625 223.441406 24.351562 C 225.40625 27.253906 228.292969 29.503906 231.085938 31.679688 L 231.6875 32.152344 C 231.996094 32.394531 232.3125 32.636719 232.632812 32.882812 C 235.238281 34.902344 238.175781 37.171875 239.863281 40.003906 C 241.550781 37.171875 244.488281 34.898438 247.097656 32.882812 C 247.414062 32.636719 247.730469 32.394531 248.042969 32.152344 L 248.644531 31.679688 C 251.433594 29.503906 254.320312 27.253906 256.285156 24.351562 C 258.121094 21.640625 259.4375 17.480469 257.628906 13.929688 C 256.160156 11.050781 252.757812 9.167969 249.152344 9.234375 C 245.324219 9.3125 241.839844 12.539062 240.101562 14.457031 C 239.980469 14.589844 239.746094 14.589844 239.625 14.457031 C 237.886719 12.539062 234.402344 9.3125 230.578125 9.234375 C 230.507812 9.234375 230.441406 9.234375 230.375 9.234375 Z M 239.863281 40.953125 C 239.746094 40.953125 239.636719 40.890625 239.582031 40.789062 C 238.015625 37.835938 234.945312 35.460938 232.234375 33.363281 C 231.914062 33.117188 231.597656 32.875 231.289062 32.628906 L 230.683594 32.160156 C 227.855469 29.957031 224.929688 27.675781 222.910156 24.691406 C 220.980469 21.835938 219.601562 17.4375 221.527344 13.660156 C 223.101562 10.566406 226.746094 8.550781 230.589844 8.621094 C 234.488281 8.699219 237.988281 11.777344 239.863281 13.789062 C 241.738281 11.777344 245.238281 8.699219 249.136719 8.621094 C 252.988281 8.546875 256.625 10.566406 258.199219 13.660156 C 260.125 17.4375 258.75 21.835938 256.816406 24.691406 C 254.796875 27.675781 251.871094 29.957031 249.042969 32.160156 L 248.441406 32.628906 C 248.128906 32.875 247.8125 33.117188 247.492188 33.363281 C 244.785156 35.460938 241.710938 37.835938 240.148438 40.789062 C 240.09375 40.890625 239.984375 40.953125 239.863281 40.953125 "/></g><path style=" stroke:none;fill-rule:nonzero;fill:rgb(32.159424%,72.549438%,81.568909%);fill-opacity:1;" d="M 255.355469 21.28125 C 253.488281 24.042969 250.671875 26.238281 247.945312 28.359375 L 247.34375 28.832031 C 247.035156 29.070312 246.71875 29.3125 246.402344 29.558594 C 244.152344 31.300781 241.664062 33.226562 239.863281 35.570312 C 238.0625 33.226562 235.574219 31.300781 233.324219 29.558594 C 233.007812 29.3125 232.691406 29.070312 232.382812 28.832031 L 231.78125 28.359375 C 229.058594 26.234375 226.242188 24.042969 224.371094 21.28125 C 223.46875 19.945312 222.699219 18.230469 222.441406 16.441406 C 222.023438 19.058594 223.054688 21.8125 224.371094 23.761719 C 226.242188 26.519531 229.058594 28.714844 231.78125 30.839844 L 232.382812 31.308594 C 232.691406 31.550781 233.007812 31.792969 233.324219 32.039062 C 235.574219 33.78125 238.0625 35.703125 239.863281 38.050781 C 241.664062 35.703125 244.152344 33.78125 246.402344 32.039062 C 246.71875 31.792969 247.035156 31.550781 247.34375 31.308594 L 247.945312 30.839844 C 250.671875 28.714844 253.488281 26.519531 255.355469 23.761719 C 256.671875 21.8125 257.703125 19.058594 257.285156 16.441406 C 257.027344 18.230469 256.257812 19.945312 255.355469 21.28125 "/></g></svg>