<?xml version="1.0" encoding="UTF-8"?><svg xmlns="http://www.w3.org/2000/svg" xmlns:xlink="http://www.w3.org/1999/xlink" contentScriptType="text/ecmascript" width="375pt" zoomAndPan="magnify" contentStyleType="text/css" viewBox="0 0 375 71.249999" height="71.249999pt" preserveAspectRatio="xMidYMid meet" version="1.2"><defs><g/><clipPath xml:id="clip1" id="clip1"><path d="M 96 7 L 171 7 L 171 70.507812 L 96 70.507812 Z M 96 7 "/></clipPath><clipPath xml:id="clip2" id="clip2"><path d="M 164 2 L 223 2 L 223 70.507812 L 164 70.507812 Z M 164 2 "/></clipPath><clipPath xml:id="clip3" id="clip3"><path d="M 271 6 L 274 6 L 274 10 L 271 10 Z M 271 6 "/></clipPath><clipPath xml:id="clip4" id="clip4"><path d="M 256.070312 9.691406 L 273.546875 6.242188 L 275.988281 18.621094 L 258.515625 22.070312 Z M 256.070312 9.691406 "/></clipPath><clipPath xml:id="clip5" id="clip5"><path d="M 256.070312 9.691406 L 273.546875 6.242188 L 275.988281 18.621094 L 258.515625 22.070312 Z M 256.070312 9.691406 "/></clipPath><clipPath xml:id="clip6" id="clip6"><path d="M 256.070312 9.691406 L 273.882812 6.175781 L 276.371094 18.789062 L 258.558594 22.300781 Z M 256.070312 9.691406 "/></clipPath><clipPath xml:id="clip7" id="clip7"><path d="M 272 7 L 273 7 L 273 8 L 272 8 Z M 272 7 "/></clipPath><clipPath xml:id="clip8" id="clip8"><path d="M 256.070312 9.691406 L 273.546875 6.242188 L 275.988281 18.621094 L 258.515625 22.070312 Z M 256.070312 9.691406 "/></clipPath><clipPath xml:id="clip9" id="clip9"><path d="M 256.070312 9.691406 L 273.546875 6.242188 L 275.988281 18.621094 L 258.515625 22.070312 Z M 256.070312 9.691406 "/></clipPath><clipPath xml:id="clip10" id="clip10"><path d="M 256.070312 9.691406 L 273.882812 6.175781 L 276.371094 18.789062 L 258.558594 22.300781 Z M 256.070312 9.691406 "/></clipPath><clipPath xml:id="clip11" id="clip11"><path d="M 268 8 L 273 8 L 273 13 L 268 13 Z M 268 8 "/></clipPath><clipPath xml:id="clip12" id="clip12"><path d="M 256.070312 9.691406 L 273.546875 6.242188 L 275.988281 18.621094 L 258.515625 22.070312 Z M 256.070312 9.691406 "/></clipPath><clipPath xml:id="clip13" id="clip13"><path d="M 256.070312 9.691406 L 273.546875 6.242188 L 275.988281 18.621094 L 258.515625 22.070312 Z M 256.070312 9.691406 "/></clipPath><clipPath xml:id="clip14" id="clip14"><path d="M 256.070312 9.691406 L 273.882812 6.175781 L 276.371094 18.789062 L 258.558594 22.300781 Z M 256.070312 9.691406 "/></clipPath><clipPath xml:id="clip15" id="clip15"><path d="M 272 8 L 273 8 L 273 9 L 272 9 Z M 272 8 "/></clipPath><clipPath xml:id="clip16" id="clip16"><path d="M 256.070312 9.691406 L 273.546875 6.242188 L 275.988281 18.621094 L 258.515625 22.070312 Z M 256.070312 9.691406 "/></clipPath><clipPath xml:id="clip17" id="clip17"><path d="M 256.070312 9.691406 L 273.546875 6.242188 L 275.988281 18.621094 L 258.515625 22.070312 Z M 256.070312 9.691406 "/></clipPath><clipPath xml:id="clip18" id="clip18"><path d="M 256.070312 9.691406 L 273.882812 6.175781 L 276.371094 18.789062 L 258.558594 22.300781 Z M 256.070312 9.691406 "/></clipPath><clipPath xml:id="clip19" id="clip19"><path d="M 271 8 L 273 8 L 273 11 L 271 11 Z M 271 8 "/></clipPath><clipPath xml:id="clip20" id="clip20"><path d="M 256.070312 9.691406 L 273.546875 6.242188 L 275.988281 18.621094 L 258.515625 22.070312 Z M 256.070312 9.691406 "/></clipPath><clipPath xml:id="clip21" id="clip21"><path d="M 256.070312 9.691406 L 273.546875 6.242188 L 275.988281 18.621094 L 258.515625 22.070312 Z M 256.070312 9.691406 "/></clipPath><clipPath xml:id="clip22" id="clip22"><path d="M 256.070312 9.691406 L 273.882812 6.175781 L 276.371094 18.789062 L 258.558594 22.300781 Z M 256.070312 9.691406 "/></clipPath><clipPath xml:id="clip23" id="clip23"><path d="M 270 9 L 272 9 L 272 11 L 270 11 Z M 270 9 "/></clipPath><clipPath xml:id="clip24" id="clip24"><path d="M 256.070312 9.691406 L 273.546875 6.242188 L 275.988281 18.621094 L 258.515625 22.070312 Z M 256.070312 9.691406 "/></clipPath><clipPath xml:id="clip25" id="clip25"><path d="M 256.070312 9.691406 L 273.546875 6.242188 L 275.988281 18.621094 L 258.515625 22.070312 Z M 256.070312 9.691406 "/></clipPath><clipPath xml:id="clip26" id="clip26"><path d="M 256.070312 9.691406 L 273.882812 6.175781 L 276.371094 18.789062 L 258.558594 22.300781 Z M 256.070312 9.691406 "/></clipPath><clipPath xml:id="clip27" id="clip27"><path d="M 263 10 L 270 10 L 270 17 L 263 17 Z M 263 10 "/></clipPath><clipPath xml:id="clip28" id="clip28"><path d="M 256.070312 9.691406 L 273.546875 6.242188 L 275.988281 18.621094 L 258.515625 22.070312 Z M 256.070312 9.691406 "/></clipPath><clipPath xml:id="clip29" id="clip29"><path d="M 256.070312 9.691406 L 273.546875 6.242188 L 275.988281 18.621094 L 258.515625 22.070312 Z M 256.070312 9.691406 "/></clipPath><clipPath xml:id="clip30" id="clip30"><path d="M 256.070312 9.691406 L 273.882812 6.175781 L 276.371094 18.789062 L 258.558594 22.300781 Z M 256.070312 9.691406 "/></clipPath><clipPath xml:id="clip31" id="clip31"><path d="M 263 10 L 271 10 L 271 18 L 263 18 Z M 263 10 "/></clipPath><clipPath xml:id="clip32" id="clip32"><path d="M 256.070312 9.691406 L 273.546875 6.242188 L 275.988281 18.621094 L 258.515625 22.070312 Z M 256.070312 9.691406 "/></clipPath><clipPath xml:id="clip33" id="clip33"><path d="M 256.070312 9.691406 L 273.546875 6.242188 L 275.988281 18.621094 L 258.515625 22.070312 Z M 256.070312 9.691406 "/></clipPath><clipPath xml:id="clip34" id="clip34"><path d="M 256.070312 9.691406 L 273.882812 6.175781 L 276.371094 18.789062 L 258.558594 22.300781 Z M 256.070312 9.691406 "/></clipPath><clipPath xml:id="clip35" id="clip35"><path d="M 264 11 L 271 11 L 271 19 L 264 19 Z M 264 11 "/></clipPath><clipPath xml:id="clip36" id="clip36"><path d="M 256.070312 9.691406 L 273.546875 6.242188 L 275.988281 18.621094 L 258.515625 22.070312 Z M 256.070312 9.691406 "/></clipPath><clipPath xml:id="clip37" id="clip37"><path d="M 256.070312 9.691406 L 273.546875 6.242188 L 275.988281 18.621094 L 258.515625 22.070312 Z M 256.070312 9.691406 "/></clipPath><clipPath xml:id="clip38" id="clip38"><path d="M 256.070312 9.691406 L 273.882812 6.175781 L 276.371094 18.789062 L 258.558594 22.300781 Z M 256.070312 9.691406 "/></clipPath><clipPath xml:id="clip39" id="clip39"><path d="M 269 11 L 270 11 L 270 13 L 269 13 Z M 269 11 "/></clipPath><clipPath xml:id="clip40" id="clip40"><path d="M 256.070312 9.691406 L 273.546875 6.242188 L 275.988281 18.621094 L 258.515625 22.070312 Z M 256.070312 9.691406 "/></clipPath><clipPath xml:id="clip41" id="clip41"><path d="M 256.070312 9.691406 L 273.546875 6.242188 L 275.988281 18.621094 L 258.515625 22.070312 Z M 256.070312 9.691406 "/></clipPath><clipPath xml:id="clip42" id="clip42"><path d="M 256.070312 9.691406 L 273.882812 6.175781 L 276.371094 18.789062 L 258.558594 22.300781 Z M 256.070312 9.691406 "/></clipPath><clipPath xml:id="clip43" id="clip43"><path d="M 268 11 L 270 11 L 270 13 L 268 13 Z M 268 11 "/></clipPath><clipPath xml:id="clip44" id="clip44"><path d="M 256.070312 9.691406 L 273.546875 6.242188 L 275.988281 18.621094 L 258.515625 22.070312 Z M 256.070312 9.691406 "/></clipPath><clipPath xml:id="clip45" id="clip45"><path d="M 256.070312 9.691406 L 273.546875 6.242188 L 275.988281 18.621094 L 258.515625 22.070312 Z M 256.070312 9.691406 "/></clipPath><clipPath xml:id="clip46" id="clip46"><path d="M 256.070312 9.691406 L 273.882812 6.175781 L 276.371094 18.789062 L 258.558594 22.300781 Z M 256.070312 9.691406 "/></clipPath><clipPath xml:id="clip47" id="clip47"><path d="M 261 16 L 265 16 L 265 21 L 261 21 Z M 261 16 "/></clipPath><clipPath xml:id="clip48" id="clip48"><path d="M 256.070312 9.691406 L 273.546875 6.242188 L 275.988281 18.621094 L 258.515625 22.070312 Z M 256.070312 9.691406 "/></clipPath><clipPath xml:id="clip49" id="clip49"><path d="M 256.070312 9.691406 L 273.546875 6.242188 L 275.988281 18.621094 L 258.515625 22.070312 Z M 256.070312 9.691406 "/></clipPath><clipPath xml:id="clip50" id="clip50"><path d="M 256.070312 9.691406 L 273.882812 6.175781 L 276.371094 18.789062 L 258.558594 22.300781 Z M 256.070312 9.691406 "/></clipPath><clipPath xml:id="clip51" id="clip51"><path d="M 266 16 L 267 16 L 267 18 L 266 18 Z M 266 16 "/></clipPath><clipPath xml:id="clip52" id="clip52"><path d="M 256.070312 9.691406 L 273.546875 6.242188 L 275.988281 18.621094 L 258.515625 22.070312 Z M 256.070312 9.691406 "/></clipPath><clipPath xml:id="clip53" id="clip53"><path d="M 256.070312 9.691406 L 273.546875 6.242188 L 275.988281 18.621094 L 258.515625 22.070312 Z M 256.070312 9.691406 "/></clipPath><clipPath xml:id="clip54" id="clip54"><path d="M 256.070312 9.691406 L 273.882812 6.175781 L 276.371094 18.789062 L 258.558594 22.300781 Z M 256.070312 9.691406 "/></clipPath><clipPath xml:id="clip55" id="clip55"><path d="M 265 17 L 266 17 L 266 18 L 265 18 Z M 265 17 "/></clipPath><clipPath xml:id="clip56" id="clip56"><path d="M 256.070312 9.691406 L 273.546875 6.242188 L 275.988281 18.621094 L 258.515625 22.070312 Z M 256.070312 9.691406 "/></clipPath><clipPath xml:id="clip57" id="clip57"><path d="M 256.070312 9.691406 L 273.546875 6.242188 L 275.988281 18.621094 L 258.515625 22.070312 Z M 256.070312 9.691406 "/></clipPath><clipPath xml:id="clip58" id="clip58"><path d="M 256.070312 9.691406 L 273.882812 6.175781 L 276.371094 18.789062 L 258.558594 22.300781 Z M 256.070312 9.691406 "/></clipPath><clipPath xml:id="clip59" id="clip59"><path d="M 261 18 L 264 18 L 264 20 L 261 20 Z M 261 18 "/></clipPath><clipPath xml:id="clip60" id="clip60"><path d="M 256.070312 9.691406 L 273.546875 6.242188 L 275.988281 18.621094 L 258.515625 22.070312 Z M 256.070312 9.691406 "/></clipPath><clipPath xml:id="clip61" id="clip61"><path d="M 256.070312 9.691406 L 273.546875 6.242188 L 275.988281 18.621094 L 258.515625 22.070312 Z M 256.070312 9.691406 "/></clipPath><clipPath xml:id="clip62" id="clip62"><path d="M 256.070312 9.691406 L 273.882812 6.175781 L 276.371094 18.789062 L 258.558594 22.300781 Z M 256.070312 9.691406 "/></clipPath><clipPath xml:id="clip63" id="clip63"><path d="M 262 18 L 264 18 L 264 20 L 262 20 Z M 262 18 "/></clipPath><clipPath xml:id="clip64" id="clip64"><path d="M 256.070312 9.691406 L 273.546875 6.242188 L 275.988281 18.621094 L 258.515625 22.070312 Z M 256.070312 9.691406 "/></clipPath><clipPath xml:id="clip65" id="clip65"><path d="M 256.070312 9.691406 L 273.546875 6.242188 L 275.988281 18.621094 L 258.515625 22.070312 Z M 256.070312 9.691406 "/></clipPath><clipPath xml:id="clip66" id="clip66"><path d="M 256.070312 9.691406 L 273.882812 6.175781 L 276.371094 18.789062 L 258.558594 22.300781 Z M 256.070312 9.691406 "/></clipPath><clipPath xml:id="clip67" id="clip67"><path d="M 258 21 L 260 21 L 260 23 L 258 23 Z M 258 21 "/></clipPath><clipPath xml:id="clip68" id="clip68"><path d="M 256.070312 9.691406 L 273.546875 6.242188 L 275.988281 18.621094 L 258.515625 22.070312 Z M 256.070312 9.691406 "/></clipPath><clipPath xml:id="clip69" id="clip69"><path d="M 256.070312 9.691406 L 273.546875 6.242188 L 275.988281 18.621094 L 258.515625 22.070312 Z M 256.070312 9.691406 "/></clipPath><clipPath xml:id="clip70" id="clip70"><path d="M 256.070312 9.691406 L 273.882812 6.175781 L 276.371094 18.789062 L 258.558594 22.300781 Z M 256.070312 9.691406 "/></clipPath><clipPath xml:id="clip71" id="clip71"><path d="M 260 21 L 262 21 L 262 22 L 260 22 Z M 260 21 "/></clipPath><clipPath xml:id="clip72" id="clip72"><path d="M 256.070312 9.691406 L 273.546875 6.242188 L 275.988281 18.621094 L 258.515625 22.070312 Z M 256.070312 9.691406 "/></clipPath><clipPath xml:id="clip73" id="clip73"><path d="M 256.070312 9.691406 L 273.546875 6.242188 L 275.988281 18.621094 L 258.515625 22.070312 Z M 256.070312 9.691406 "/></clipPath><clipPath xml:id="clip74" id="clip74"><path d="M 256.070312 9.691406 L 273.882812 6.175781 L 276.371094 18.789062 L 258.558594 22.300781 Z M 256.070312 9.691406 "/></clipPath><clipPath xml:id="clip75" id="clip75"><path d="M 260.8125 21.5 L 261.355469 21.394531 L 261.421875 21.738281 L 260.882812 21.84375 Z M 260.8125 21.5 "/></clipPath><clipPath xml:id="clip76" id="clip76"><path d="M 260.8125 21.5 L 261.355469 21.394531 L 261.421875 21.738281 L 260.882812 21.84375 Z M 260.8125 21.5 "/></clipPath><clipPath xml:id="clip77" id="clip77"><path d="M 260 6 L 275 6 L 275 22 L 260 22 Z M 260 6 "/></clipPath><clipPath xml:id="clip78" id="clip78"><path d="M 256.070312 9.691406 L 273.546875 6.242188 L 275.988281 18.621094 L 258.515625 22.070312 Z M 256.070312 9.691406 "/></clipPath><clipPath xml:id="clip79" id="clip79"><path d="M 256.070312 9.691406 L 273.546875 6.242188 L 275.988281 18.621094 L 258.515625 22.070312 Z M 256.070312 9.691406 "/></clipPath><clipPath xml:id="clip80" id="clip80"><path d="M 256.070312 9.691406 L 273.882812 6.175781 L 276.371094 18.789062 L 258.558594 22.300781 Z M 256.070312 9.691406 "/></clipPath><clipPath xml:id="clip81" id="clip81"><path d="M 257.945312 9.324219 L 273.882812 6.175781 L 276.269531 18.285156 L 260.335938 21.433594 Z M 257.945312 9.324219 "/></clipPath><clipPath xml:id="clip82" id="clip82"><path d="M 257.945312 9.324219 L 273.875 6.179688 L 276.265625 18.289062 L 260.335938 21.433594 Z M 257.945312 9.324219 "/></clipPath><clipPath xml:id="clip83" id="clip83"><path d="M 220 12.125 L 263 12.125 L 263 47.402344 L 220 47.402344 Z M 220 12.125 "/></clipPath></defs><g xml:id="surface1" id="surface1"><g clip-rule="nonzero" clip-path="url(#clip1)"><g style="fill:rgb(0%,33.729553%,52.549744%);fill-opacity:1;"><g transform="translate(96.193932, 60.868228)"><path style="stroke:none;" d="M 1.605469 10.492188 C 2.078125 10.492188 2.457031 10.304688 2.835938 9.925781 C 3.496094 9.167969 4.066406 8.320312 4.539062 7.375 C 5.199219 6.144531 5.765625 5.011719 6.332031 3.78125 C 6.804688 2.550781 7.375 1.417969 7.941406 0.1875 C 9.167969 -2.550781 10.492188 -5.199219 11.722656 -7.941406 C 12.953125 -10.585938 14.179688 -13.234375 15.410156 -15.882812 C 19.757812 -24.863281 26.847656 -36.679688 34.882812 -42.730469 C 35.167969 -42.824219 35.355469 -43.011719 35.640625 -43.203125 C 35.921875 -43.296875 36.207031 -43.484375 36.492188 -43.582031 L 36.679688 -43.582031 C 36.964844 -43.582031 37.152344 -43.484375 37.152344 -43.203125 C 37.152344 -42.824219 37.152344 -42.445312 37.152344 -42.066406 C 37.152344 -41.691406 37.058594 -41.3125 36.964844 -41.027344 C 36.585938 -38.382812 35.828125 -35.828125 35.074219 -33.277344 C 33.84375 -29.210938 32.519531 -25.144531 31.386719 -21.082031 C 30.628906 -18.152344 30.0625 -15.316406 29.777344 -12.007812 C 29.871094 -11.722656 29.871094 -11.34375 29.871094 -10.964844 C 29.777344 -10.585938 29.871094 -10.210938 29.96875 -9.832031 C 30.25 -8.222656 31.007812 -7.46875 32.140625 -7.46875 C 32.707031 -7.46875 33.277344 -7.65625 33.84375 -8.035156 C 34.695312 -8.507812 35.546875 -9.265625 36.394531 -10.304688 C 37.4375 -11.628906 38.476562 -12.953125 39.421875 -14.179688 C 41.785156 -17.488281 44.148438 -20.417969 46.792969 -23.351562 C 47.265625 -23.726562 47.644531 -24.105469 48.023438 -24.578125 C 48.402344 -24.957031 48.875 -25.335938 49.347656 -25.617188 C 49.820312 -25.902344 50.199219 -26.089844 50.480469 -26.089844 C 51.617188 -26.089844 51.804688 -24.296875 52.089844 -23.445312 C 52.183594 -22.59375 52.371094 -21.835938 52.464844 -21.082031 C 52.5625 -20.230469 52.75 -19.378906 52.84375 -18.527344 C 53.035156 -17.394531 53.222656 -16.261719 53.410156 -15.125 C 53.601562 -13.898438 53.789062 -12.761719 54.074219 -11.53125 C 54.640625 -8.886719 57.097656 -5.292969 59.839844 -5.292969 C 60.597656 -5.292969 61.542969 -5.578125 62.675781 -6.050781 C 64.757812 -7.183594 73.074219 -17.488281 73.832031 -19.851562 C 73.925781 -20.324219 73.832031 -20.609375 73.359375 -20.796875 C 73.265625 -20.890625 72.980469 -20.988281 72.695312 -20.988281 C 72.414062 -20.988281 72.320312 -20.988281 72.222656 -20.890625 C 71.941406 -20.796875 71.75 -20.609375 71.46875 -20.324219 C 69.105469 -17.109375 67.214844 -14.558594 65.796875 -12.574219 C 64.378906 -10.585938 63.339844 -9.453125 62.867188 -9.074219 C 61.824219 -8.222656 60.878906 -7.847656 60.03125 -7.847656 C 57.003906 -7.847656 56.246094 -12.855469 55.679688 -15.597656 L 54.546875 -23.917969 C 54.074219 -26.46875 53.316406 -28.644531 50.292969 -28.644531 C 49.253906 -28.550781 48.402344 -28.171875 47.550781 -27.414062 C 46.132812 -26.1875 45 -25.050781 43.863281 -23.632812 C 41.21875 -20.703125 39.042969 -17.773438 36.679688 -14.652344 C 35.828125 -13.425781 34.789062 -12.289062 33.75 -11.15625 C 33.558594 -10.871094 33.277344 -10.683594 32.992188 -10.683594 C 32.804688 -10.683594 32.707031 -10.683594 32.613281 -10.777344 C 32.332031 -10.964844 32.234375 -11.34375 32.234375 -11.816406 C 32.234375 -13.992188 32.707031 -15.976562 33.179688 -17.960938 C 34.222656 -22.214844 35.355469 -26.28125 36.773438 -30.441406 C 37.8125 -33.75 38.757812 -36.964844 39.421875 -40.273438 C 39.703125 -41.691406 39.800781 -43.203125 39.515625 -44.621094 C 39.136719 -46.132812 38.191406 -46.511719 36.773438 -46.511719 C 36.492188 -46.417969 36.207031 -46.320312 35.921875 -46.226562 C 35.640625 -46.132812 35.355469 -45.945312 35.074219 -45.847656 C 24.769531 -38.949219 16.636719 -24.578125 11.4375 -13.425781 C 10.398438 -11.058594 9.265625 -8.792969 8.222656 -6.429688 C 7.183594 -4.066406 6.050781 -1.703125 5.011719 0.660156 C 4.820312 1.132812 4.632812 1.605469 4.441406 2.078125 C 4.160156 2.550781 3.96875 3.023438 3.78125 3.496094 C 3.6875 3.59375 3.59375 3.78125 3.496094 3.96875 C 3.402344 4.160156 3.214844 4.253906 2.929688 4.253906 C 2.648438 4.253906 2.457031 4.160156 2.550781 3.96875 C 2.550781 3.6875 2.550781 3.496094 2.550781 3.308594 C 2.550781 2.929688 2.648438 2.457031 2.742188 1.796875 C 3.496094 -4.253906 4.726562 -10.019531 6.523438 -15.691406 C 7.75 -19.851562 9.074219 -24.011719 10.492188 -28.078125 C 11.816406 -32.140625 13.140625 -36.300781 14.464844 -40.460938 C 15.125 -42.445312 15.691406 -44.335938 16.261719 -46.320312 C 16.734375 -48.210938 17.394531 -50.101562 18.152344 -51.992188 C 18.433594 -52.65625 18.339844 -53.222656 17.679688 -53.601562 C 17.582031 -53.695312 17.488281 -53.695312 17.207031 -53.695312 C 16.828125 -53.695312 16.449219 -53.507812 16.070312 -53.035156 C 15.789062 -52.5625 15.503906 -51.992188 15.316406 -51.519531 C 15.125 -50.953125 14.9375 -50.386719 14.746094 -49.914062 L 8.792969 -31.007812 C 6.144531 -22.6875 3.402344 -14.652344 1.605469 -6.050781 C 0.757812 -1.890625 -0.09375 2.078125 0 6.523438 C 0 6.996094 0 7.375 0 7.847656 C 0 8.320312 0.09375 8.792969 0.1875 9.265625 C 0.378906 10.113281 0.851562 10.492188 1.605469 10.492188 Z M 1.605469 10.492188 "/></g></g></g><g clip-rule="nonzero" clip-path="url(#clip2)"><g style="fill:rgb(0%,33.729553%,52.549744%);fill-opacity:1;"><g transform="translate(165.275782, 60.868228)"><path style="stroke:none;" d="M 6.617188 9.640625 C 6.902344 9.640625 7.277344 9.453125 7.65625 9.074219 C 8.414062 7.941406 8.414062 6.710938 8.035156 5.199219 L 8.886719 -0.945312 C 8.980469 -1.511719 9.265625 -1.796875 9.640625 -1.796875 C 10.019531 -1.796875 12.007812 -0.757812 12.382812 -0.472656 C 15.503906 1.230469 21.460938 3.496094 25.050781 3.496094 C 31.574219 3.496094 39.988281 -2.363281 44.527344 -6.902344 C 46.320312 -8.601562 48.117188 -10.304688 49.914062 -12.101562 C 51.617188 -13.800781 53.410156 -15.503906 55.207031 -17.207031 C 55.679688 -17.679688 56.058594 -18.054688 56.246094 -18.339844 C 57.191406 -19.378906 57.382812 -20.136719 56.816406 -20.796875 C 56.625 -20.988281 56.4375 -21.082031 56.246094 -21.082031 C 55.773438 -21.082031 55.207031 -20.703125 54.546875 -20.042969 L 43.484375 -9.265625 C 38.757812 -5.011719 31.574219 1.039062 25.050781 1.039062 C 21.742188 1.039062 12.007812 -2.457031 9.738281 -5.199219 C 9.832031 -6.050781 9.832031 -6.804688 9.925781 -7.65625 C 10.019531 -8.414062 10.019531 -9.167969 10.113281 -10.019531 C 10.304688 -11.4375 10.964844 -12.480469 12.195312 -13.328125 C 19.664062 -18.246094 27.226562 -24.105469 33.75 -30.914062 C 40.273438 -37.625 45.945312 -45.1875 49.628906 -53.507812 C 50.101562 -54.640625 50.574219 -55.871094 50.671875 -57.097656 C 50.671875 -57.761719 50.386719 -58.140625 49.820312 -58.234375 C 49.726562 -58.234375 49.726562 -58.234375 49.726562 -58.328125 C 49.628906 -58.328125 49.628906 -58.328125 49.535156 -58.328125 C 49.253906 -58.328125 48.96875 -58.042969 48.683594 -57.570312 C 46.226562 -47.929688 33.9375 -33.75 26.5625 -27.414062 C 22.5 -23.726562 18.152344 -20.609375 13.707031 -17.300781 C 13.425781 -17.207031 13.140625 -17.015625 12.953125 -16.828125 C 12.667969 -16.636719 12.382812 -16.449219 12.101562 -16.355469 C 12.007812 -16.261719 11.910156 -16.261719 11.816406 -16.261719 C 11.4375 -16.261719 11.25 -16.449219 11.25 -16.828125 C 11.25 -17.109375 11.25 -17.488281 11.25 -17.773438 C 11.25 -18.054688 11.25 -18.339844 11.34375 -18.625 C 12.953125 -29.117188 15.03125 -38.855469 18.054688 -49.0625 C 18.152344 -49.535156 18.339844 -49.914062 18.433594 -50.292969 C 18.527344 -50.671875 18.625 -51.046875 18.71875 -51.425781 C 18.8125 -52.089844 18.625 -52.464844 18.152344 -52.75 C 18.054688 -52.75 18.054688 -52.75 17.960938 -52.84375 C 17.867188 -52.84375 17.867188 -52.84375 17.773438 -52.84375 C 17.207031 -52.84375 16.828125 -52.5625 16.636719 -52.089844 C 16.355469 -51.425781 15.976562 -50.671875 15.691406 -49.726562 C 12.382812 -38.664062 9.925781 -27.414062 8.507812 -15.976562 C 8.222656 -14.085938 7.46875 -12.953125 5.957031 -12.101562 C 5.011719 -11.628906 1.703125 -9.738281 0.757812 -8.792969 C -0.378906 -7.75 -0.378906 -6.804688 1.039062 -6.144531 C 1.324219 -6.050781 1.511719 -5.957031 1.796875 -5.859375 C 1.984375 -5.765625 2.175781 -5.671875 2.457031 -5.578125 C 3.308594 -5.292969 4.253906 -5.011719 5.011719 -4.632812 C 6.617188 -3.875 6.804688 -3.78125 6.523438 -1.984375 C 6.429688 -0.566406 6.238281 0.945312 6.050781 2.363281 C 5.859375 3.78125 5.671875 5.199219 5.484375 6.617188 C 5.386719 7.277344 5.199219 8.035156 5.484375 8.695312 C 5.671875 9.359375 6.050781 9.640625 6.617188 9.640625 Z M 6.617188 -6.902344 C 6.238281 -6.902344 5.957031 -6.996094 5.765625 -7.089844 C 5.484375 -7.183594 5.292969 -7.277344 5.105469 -7.375 C 4.820312 -7.46875 4.632812 -7.65625 4.347656 -7.75 C 4.820312 -8.886719 6.050781 -9.359375 7.183594 -9.738281 C 7.847656 -9.074219 7.5625 -8.601562 7.46875 -7.941406 C 7.375 -7.277344 7.089844 -6.902344 6.617188 -6.902344 Z M 6.617188 -6.902344 "/></g></g></g><g clip-rule="nonzero" clip-path="url(#clip3)"><g clip-rule="nonzero" clip-path="url(#clip4)"><g clip-rule="nonzero" clip-path="url(#clip5)"><g clip-rule="nonzero" clip-path="url(#clip6)"><path style=" stroke:none;fill-rule:evenodd;fill:rgb(100%,59.999084%,59.999084%);fill-opacity:1;" d="M 272.621094 8.277344 C 272.636719 8.328125 272.6875 8.324219 272.710938 8.367188 C 272.816406 8.347656 272.8125 8.253906 272.898438 8.222656 C 272.855469 8.167969 272.863281 8.035156 272.761719 8.070312 C 272.746094 8.160156 272.574219 8.144531 272.621094 8.277344 Z M 272.257812 7.914062 C 272.472656 8.003906 272.480469 7.730469 272.523438 7.609375 C 272.328125 7.554688 272.230469 7.730469 272.257812 7.914062 Z M 272.839844 9.753906 C 272.527344 8.898438 272.015625 8.339844 271.339844 8.023438 C 271.519531 7.613281 271.886719 7.324219 272.144531 6.960938 C 272.820312 6.949219 273.582031 7.460938 273.789062 8.15625 C 274.054688 9.042969 273.335938 9.386719 272.839844 9.753906 "/></g></g></g></g><g clip-rule="nonzero" clip-path="url(#clip7)"><g clip-rule="nonzero" clip-path="url(#clip8)"><g clip-rule="nonzero" clip-path="url(#clip9)"><g clip-rule="nonzero" clip-path="url(#clip10)"><path style=" stroke:none;fill-rule:evenodd;fill:rgb(0%,0%,0%);fill-opacity:1;" d="M 272.523438 7.609375 C 272.480469 7.730469 272.472656 8.003906 272.257812 7.914062 C 272.230469 7.730469 272.328125 7.554688 272.523438 7.609375 "/></g></g></g></g><g clip-rule="nonzero" clip-path="url(#clip11)"><g clip-rule="nonzero" clip-path="url(#clip12)"><g clip-rule="nonzero" clip-path="url(#clip13)"><g clip-rule="nonzero" clip-path="url(#clip14)"><path style=" stroke:none;fill-rule:evenodd;fill:rgb(92.939758%,92.939758%,92.939758%);fill-opacity:1;" d="M 270.25 9.46875 C 270.933594 9.5625 271.300781 10.339844 271.449219 10.96875 C 271.75 10.839844 271.453125 10.445312 271.332031 10.195312 C 271.09375 9.699219 270.761719 9.261719 270.222656 9.332031 C 270.242188 9.425781 270.175781 9.410156 270.25 9.46875 Z M 271.066406 9.019531 C 271.363281 9.210938 271.640625 9.523438 271.816406 9.882812 C 271.871094 10 271.820312 10.226562 272.023438 10.203125 C 272.117188 9.964844 271.894531 9.617188 271.710938 9.363281 C 271.574219 9.164062 271.335938 9.011719 271.21875 8.878906 C 271.171875 8.890625 271.140625 8.878906 271.109375 8.867188 C 271.121094 8.933594 271.019531 8.929688 271.066406 9.019531 Z M 272.808594 10.519531 C 272.480469 10.695312 272.253906 11.054688 272.25 11.535156 C 272.121094 11.558594 271.992188 11.582031 271.867188 11.609375 C 271.722656 12 271.445312 12.707031 270.886719 12.523438 C 270.871094 12.253906 271.117188 12.101562 271.148438 11.824219 C 271.296875 10.441406 269.8125 9.679688 268.734375 10.417969 C 268.664062 10.058594 268.753906 9.808594 268.941406 9.621094 C 269.59375 9.75 269.796875 9.289062 269.902344 8.816406 C 270.046875 8.738281 270.097656 8.785156 270.285156 8.738281 C 270.511719 8.558594 270.339844 8.109375 270.769531 8.066406 C 271.5 8.25 272.359375 8.851562 272.664062 9.789062 C 272.75 10.046875 272.695312 10.3125 272.808594 10.519531 "/></g></g></g></g><g clip-rule="nonzero" clip-path="url(#clip15)"><g clip-rule="nonzero" clip-path="url(#clip16)"><g clip-rule="nonzero" clip-path="url(#clip17)"><g clip-rule="nonzero" clip-path="url(#clip18)"><path style=" stroke:none;fill-rule:evenodd;fill:rgb(0%,0%,0%);fill-opacity:1;" d="M 272.761719 8.070312 C 272.863281 8.035156 272.855469 8.167969 272.898438 8.222656 C 272.8125 8.253906 272.816406 8.347656 272.710938 8.367188 C 272.6875 8.324219 272.636719 8.328125 272.621094 8.277344 C 272.574219 8.144531 272.746094 8.160156 272.761719 8.070312 "/></g></g></g></g><g clip-rule="nonzero" clip-path="url(#clip19)"><g clip-rule="nonzero" clip-path="url(#clip20)"><g clip-rule="nonzero" clip-path="url(#clip21)"><g clip-rule="nonzero" clip-path="url(#clip22)"><path style=" stroke:none;fill-rule:evenodd;fill:rgb(0%,0%,0%);fill-opacity:1;" d="M 271.109375 8.867188 C 271.140625 8.878906 271.171875 8.890625 271.21875 8.878906 C 271.335938 9.011719 271.574219 9.164062 271.710938 9.363281 C 271.894531 9.617188 272.117188 9.964844 272.023438 10.203125 C 271.820312 10.226562 271.871094 10 271.816406 9.882812 C 271.640625 9.523438 271.363281 9.210938 271.066406 9.019531 C 271.019531 8.929688 271.121094 8.933594 271.109375 8.867188 "/></g></g></g></g><g clip-rule="nonzero" clip-path="url(#clip23)"><g clip-rule="nonzero" clip-path="url(#clip24)"><g clip-rule="nonzero" clip-path="url(#clip25)"><g clip-rule="nonzero" clip-path="url(#clip26)"><path style=" stroke:none;fill-rule:evenodd;fill:rgb(0%,0%,0%);fill-opacity:1;" d="M 270.222656 9.332031 C 270.761719 9.261719 271.09375 9.699219 271.332031 10.195312 C 271.453125 10.445312 271.75 10.839844 271.449219 10.96875 C 271.300781 10.339844 270.933594 9.5625 270.25 9.46875 C 270.175781 9.410156 270.242188 9.425781 270.222656 9.332031 "/></g></g></g></g><g clip-rule="nonzero" clip-path="url(#clip27)"><g clip-rule="nonzero" clip-path="url(#clip28)"><g clip-rule="nonzero" clip-path="url(#clip29)"><g clip-rule="nonzero" clip-path="url(#clip30)"><path style=" stroke:none;fill-rule:evenodd;fill:rgb(100%,85.488892%,0%);fill-opacity:1;" d="M 269.285156 10.457031 C 268.785156 11.21875 268.136719 11.867188 267.523438 12.539062 C 266.253906 13.933594 265.179688 15.507812 263.820312 16.886719 C 263.664062 16.640625 263.414062 16.53125 263.042969 16.605469 C 263.75 15.5 264.769531 14.59375 265.703125 13.585938 C 266.363281 12.871094 267.097656 12.113281 267.882812 11.417969 C 268.308594 11.042969 268.609375 10.71875 269.175781 10.441406 C 269.207031 10.453125 269.238281 10.464844 269.285156 10.457031 "/></g></g></g></g><g clip-rule="nonzero" clip-path="url(#clip31)"><g clip-rule="nonzero" clip-path="url(#clip32)"><g clip-rule="nonzero" clip-path="url(#clip33)"><g clip-rule="nonzero" clip-path="url(#clip34)"><path style=" stroke:none;fill-rule:evenodd;fill:rgb(100%,87.449646%,25.099182%);fill-opacity:1;" d="M 268.917969 12.261719 C 269.03125 12.265625 268.992188 12.273438 269.09375 12.230469 C 269.101562 12.128906 269.15625 11.953125 269.058594 11.875 C 268.855469 11.898438 268.910156 12.09375 268.917969 12.261719 Z M 269.265625 12.011719 C 269.296875 12.015625 269.335938 12 269.34375 12.035156 C 269.511719 12.03125 269.484375 11.722656 269.324219 11.75 C 269.332031 11.855469 269.199219 11.867188 269.265625 12.011719 Z M 270.761719 10.960938 C 269.566406 12.425781 268.152344 13.695312 266.871094 15.089844 C 266.109375 15.921875 265.429688 16.828125 264.574219 17.570312 C 264.453125 17.269531 264.273438 17.054688 263.878906 17.164062 C 265.800781 14.867188 267.726562 12.570312 269.730469 10.332031 C 270.207031 10.34375 270.511719 10.609375 270.761719 10.960938 "/></g></g></g></g><g clip-rule="nonzero" clip-path="url(#clip35)"><g clip-rule="nonzero" clip-path="url(#clip36)"><g clip-rule="nonzero" clip-path="url(#clip37)"><g clip-rule="nonzero" clip-path="url(#clip38)"><path style=" stroke:none;fill-rule:evenodd;fill:rgb(100%,85.488892%,0%);fill-opacity:1;" d="M 265.804688 17.578125 C 265.980469 17.546875 265.960938 17.378906 265.910156 17.195312 C 265.847656 17.21875 265.824219 17.171875 265.765625 17.1875 C 265.785156 17.363281 265.710938 17.425781 265.804688 17.578125 Z M 266.097656 17.050781 C 266.183594 17.046875 266.230469 17.019531 266.265625 16.980469 C 266.230469 16.898438 266.199219 16.808594 266.09375 16.835938 C 266.066406 16.933594 266.035156 16.953125 266.097656 17.050781 Z M 265.15625 18.503906 C 265.105469 18.183594 264.886719 17.96875 264.65625 17.804688 C 266.652344 15.609375 268.652344 13.414062 270.792969 11.316406 C 270.832031 11.300781 270.859375 11.308594 270.871094 11.335938 C 270.9375 11.640625 270.84375 11.839844 270.839844 12.101562 C 269.03125 14.292969 267.148438 16.433594 265.15625 18.503906 "/></g></g></g></g><g clip-rule="nonzero" clip-path="url(#clip39)"><g clip-rule="nonzero" clip-path="url(#clip40)"><g clip-rule="nonzero" clip-path="url(#clip41)"><g clip-rule="nonzero" clip-path="url(#clip42)"><path style=" stroke:none;fill-rule:evenodd;fill:rgb(0%,0%,0%);fill-opacity:1;" d="M 269.324219 11.75 C 269.484375 11.722656 269.511719 12.03125 269.34375 12.035156 C 269.335938 12 269.296875 12.015625 269.265625 12.011719 C 269.199219 11.867188 269.332031 11.855469 269.324219 11.75 "/></g></g></g></g><g clip-rule="nonzero" clip-path="url(#clip43)"><g clip-rule="nonzero" clip-path="url(#clip44)"><g clip-rule="nonzero" clip-path="url(#clip45)"><g clip-rule="nonzero" clip-path="url(#clip46)"><path style=" stroke:none;fill-rule:evenodd;fill:rgb(0%,0%,0%);fill-opacity:1;" d="M 269.058594 11.875 C 269.15625 11.953125 269.101562 12.128906 269.09375 12.230469 C 268.992188 12.273438 269.03125 12.265625 268.917969 12.261719 C 268.910156 12.09375 268.855469 11.898438 269.058594 11.875 "/></g></g></g></g><g clip-rule="nonzero" clip-path="url(#clip47)"><g clip-rule="nonzero" clip-path="url(#clip48)"><g clip-rule="nonzero" clip-path="url(#clip49)"><g clip-rule="nonzero" clip-path="url(#clip50)"><path style=" stroke:none;fill-rule:evenodd;fill:rgb(98.81897%,97.648621%,90.979004%);fill-opacity:1;" d="M 262.988281 19.253906 C 263.015625 19.257812 263.03125 19.277344 263.035156 19.316406 C 263.425781 19.144531 263.648438 18.863281 263.90625 18.605469 C 263.527344 18.652344 263.210938 19.003906 262.988281 19.253906 Z M 261.859375 19.585938 C 262.039062 19.714844 262.132812 19.40625 262.191406 19.265625 C 262.527344 18.949219 262.855469 18.53125 263.03125 18.199219 C 262.632812 18.535156 262.117188 19.054688 261.859375 19.585938 Z M 263.570312 16.898438 C 263.664062 17.113281 263.621094 17.28125 263.714844 17.449219 C 263.90625 17.433594 264.21875 17.3125 264.34375 17.503906 C 264.417969 17.71875 264.367188 17.84375 264.371094 18.007812 C 264.46875 18.101562 264.652344 18.0625 264.757812 18.148438 C 264.863281 18.308594 264.988281 18.519531 264.953125 18.757812 C 264.105469 19.421875 262.898438 19.785156 262.007812 20.351562 C 261.78125 20.273438 261.625 20.082031 261.398438 20.003906 C 261.492188 19.539062 261.761719 18.972656 261.988281 18.40625 C 262.171875 17.9375 262.574219 17.015625 262.910156 16.847656 C 263.085938 16.761719 263.375 16.792969 263.570312 16.898438 "/></g></g></g></g><g clip-rule="nonzero" clip-path="url(#clip51)"><g clip-rule="nonzero" clip-path="url(#clip52)"><g clip-rule="nonzero" clip-path="url(#clip53)"><g clip-rule="nonzero" clip-path="url(#clip54)"><path style=" stroke:none;fill-rule:evenodd;fill:rgb(0%,0%,0%);fill-opacity:1;" d="M 266.09375 16.835938 C 266.199219 16.808594 266.230469 16.898438 266.265625 16.980469 C 266.230469 17.019531 266.183594 17.046875 266.097656 17.050781 C 266.035156 16.953125 266.066406 16.933594 266.09375 16.835938 "/></g></g></g></g><g clip-rule="nonzero" clip-path="url(#clip55)"><g clip-rule="nonzero" clip-path="url(#clip56)"><g clip-rule="nonzero" clip-path="url(#clip57)"><g clip-rule="nonzero" clip-path="url(#clip58)"><path style=" stroke:none;fill-rule:evenodd;fill:rgb(0%,0%,0%);fill-opacity:1;" d="M 265.765625 17.1875 C 265.824219 17.171875 265.847656 17.21875 265.910156 17.195312 C 265.960938 17.378906 265.980469 17.546875 265.804688 17.578125 C 265.710938 17.425781 265.785156 17.363281 265.765625 17.1875 "/></g></g></g></g><g clip-rule="nonzero" clip-path="url(#clip59)"><g clip-rule="nonzero" clip-path="url(#clip60)"><g clip-rule="nonzero" clip-path="url(#clip61)"><g clip-rule="nonzero" clip-path="url(#clip62)"><path style=" stroke:none;fill-rule:evenodd;fill:rgb(0%,0%,0%);fill-opacity:1;" d="M 263.03125 18.199219 C 262.855469 18.53125 262.527344 18.949219 262.191406 19.265625 C 262.132812 19.40625 262.039062 19.714844 261.859375 19.585938 C 262.117188 19.054688 262.632812 18.535156 263.03125 18.199219 "/></g></g></g></g><g clip-rule="nonzero" clip-path="url(#clip63)"><g clip-rule="nonzero" clip-path="url(#clip64)"><g clip-rule="nonzero" clip-path="url(#clip65)"><g clip-rule="nonzero" clip-path="url(#clip66)"><path style=" stroke:none;fill-rule:evenodd;fill:rgb(0%,0%,0%);fill-opacity:1;" d="M 263.90625 18.605469 C 263.648438 18.863281 263.425781 19.144531 263.035156 19.316406 C 263.03125 19.277344 263.015625 19.257812 262.988281 19.253906 C 263.210938 19.003906 263.527344 18.652344 263.90625 18.605469 "/></g></g></g></g><g clip-rule="nonzero" clip-path="url(#clip67)"><g clip-rule="nonzero" clip-path="url(#clip68)"><g clip-rule="nonzero" clip-path="url(#clip69)"><g clip-rule="nonzero" clip-path="url(#clip70)"><path style=" stroke:none;fill-rule:evenodd;fill:rgb(0%,0%,0%);fill-opacity:1;" d="M 259.371094 21.667969 C 259.347656 21.925781 259.285156 22.152344 258.933594 22.1875 C 258.496094 21.941406 258.933594 21.503906 259.371094 21.667969 "/></g></g></g></g><g clip-rule="nonzero" clip-path="url(#clip71)"><g clip-rule="nonzero" clip-path="url(#clip72)"><g clip-rule="nonzero" clip-path="url(#clip73)"><g clip-rule="nonzero" clip-path="url(#clip74)"><g clip-rule="nonzero" clip-path="url(#clip75)"><g clip-rule="nonzero" clip-path="url(#clip76)"><path style=" stroke:none;fill-rule:evenodd;fill:rgb(0%,0%,0%);fill-opacity:1;" d="M 261.359375 21.457031 C 261.421875 21.710938 261.222656 21.789062 260.960938 21.824219 C 260.640625 21.601562 261.097656 21.375 261.359375 21.457031 "/></g></g></g></g></g></g><g clip-rule="nonzero" clip-path="url(#clip77)"><g clip-rule="nonzero" clip-path="url(#clip78)"><g clip-rule="nonzero" clip-path="url(#clip79)"><g clip-rule="nonzero" clip-path="url(#clip80)"><g clip-rule="nonzero" clip-path="url(#clip81)"><g clip-rule="nonzero" clip-path="url(#clip82)"><path style=" stroke:none;fill-rule:evenodd;fill:rgb(0%,0%,0%);fill-opacity:1;" d="M 262.910156 16.847656 C 262.574219 17.015625 262.171875 17.9375 261.988281 18.40625 C 261.761719 18.972656 261.492188 19.539062 261.398438 20.003906 C 261.625 20.082031 261.78125 20.273438 262.007812 20.351562 C 262.898438 19.785156 264.105469 19.421875 264.953125 18.757812 C 264.988281 18.519531 264.863281 18.308594 264.757812 18.148438 C 264.652344 18.0625 264.46875 18.101562 264.371094 18.007812 C 264.367188 17.84375 264.417969 17.71875 264.34375 17.503906 C 264.21875 17.3125 263.90625 17.433594 263.714844 17.449219 C 263.621094 17.28125 263.664062 17.113281 263.570312 16.898438 C 263.375 16.792969 263.085938 16.761719 262.910156 16.847656 Z M 270.839844 12.101562 C 270.84375 11.839844 270.9375 11.640625 270.871094 11.335938 C 270.859375 11.308594 270.832031 11.300781 270.792969 11.316406 C 268.652344 13.414062 266.652344 15.609375 264.65625 17.804688 C 264.886719 17.96875 265.105469 18.183594 265.15625 18.503906 C 267.148438 16.433594 269.03125 14.292969 270.839844 12.101562 Z M 269.730469 10.332031 C 267.726562 12.570312 265.800781 14.867188 263.878906 17.164062 C 264.273438 17.054688 264.453125 17.269531 264.574219 17.570312 C 265.429688 16.828125 266.109375 15.921875 266.871094 15.089844 C 268.152344 13.695312 269.566406 12.425781 270.761719 10.960938 C 270.511719 10.609375 270.207031 10.34375 269.730469 10.332031 Z M 269.175781 10.441406 C 268.609375 10.71875 268.308594 11.042969 267.882812 11.417969 C 267.097656 12.113281 266.363281 12.871094 265.703125 13.585938 C 264.769531 14.59375 263.75 15.5 263.042969 16.605469 C 263.414062 16.53125 263.664062 16.640625 263.820312 16.886719 C 265.179688 15.507812 266.253906 13.933594 267.523438 12.539062 C 268.136719 11.867188 268.785156 11.21875 269.285156 10.457031 C 269.238281 10.464844 269.207031 10.453125 269.175781 10.441406 Z M 272.664062 9.789062 C 272.359375 8.851562 271.5 8.25 270.769531 8.066406 C 270.339844 8.109375 270.511719 8.558594 270.285156 8.738281 C 270.097656 8.785156 270.046875 8.738281 269.902344 8.816406 C 269.796875 9.289062 269.59375 9.75 268.941406 9.621094 C 268.753906 9.808594 268.664062 10.058594 268.734375 10.417969 C 269.8125 9.679688 271.296875 10.441406 271.148438 11.824219 C 271.117188 12.101562 270.871094 12.253906 270.886719 12.523438 C 271.445312 12.707031 271.722656 12 271.867188 11.609375 C 271.992188 11.582031 272.121094 11.558594 272.25 11.535156 C 272.253906 11.054688 272.480469 10.695312 272.808594 10.519531 C 272.695312 10.3125 272.75 10.046875 272.664062 9.789062 Z M 273.789062 8.15625 C 273.582031 7.460938 272.820312 6.949219 272.144531 6.960938 C 271.886719 7.324219 271.519531 7.613281 271.339844 8.023438 C 272.015625 8.339844 272.527344 8.898438 272.839844 9.753906 C 273.335938 9.386719 274.054688 9.042969 273.789062 8.15625 Z M 273.164062 10.125 C 273.273438 10.449219 273.226562 10.667969 273.128906 10.855469 C 273.027344 10.902344 272.890625 11.035156 272.753906 10.964844 C 272.824219 11.484375 272.648438 11.839844 272.15625 11.984375 C 272.101562 12.308594 271.960938 12.582031 271.738281 12.792969 C 271.34375 13.027344 270.972656 12.84375 270.621094 13.011719 C 270.460938 13.089844 270.265625 13.402344 270.0625 13.664062 C 269.554688 14.328125 268.929688 14.988281 268.40625 15.546875 C 268.03125 15.953125 267.695312 16.425781 267.285156 16.816406 C 266.410156 17.644531 265.722656 18.519531 264.929688 19.378906 C 263.789062 19.722656 262.765625 20.46875 261.632812 21.003906 C 261.363281 21.132812 261.046875 21.257812 260.765625 21.210938 C 260.589844 21.28125 260.535156 21.480469 260.328125 21.371094 C 260.390625 21.0625 260.597656 20.847656 260.753906 20.601562 C 260.777344 20.242188 260.90625 19.902344 261.023438 19.570312 C 261.265625 18.875 261.496094 18.230469 261.820312 17.570312 C 262.164062 16.867188 262.515625 16.363281 263.058594 15.769531 C 264.652344 14.039062 266.386719 12.132812 268.179688 10.527344 C 268.007812 9.847656 268.332031 9.050781 269.191406 9.246094 C 269.332031 8.976562 269.332031 8.613281 269.570312 8.410156 C 269.695312 8.402344 269.785156 8.449219 269.933594 8.410156 C 270.058594 8.003906 270.449219 7.308594 270.921875 7.746094 C 271.351562 7.371094 271.542969 6.539062 272.285156 6.574219 C 272.40625 6.59375 272.289062 6.457031 272.410156 6.476562 C 273.304688 6.558594 274.015625 7.257812 274.265625 8.171875 C 274.539062 9.179688 273.71875 9.558594 273.164062 10.125 "/></g></g></g></g></g></g><path style=" stroke:none;fill-rule:nonzero;fill:rgb(6.269836%,5.879211%,5.099487%);fill-opacity:1;" d="M 231.25 26.332031 L 232.285156 26.332031 C 232.929688 26.332031 233.460938 25.820312 233.460938 25.195312 C 233.460938 24.566406 232.929688 24.058594 232.285156 24.058594 L 231.25 24.058594 Z M 232.285156 27 L 230.90625 27 C 230.714844 27 230.558594 26.847656 230.558594 26.664062 L 230.558594 23.722656 C 230.558594 23.539062 230.714844 23.386719 230.90625 23.386719 L 232.285156 23.386719 C 233.3125 23.386719 234.152344 24.199219 234.152344 25.195312 C 234.152344 26.1875 233.3125 27 232.285156 27 "/><path style=" stroke:none;fill-rule:nonzero;fill:rgb(6.269836%,5.879211%,5.099487%);fill-opacity:1;" d="M 231.25 29.273438 L 232.285156 29.273438 C 232.929688 29.273438 233.460938 28.761719 233.460938 28.136719 C 233.460938 27.507812 232.929688 27 232.285156 27 L 231.25 27 Z M 232.285156 29.941406 L 230.90625 29.941406 C 230.714844 29.941406 230.558594 29.792969 230.558594 29.605469 L 230.558594 26.664062 C 230.558594 26.480469 230.714844 26.332031 230.90625 26.332031 L 232.285156 26.332031 C 233.3125 26.332031 234.152344 27.140625 234.152344 28.136719 C 234.152344 29.132812 233.3125 29.941406 232.285156 29.941406 "/><path style=" stroke:none;fill-rule:nonzero;fill:rgb(6.269836%,5.879211%,5.099487%);fill-opacity:1;" d="M 239.902344 29.941406 L 237.003906 29.941406 C 236.8125 29.941406 236.65625 29.792969 236.65625 29.605469 L 236.65625 23.722656 C 236.65625 23.539062 236.8125 23.386719 237.003906 23.386719 C 237.195312 23.386719 237.351562 23.539062 237.351562 23.722656 L 237.351562 29.273438 L 239.902344 29.273438 C 240.09375 29.273438 240.25 29.421875 240.25 29.605469 C 240.25 29.792969 240.09375 29.941406 239.902344 29.941406 "/><path style=" stroke:none;fill-rule:nonzero;fill:rgb(6.269836%,5.879211%,5.099487%);fill-opacity:1;" d="M 243.699219 24.058594 C 242.886719 24.058594 242.226562 24.695312 242.226562 25.480469 L 242.226562 27.847656 C 242.226562 28.632812 242.886719 29.273438 243.699219 29.273438 C 244.511719 29.273438 245.171875 28.632812 245.171875 27.847656 L 245.171875 25.480469 C 245.171875 24.695312 244.511719 24.058594 243.699219 24.058594 Z M 243.699219 29.941406 C 242.503906 29.941406 241.535156 29.003906 241.535156 27.847656 L 241.535156 25.480469 C 241.535156 24.324219 242.503906 23.386719 243.699219 23.386719 C 244.890625 23.386719 245.863281 24.324219 245.863281 25.480469 L 245.863281 27.847656 C 245.863281 29.003906 244.890625 29.941406 243.699219 29.941406 "/><path style=" stroke:none;fill-rule:nonzero;fill:rgb(6.269836%,5.879211%,5.099487%);fill-opacity:1;" d="M 250.355469 29.941406 L 249.964844 29.941406 C 248.878906 29.941406 247.996094 29.085938 247.996094 28.035156 L 247.996094 25.292969 C 247.996094 24.242188 248.878906 23.386719 249.964844 23.386719 L 250.355469 23.386719 C 251.246094 23.386719 252.03125 23.96875 252.257812 24.804688 C 252.308594 24.984375 252.199219 25.167969 252.011719 25.210938 C 251.828125 25.261719 251.636719 25.152344 251.589844 24.976562 C 251.441406 24.433594 250.933594 24.058594 250.355469 24.058594 L 249.964844 24.058594 C 249.257812 24.058594 248.6875 24.609375 248.6875 25.292969 L 248.6875 28.035156 C 248.6875 28.71875 249.257812 29.273438 249.964844 29.273438 L 250.355469 29.273438 C 251.058594 29.273438 251.632812 28.71875 251.632812 28.035156 L 251.632812 27.421875 L 250.929688 27.421875 C 250.738281 27.421875 250.582031 27.273438 250.582031 27.085938 C 250.582031 26.902344 250.738281 26.753906 250.929688 26.753906 L 251.976562 26.753906 C 252.167969 26.753906 252.324219 26.902344 252.324219 27.085938 L 252.324219 28.035156 C 252.324219 29.085938 251.4375 29.941406 250.355469 29.941406 "/><g clip-rule="nonzero" clip-path="url(#clip83)"><path style=" stroke:none;fill-rule:nonzero;fill:rgb(6.269836%,5.879211%,5.099487%);fill-opacity:1;" d="M 231.117188 12.957031 C 227.277344 12.957031 223.675781 14.984375 222.109375 18.050781 C 220.140625 21.898438 221.574219 26.414062 223.570312 29.355469 C 225.710938 32.5 228.847656 34.941406 231.886719 37.300781 L 232.542969 37.8125 C 232.878906 38.074219 233.222656 38.339844 233.570312 38.605469 C 236.410156 40.792969 239.605469 43.257812 241.441406 46.328125 C 243.277344 43.257812 246.476562 40.792969 249.3125 38.605469 C 249.660156 38.339844 250.003906 38.074219 250.339844 37.8125 L 250.996094 37.300781 C 254.035156 34.941406 257.171875 32.5 259.3125 29.355469 C 261.308594 26.414062 262.742188 21.898438 260.773438 18.050781 C 259.175781 14.925781 255.476562 12.882812 251.546875 12.957031 C 247.382812 13.042969 243.589844 16.539062 241.703125 18.621094 C 241.570312 18.765625 241.3125 18.765625 241.179688 18.621094 C 239.292969 16.539062 235.5 13.042969 231.335938 12.957031 C 231.261719 12.957031 231.191406 12.957031 231.117188 12.957031 Z M 241.441406 47.359375 C 241.3125 47.359375 241.191406 47.289062 241.132812 47.179688 C 239.429688 43.980469 236.089844 41.402344 233.136719 39.128906 C 232.792969 38.863281 232.445312 38.597656 232.109375 38.332031 L 231.453125 37.824219 C 228.375 35.429688 225.191406 32.957031 222.992188 29.71875 C 220.890625 26.625 219.390625 21.855469 221.488281 17.753906 C 223.203125 14.402344 227.167969 12.214844 231.347656 12.289062 C 235.589844 12.375 239.402344 15.714844 241.441406 17.894531 C 243.480469 15.714844 247.292969 12.375 251.535156 12.289062 C 255.722656 12.210938 259.679688 14.402344 261.394531 17.753906 C 263.492188 21.855469 261.992188 26.625 259.890625 29.71875 C 257.691406 32.957031 254.507812 35.429688 251.429688 37.820312 L 250.773438 38.332031 C 250.4375 38.597656 250.089844 38.863281 249.746094 39.128906 C 246.796875 41.402344 243.453125 43.980469 241.75 47.179688 C 241.691406 47.289062 241.570312 47.359375 241.441406 47.359375 "/></g><path style=" stroke:none;fill-rule:nonzero;fill:rgb(32.159424%,72.549438%,81.568909%);fill-opacity:1;" d="M 258.300781 26.023438 C 256.265625 29.015625 253.203125 31.398438 250.238281 33.699219 L 249.582031 34.210938 C 249.246094 34.472656 248.902344 34.734375 248.558594 35 C 246.109375 36.890625 243.402344 38.976562 241.441406 41.523438 C 239.480469 38.976562 236.773438 36.890625 234.324219 35 C 233.980469 34.734375 233.636719 34.472656 233.300781 34.210938 L 232.644531 33.699219 C 229.679688 31.398438 226.617188 29.015625 224.582031 26.023438 C 223.601562 24.574219 222.765625 22.714844 222.480469 20.773438 C 222.027344 23.613281 223.148438 26.597656 224.582031 28.710938 C 226.617188 31.707031 229.679688 34.085938 232.644531 36.390625 L 233.300781 36.898438 C 233.636719 37.160156 233.980469 37.425781 234.324219 37.691406 C 236.773438 39.578125 239.480469 41.664062 241.441406 44.210938 C 243.402344 41.664062 246.109375 39.578125 248.558594 37.691406 C 248.902344 37.425781 249.246094 37.160156 249.582031 36.898438 L 250.238281 36.390625 C 253.203125 34.085938 256.265625 31.707031 258.300781 28.710938 C 259.734375 26.597656 260.855469 23.613281 260.402344 20.773438 C 260.117188 22.714844 259.28125 24.574219 258.300781 26.023438 "/></g></svg>